  0
SECTION
  2
BLOCKS
  0
ENDSEC
  0
SECTION
  2
ENTITIES
  0
LINE
  8
0
 10
155
 20
140.25
 11
0
 21
140.25
  0
LINE
  8
0
 10
0
 20
140.25
 11
0
 21
0
  0
LINE
  8
0
 10
0
 20
0
 11
155
 21
0
  0
LINE
  8
0
 10
155
 20
0
 11
155
 21
140.25
  0
LINE
  8
0
 10
74.6842
 20
34.7216
 11
71.9377
 21
35.381
  0
LINE
  8
0
 10
71.9377
 20
35.381
 11
69.3282
 21
36.4619
  0
LINE
  8
0
 10
69.3282
 20
36.4619
 11
66.9199
 21
37.9377
  0
LINE
  8
0
 10
66.9199
 20
37.9377
 11
64.7721
 21
39.7721
  0
LINE
  8
0
 10
64.7721
 20
39.7721
 11
62.9377
 21
41.9199
  0
LINE
  8
0
 10
62.9377
 20
41.9199
 11
61.4619
 21
44.3282
  0
LINE
  8
0
 10
61.4619
 20
44.3282
 11
60.381
 21
46.9377
  0
LINE
  8
0
 10
60.381
 20
46.9377
 11
59.7216
 21
49.6842
  0
LINE
  8
0
 10
59.7216
 20
49.6842
 11
59.5
 21
52.5
  0
LINE
  8
0
 10
59.5
 20
52.5
 11
59.7216
 21
55.3158
  0
LINE
  8
0
 10
59.7216
 20
55.3158
 11
60.381
 21
58.0623
  0
LINE
  8
0
 10
60.381
 20
58.0623
 11
61.4619
 21
60.6718
  0
LINE
  8
0
 10
61.4619
 20
60.6718
 11
62.9377
 21
63.0801
  0
LINE
  8
0
 10
62.9377
 20
63.0801
 11
64.7721
 21
65.2279
  0
LINE
  8
0
 10
64.7721
 20
65.2279
 11
66.9199
 21
67.0623
  0
LINE
  8
0
 10
66.9199
 20
67.0623
 11
69.3282
 21
68.5381
  0
LINE
  8
0
 10
69.3282
 20
68.5381
 11
71.9377
 21
69.619
  0
LINE
  8
0
 10
71.9377
 20
69.619
 11
74.6842
 21
70.2784
  0
LINE
  8
0
 10
74.6842
 20
70.2784
 11
77.5
 21
70.5
  0
LINE
  8
0
 10
77.5
 20
70.5
 11
80.3158
 21
70.2784
  0
LINE
  8
0
 10
80.3158
 20
70.2784
 11
83.0623
 21
69.619
  0
LINE
  8
0
 10
83.0623
 20
69.619
 11
85.6718
 21
68.5381
  0
LINE
  8
0
 10
85.6718
 20
68.5381
 11
88.0801
 21
67.0623
  0
LINE
  8
0
 10
88.0801
 20
67.0623
 11
90.2279
 21
65.2279
  0
LINE
  8
0
 10
90.2279
 20
65.2279
 11
92.0623
 21
63.0801
  0
LINE
  8
0
 10
92.0623
 20
63.0801
 11
93.5381
 21
60.6718
  0
LINE
  8
0
 10
93.5381
 20
60.6718
 11
94.619
 21
58.0623
  0
LINE
  8
0
 10
94.619
 20
58.0623
 11
95.2784
 21
55.3158
  0
LINE
  8
0
 10
95.2784
 20
55.3158
 11
95.5
 21
52.5
  0
LINE
  8
0
 10
95.5
 20
52.5
 11
95.2784
 21
49.6842
  0
LINE
  8
0
 10
95.2784
 20
49.6842
 11
94.619
 21
46.9377
  0
LINE
  8
0
 10
94.619
 20
46.9377
 11
93.5381
 21
44.3282
  0
LINE
  8
0
 10
93.5381
 20
44.3282
 11
92.0623
 21
41.9199
  0
LINE
  8
0
 10
92.0623
 20
41.9199
 11
90.2279
 21
39.7721
  0
LINE
  8
0
 10
90.2279
 20
39.7721
 11
88.0801
 21
37.9377
  0
LINE
  8
0
 10
88.0801
 20
37.9377
 11
85.6718
 21
36.4619
  0
LINE
  8
0
 10
85.6718
 20
36.4619
 11
83.0623
 21
35.381
  0
LINE
  8
0
 10
83.0623
 20
35.381
 11
80.3158
 21
34.7216
  0
LINE
  8
0
 10
80.3158
 20
34.7216
 11
77.5
 21
34.5
  0
LINE
  8
0
 10
77.5
 20
34.5
 11
74.6842
 21
34.7216
  0
LINE
  8
0
 10
93.2341
 20
66.8209
 11
92.9747
 21
66.8832
  0
LINE
  8
0
 10
92.9747
 20
66.8832
 11
92.7282
 21
66.9853
  0
LINE
  8
0
 10
92.7282
 20
66.9853
 11
92.5008
 21
67.1247
  0
LINE
  8
0
 10
92.5008
 20
67.1247
 11
92.2979
 21
67.2979
  0
LINE
  8
0
 10
92.2979
 20
67.2979
 11
92.1247
 21
67.5008
  0
LINE
  8
0
 10
92.1247
 20
67.5008
 11
91.9853
 21
67.7282
  0
LINE
  8
0
 10
91.9853
 20
67.7282
 11
91.8832
 21
67.9747
  0
LINE
  8
0
 10
91.8832
 20
67.9747
 11
91.8209
 21
68.2341
  0
LINE
  8
0
 10
91.8209
 20
68.2341
 11
91.8
 21
68.5
  0
LINE
  8
0
 10
91.8
 20
68.5
 11
91.8209
 21
68.7659
  0
LINE
  8
0
 10
91.8209
 20
68.7659
 11
91.8832
 21
69.0253
  0
LINE
  8
0
 10
91.8832
 20
69.0253
 11
91.9853
 21
69.2718
  0
LINE
  8
0
 10
91.9853
 20
69.2718
 11
92.1247
 21
69.4992
  0
LINE
  8
0
 10
92.1247
 20
69.4992
 11
92.2979
 21
69.7021
  0
LINE
  8
0
 10
92.2979
 20
69.7021
 11
92.5008
 21
69.8753
  0
LINE
  8
0
 10
92.5008
 20
69.8753
 11
92.7282
 21
70.0147
  0
LINE
  8
0
 10
92.7282
 20
70.0147
 11
92.9747
 21
70.1168
  0
LINE
  8
0
 10
92.9747
 20
70.1168
 11
93.2341
 21
70.1791
  0
LINE
  8
0
 10
93.2341
 20
70.1791
 11
93.5
 21
70.2
  0
LINE
  8
0
 10
93.5
 20
70.2
 11
93.7659
 21
70.1791
  0
LINE
  8
0
 10
93.7659
 20
70.1791
 11
94.0253
 21
70.1168
  0
LINE
  8
0
 10
94.0253
 20
70.1168
 11
94.2718
 21
70.0147
  0
LINE
  8
0
 10
94.2718
 20
70.0147
 11
94.4992
 21
69.8753
  0
LINE
  8
0
 10
94.4992
 20
69.8753
 11
94.7021
 21
69.7021
  0
LINE
  8
0
 10
94.7021
 20
69.7021
 11
94.8753
 21
69.4992
  0
LINE
  8
0
 10
94.8753
 20
69.4992
 11
95.0147
 21
69.2718
  0
LINE
  8
0
 10
95.0147
 20
69.2718
 11
95.1168
 21
69.0253
  0
LINE
  8
0
 10
95.1168
 20
69.0253
 11
95.1791
 21
68.7659
  0
LINE
  8
0
 10
95.1791
 20
68.7659
 11
95.2
 21
68.5
  0
LINE
  8
0
 10
95.2
 20
68.5
 11
95.1791
 21
68.2341
  0
LINE
  8
0
 10
95.1791
 20
68.2341
 11
95.1168
 21
67.9747
  0
LINE
  8
0
 10
95.1168
 20
67.9747
 11
95.0147
 21
67.7282
  0
LINE
  8
0
 10
95.0147
 20
67.7282
 11
94.8753
 21
67.5008
  0
LINE
  8
0
 10
94.8753
 20
67.5008
 11
94.7021
 21
67.2979
  0
LINE
  8
0
 10
94.7021
 20
67.2979
 11
94.4992
 21
67.1247
  0
LINE
  8
0
 10
94.4992
 20
67.1247
 11
94.2718
 21
66.9853
  0
LINE
  8
0
 10
94.2718
 20
66.9853
 11
94.0253
 21
66.8832
  0
LINE
  8
0
 10
94.0253
 20
66.8832
 11
93.7659
 21
66.8209
  0
LINE
  8
0
 10
93.7659
 20
66.8209
 11
93.5
 21
66.8
  0
LINE
  8
0
 10
93.5
 20
66.8
 11
93.2341
 21
66.8209
  0
LINE
  8
0
 10
61.2341
 20
66.8209
 11
60.9747
 21
66.8832
  0
LINE
  8
0
 10
60.9747
 20
66.8832
 11
60.7282
 21
66.9853
  0
LINE
  8
0
 10
60.7282
 20
66.9853
 11
60.5008
 21
67.1247
  0
LINE
  8
0
 10
60.5008
 20
67.1247
 11
60.2979
 21
67.2979
  0
LINE
  8
0
 10
60.2979
 20
67.2979
 11
60.1247
 21
67.5008
  0
LINE
  8
0
 10
60.1247
 20
67.5008
 11
59.9853
 21
67.7282
  0
LINE
  8
0
 10
59.9853
 20
67.7282
 11
59.8832
 21
67.9747
  0
LINE
  8
0
 10
59.8832
 20
67.9747
 11
59.8209
 21
68.2341
  0
LINE
  8
0
 10
59.8209
 20
68.2341
 11
59.8
 21
68.5
  0
LINE
  8
0
 10
59.8
 20
68.5
 11
59.8209
 21
68.7659
  0
LINE
  8
0
 10
59.8209
 20
68.7659
 11
59.8832
 21
69.0253
  0
LINE
  8
0
 10
59.8832
 20
69.0253
 11
59.9853
 21
69.2718
  0
LINE
  8
0
 10
59.9853
 20
69.2718
 11
60.1247
 21
69.4992
  0
LINE
  8
0
 10
60.1247
 20
69.4992
 11
60.2979
 21
69.7021
  0
LINE
  8
0
 10
60.2979
 20
69.7021
 11
60.5008
 21
69.8753
  0
LINE
  8
0
 10
60.5008
 20
69.8753
 11
60.7282
 21
70.0147
  0
LINE
  8
0
 10
60.7282
 20
70.0147
 11
60.9747
 21
70.1168
  0
LINE
  8
0
 10
60.9747
 20
70.1168
 11
61.2341
 21
70.1791
  0
LINE
  8
0
 10
61.2341
 20
70.1791
 11
61.5
 21
70.2
  0
LINE
  8
0
 10
61.5
 20
70.2
 11
61.7659
 21
70.1791
  0
LINE
  8
0
 10
61.7659
 20
70.1791
 11
62.0253
 21
70.1168
  0
LINE
  8
0
 10
62.0253
 20
70.1168
 11
62.2718
 21
70.0147
  0
LINE
  8
0
 10
62.2718
 20
70.0147
 11
62.4992
 21
69.8753
  0
LINE
  8
0
 10
62.4992
 20
69.8753
 11
62.7021
 21
69.7021
  0
LINE
  8
0
 10
62.7021
 20
69.7021
 11
62.8753
 21
69.4992
  0
LINE
  8
0
 10
62.8753
 20
69.4992
 11
63.0147
 21
69.2718
  0
LINE
  8
0
 10
63.0147
 20
69.2718
 11
63.1168
 21
69.0253
  0
LINE
  8
0
 10
63.1168
 20
69.0253
 11
63.1791
 21
68.7659
  0
LINE
  8
0
 10
63.1791
 20
68.7659
 11
63.2
 21
68.5
  0
LINE
  8
0
 10
63.2
 20
68.5
 11
63.1791
 21
68.2341
  0
LINE
  8
0
 10
63.1791
 20
68.2341
 11
63.1168
 21
67.9747
  0
LINE
  8
0
 10
63.1168
 20
67.9747
 11
63.0147
 21
67.7282
  0
LINE
  8
0
 10
63.0147
 20
67.7282
 11
62.8753
 21
67.5008
  0
LINE
  8
0
 10
62.8753
 20
67.5008
 11
62.7021
 21
67.2979
  0
LINE
  8
0
 10
62.7021
 20
67.2979
 11
62.4992
 21
67.1247
  0
LINE
  8
0
 10
62.4992
 20
67.1247
 11
62.2718
 21
66.9853
  0
LINE
  8
0
 10
62.2718
 20
66.9853
 11
62.0253
 21
66.8832
  0
LINE
  8
0
 10
62.0253
 20
66.8832
 11
61.7659
 21
66.8209
  0
LINE
  8
0
 10
61.7659
 20
66.8209
 11
61.5
 21
66.8
  0
LINE
  8
0
 10
61.5
 20
66.8
 11
61.2341
 21
66.8209
  0
LINE
  8
0
 10
93.2341
 20
34.8209
 11
92.9747
 21
34.8832
  0
LINE
  8
0
 10
92.9747
 20
34.8832
 11
92.7282
 21
34.9853
  0
LINE
  8
0
 10
92.7282
 20
34.9853
 11
92.5008
 21
35.1247
  0
LINE
  8
0
 10
92.5008
 20
35.1247
 11
92.2979
 21
35.2979
  0
LINE
  8
0
 10
92.2979
 20
35.2979
 11
92.1247
 21
35.5008
  0
LINE
  8
0
 10
92.1247
 20
35.5008
 11
91.9853
 21
35.7282
  0
LINE
  8
0
 10
91.9853
 20
35.7282
 11
91.8832
 21
35.9747
  0
LINE
  8
0
 10
91.8832
 20
35.9747
 11
91.8209
 21
36.2341
  0
LINE
  8
0
 10
91.8209
 20
36.2341
 11
91.8
 21
36.5
  0
LINE
  8
0
 10
91.8
 20
36.5
 11
91.8209
 21
36.7659
  0
LINE
  8
0
 10
91.8209
 20
36.7659
 11
91.8832
 21
37.0253
  0
LINE
  8
0
 10
91.8832
 20
37.0253
 11
91.9853
 21
37.2718
  0
LINE
  8
0
 10
91.9853
 20
37.2718
 11
92.1247
 21
37.4992
  0
LINE
  8
0
 10
92.1247
 20
37.4992
 11
92.2979
 21
37.7021
  0
LINE
  8
0
 10
92.2979
 20
37.7021
 11
92.5008
 21
37.8753
  0
LINE
  8
0
 10
92.5008
 20
37.8753
 11
92.7282
 21
38.0147
  0
LINE
  8
0
 10
92.7282
 20
38.0147
 11
92.9747
 21
38.1168
  0
LINE
  8
0
 10
92.9747
 20
38.1168
 11
93.2341
 21
38.1791
  0
LINE
  8
0
 10
93.2341
 20
38.1791
 11
93.5
 21
38.2
  0
LINE
  8
0
 10
93.5
 20
38.2
 11
93.7659
 21
38.1791
  0
LINE
  8
0
 10
93.7659
 20
38.1791
 11
94.0253
 21
38.1168
  0
LINE
  8
0
 10
94.0253
 20
38.1168
 11
94.2718
 21
38.0147
  0
LINE
  8
0
 10
94.2718
 20
38.0147
 11
94.4992
 21
37.8753
  0
LINE
  8
0
 10
94.4992
 20
37.8753
 11
94.7021
 21
37.7021
  0
LINE
  8
0
 10
94.7021
 20
37.7021
 11
94.8753
 21
37.4992
  0
LINE
  8
0
 10
94.8753
 20
37.4992
 11
95.0147
 21
37.2718
  0
LINE
  8
0
 10
95.0147
 20
37.2718
 11
95.1168
 21
37.0253
  0
LINE
  8
0
 10
95.1168
 20
37.0253
 11
95.1791
 21
36.7659
  0
LINE
  8
0
 10
95.1791
 20
36.7659
 11
95.2
 21
36.5
  0
LINE
  8
0
 10
95.2
 20
36.5
 11
95.1791
 21
36.2341
  0
LINE
  8
0
 10
95.1791
 20
36.2341
 11
95.1168
 21
35.9747
  0
LINE
  8
0
 10
95.1168
 20
35.9747
 11
95.0147
 21
35.7282
  0
LINE
  8
0
 10
95.0147
 20
35.7282
 11
94.8753
 21
35.5008
  0
LINE
  8
0
 10
94.8753
 20
35.5008
 11
94.7021
 21
35.2979
  0
LINE
  8
0
 10
94.7021
 20
35.2979
 11
94.4992
 21
35.1247
  0
LINE
  8
0
 10
94.4992
 20
35.1247
 11
94.2718
 21
34.9853
  0
LINE
  8
0
 10
94.2718
 20
34.9853
 11
94.0253
 21
34.8832
  0
LINE
  8
0
 10
94.0253
 20
34.8832
 11
93.7659
 21
34.8209
  0
LINE
  8
0
 10
93.7659
 20
34.8209
 11
93.5
 21
34.8
  0
LINE
  8
0
 10
93.5
 20
34.8
 11
93.2341
 21
34.8209
  0
LINE
  8
0
 10
61.2341
 20
34.8209
 11
60.9747
 21
34.8832
  0
LINE
  8
0
 10
60.9747
 20
34.8832
 11
60.7282
 21
34.9853
  0
LINE
  8
0
 10
60.7282
 20
34.9853
 11
60.5008
 21
35.1247
  0
LINE
  8
0
 10
60.5008
 20
35.1247
 11
60.2979
 21
35.2979
  0
LINE
  8
0
 10
60.2979
 20
35.2979
 11
60.1247
 21
35.5008
  0
LINE
  8
0
 10
60.1247
 20
35.5008
 11
59.9853
 21
35.7282
  0
LINE
  8
0
 10
59.9853
 20
35.7282
 11
59.8832
 21
35.9747
  0
LINE
  8
0
 10
59.8832
 20
35.9747
 11
59.8209
 21
36.2341
  0
LINE
  8
0
 10
59.8209
 20
36.2341
 11
59.8
 21
36.5
  0
LINE
  8
0
 10
59.8
 20
36.5
 11
59.8209
 21
36.7659
  0
LINE
  8
0
 10
59.8209
 20
36.7659
 11
59.8832
 21
37.0253
  0
LINE
  8
0
 10
59.8832
 20
37.0253
 11
59.9853
 21
37.2718
  0
LINE
  8
0
 10
59.9853
 20
37.2718
 11
60.1247
 21
37.4992
  0
LINE
  8
0
 10
60.1247
 20
37.4992
 11
60.2979
 21
37.7021
  0
LINE
  8
0
 10
60.2979
 20
37.7021
 11
60.5008
 21
37.8753
  0
LINE
  8
0
 10
60.5008
 20
37.8753
 11
60.7282
 21
38.0147
  0
LINE
  8
0
 10
60.7282
 20
38.0147
 11
60.9747
 21
38.1168
  0
LINE
  8
0
 10
60.9747
 20
38.1168
 11
61.2341
 21
38.1791
  0
LINE
  8
0
 10
61.2341
 20
38.1791
 11
61.5
 21
38.2
  0
LINE
  8
0
 10
61.5
 20
38.2
 11
61.7659
 21
38.1791
  0
LINE
  8
0
 10
61.7659
 20
38.1791
 11
62.0253
 21
38.1168
  0
LINE
  8
0
 10
62.0253
 20
38.1168
 11
62.2718
 21
38.0147
  0
LINE
  8
0
 10
62.2718
 20
38.0147
 11
62.4992
 21
37.8753
  0
LINE
  8
0
 10
62.4992
 20
37.8753
 11
62.7021
 21
37.7021
  0
LINE
  8
0
 10
62.7021
 20
37.7021
 11
62.8753
 21
37.4992
  0
LINE
  8
0
 10
62.8753
 20
37.4992
 11
63.0147
 21
37.2718
  0
LINE
  8
0
 10
63.0147
 20
37.2718
 11
63.1168
 21
37.0253
  0
LINE
  8
0
 10
63.1168
 20
37.0253
 11
63.1791
 21
36.7659
  0
LINE
  8
0
 10
63.1791
 20
36.7659
 11
63.2
 21
36.5
  0
LINE
  8
0
 10
63.2
 20
36.5
 11
63.1791
 21
36.2341
  0
LINE
  8
0
 10
63.1791
 20
36.2341
 11
63.1168
 21
35.9747
  0
LINE
  8
0
 10
63.1168
 20
35.9747
 11
63.0147
 21
35.7282
  0
LINE
  8
0
 10
63.0147
 20
35.7282
 11
62.8753
 21
35.5008
  0
LINE
  8
0
 10
62.8753
 20
35.5008
 11
62.7021
 21
35.2979
  0
LINE
  8
0
 10
62.7021
 20
35.2979
 11
62.4992
 21
35.1247
  0
LINE
  8
0
 10
62.4992
 20
35.1247
 11
62.2718
 21
34.9853
  0
LINE
  8
0
 10
62.2718
 20
34.9853
 11
62.0253
 21
34.8832
  0
LINE
  8
0
 10
62.0253
 20
34.8832
 11
61.7659
 21
34.8209
  0
LINE
  8
0
 10
61.7659
 20
34.8209
 11
61.5
 21
34.8
  0
LINE
  8
0
 10
61.5
 20
34.8
 11
61.2341
 21
34.8209
  0
ENDSEC
  0
SECTION
  2
OBJECTS
  0
DICTIONARY
  0
ENDSEC
  0
EOF
