  0
SECTION
  2
BLOCKS
  0
ENDSEC
  0
SECTION
  2
ENTITIES
  0
LINE
  8
0
 10
146.285
 20
0.530823
 11
147.064
 21
0.623108
  0
LINE
  8
0
 10
147.064
 20
0.623108
 11
147.834
 21
0.776291
  0
LINE
  8
0
 10
147.834
 20
0.776291
 11
148.59
 21
0.989426
  0
LINE
  8
0
 10
148.59
 20
0.989426
 11
149.327
 21
1.2612
  0
LINE
  8
0
 10
149.327
 20
1.2612
 11
150.04
 21
1.58992
  0
LINE
  8
0
 10
150.04
 20
1.58992
 11
150.725
 21
1.97359
  0
LINE
  8
0
 10
150.725
 20
1.97359
 11
151.378
 21
2.40982
  0
LINE
  8
0
 10
151.378
 20
2.40982
 11
151.994
 21
2.89594
  0
LINE
  8
0
 10
151.994
 20
2.89594
 11
152.571
 21
3.42892
  0
LINE
  8
0
 10
152.571
 20
3.42892
 11
153.104
 21
4.00551
  0
LINE
  8
0
 10
153.104
 20
4.00551
 11
153.59
 21
4.62215
  0
LINE
  8
0
 10
153.59
 20
4.62215
 11
154.026
 21
5.27501
  0
LINE
  8
0
 10
154.026
 20
5.27501
 11
154.41
 21
5.96008
  0
LINE
  8
0
 10
154.41
 20
5.96008
 11
154.739
 21
6.67316
  0
LINE
  8
0
 10
154.739
 20
6.67316
 11
155.011
 21
7.40982
  0
LINE
  8
0
 10
155.011
 20
7.40982
 11
155.224
 21
8.16554
  0
LINE
  8
0
 10
155.224
 20
8.16554
 11
155.377
 21
8.93565
  0
LINE
  8
0
 10
155.377
 20
8.93565
 11
155.469
 21
9.71541
  0
LINE
  8
0
 10
155.469
 20
9.71541
 11
155.5
 21
10.5
  0
LINE
  8
0
 10
155.5
 20
10.5
 11
155.5
 21
145.5
  0
LINE
  8
0
 10
155.5
 20
145.5
 11
155.469
 21
146.285
  0
LINE
  8
0
 10
155.469
 20
146.285
 11
155.377
 21
147.064
  0
LINE
  8
0
 10
155.377
 20
147.064
 11
155.224
 21
147.834
  0
LINE
  8
0
 10
155.224
 20
147.834
 11
155.011
 21
148.59
  0
LINE
  8
0
 10
155.011
 20
148.59
 11
154.739
 21
149.327
  0
LINE
  8
0
 10
154.739
 20
149.327
 11
154.41
 21
150.04
  0
LINE
  8
0
 10
154.41
 20
150.04
 11
154.026
 21
150.725
  0
LINE
  8
0
 10
154.026
 20
150.725
 11
153.59
 21
151.378
  0
LINE
  8
0
 10
153.59
 20
151.378
 11
153.104
 21
151.994
  0
LINE
  8
0
 10
153.104
 20
151.994
 11
152.571
 21
152.571
  0
LINE
  8
0
 10
152.571
 20
152.571
 11
151.994
 21
153.104
  0
LINE
  8
0
 10
151.994
 20
153.104
 11
151.378
 21
153.59
  0
LINE
  8
0
 10
151.378
 20
153.59
 11
150.725
 21
154.026
  0
LINE
  8
0
 10
150.725
 20
154.026
 11
150.04
 21
154.41
  0
LINE
  8
0
 10
150.04
 20
154.41
 11
149.327
 21
154.739
  0
LINE
  8
0
 10
149.327
 20
154.739
 11
148.59
 21
155.011
  0
LINE
  8
0
 10
148.59
 20
155.011
 11
147.834
 21
155.224
  0
LINE
  8
0
 10
147.834
 20
155.224
 11
147.064
 21
155.377
  0
LINE
  8
0
 10
147.064
 20
155.377
 11
146.285
 21
155.469
  0
LINE
  8
0
 10
146.285
 20
155.469
 11
145.5
 21
155.5
  0
LINE
  8
0
 10
145.5
 20
155.5
 11
10.5
 21
155.5
  0
LINE
  8
0
 10
10.5
 20
155.5
 11
9.71541
 21
155.469
  0
LINE
  8
0
 10
9.71541
 20
155.469
 11
8.93565
 21
155.377
  0
LINE
  8
0
 10
8.93565
 20
155.377
 11
8.16554
 21
155.224
  0
LINE
  8
0
 10
8.16554
 20
155.224
 11
7.40982
 21
155.011
  0
LINE
  8
0
 10
7.40982
 20
155.011
 11
6.67316
 21
154.739
  0
LINE
  8
0
 10
6.67316
 20
154.739
 11
5.96008
 21
154.41
  0
LINE
  8
0
 10
5.96008
 20
154.41
 11
5.27501
 21
154.026
  0
LINE
  8
0
 10
5.27501
 20
154.026
 11
4.62215
 21
153.59
  0
LINE
  8
0
 10
4.62215
 20
153.59
 11
4.00551
 21
153.104
  0
LINE
  8
0
 10
4.00551
 20
153.104
 11
3.42892
 21
152.571
  0
LINE
  8
0
 10
3.42892
 20
152.571
 11
2.89594
 21
151.994
  0
LINE
  8
0
 10
2.89594
 20
151.994
 11
2.40982
 21
151.378
  0
LINE
  8
0
 10
2.40982
 20
151.378
 11
1.97359
 21
150.725
  0
LINE
  8
0
 10
1.97359
 20
150.725
 11
1.58992
 21
150.04
  0
LINE
  8
0
 10
1.58992
 20
150.04
 11
1.2612
 21
149.327
  0
LINE
  8
0
 10
1.2612
 20
149.327
 11
0.989426
 21
148.59
  0
LINE
  8
0
 10
0.989426
 20
148.59
 11
0.776291
 21
147.834
  0
LINE
  8
0
 10
0.776291
 20
147.834
 11
0.623108
 21
147.064
  0
LINE
  8
0
 10
0.623108
 20
147.064
 11
0.530823
 21
146.285
  0
LINE
  8
0
 10
0.530823
 20
146.285
 11
0.5
 21
145.5
  0
LINE
  8
0
 10
0.5
 20
145.5
 11
0.5
 21
10.5
  0
LINE
  8
0
 10
0.5
 20
10.5
 11
0.530823
 21
9.71541
  0
LINE
  8
0
 10
0.530823
 20
9.71541
 11
0.623108
 21
8.93565
  0
LINE
  8
0
 10
0.623108
 20
8.93565
 11
0.776291
 21
8.16554
  0
LINE
  8
0
 10
0.776291
 20
8.16554
 11
0.989426
 21
7.40982
  0
LINE
  8
0
 10
0.989426
 20
7.40982
 11
1.2612
 21
6.67316
  0
LINE
  8
0
 10
1.2612
 20
6.67316
 11
1.58992
 21
5.96008
  0
LINE
  8
0
 10
1.58992
 20
5.96008
 11
1.97359
 21
5.27501
  0
LINE
  8
0
 10
1.97359
 20
5.27501
 11
2.40982
 21
4.62215
  0
LINE
  8
0
 10
2.40982
 20
4.62215
 11
2.89594
 21
4.00551
  0
LINE
  8
0
 10
2.89594
 20
4.00551
 11
3.42892
 21
3.42892
  0
LINE
  8
0
 10
3.42892
 20
3.42892
 11
4.00551
 21
2.89594
  0
LINE
  8
0
 10
4.00551
 20
2.89594
 11
4.62215
 21
2.40982
  0
LINE
  8
0
 10
4.62215
 20
2.40982
 11
5.27501
 21
1.97359
  0
LINE
  8
0
 10
5.27501
 20
1.97359
 11
5.96008
 21
1.58992
  0
LINE
  8
0
 10
5.96008
 20
1.58992
 11
6.67316
 21
1.2612
  0
LINE
  8
0
 10
6.67316
 20
1.2612
 11
7.40982
 21
0.989426
  0
LINE
  8
0
 10
7.40982
 20
0.989426
 11
8.16554
 21
0.776291
  0
LINE
  8
0
 10
8.16554
 20
0.776291
 11
8.93565
 21
0.623108
  0
LINE
  8
0
 10
8.93565
 20
0.623108
 11
9.71541
 21
0.530823
  0
LINE
  8
0
 10
9.71541
 20
0.530823
 11
10.5
 21
0.5
  0
LINE
  8
0
 10
10.5
 20
0.5
 11
145.5
 21
0.5
  0
LINE
  8
0
 10
145.5
 20
0.5
 11
146.285
 21
0.530823
  0
LINE
  8
0
 10
7.86661
 20
146.305
 11
7.73405
 21
146.321
  0
LINE
  8
0
 10
7.73405
 20
146.321
 11
7.60313
 21
146.347
  0
LINE
  8
0
 10
7.60313
 20
146.347
 11
7.47467
 21
146.383
  0
LINE
  8
0
 10
7.47467
 20
146.383
 11
7.34943
 21
146.429
  0
LINE
  8
0
 10
7.34943
 20
146.429
 11
7.22821
 21
146.485
  0
LINE
  8
0
 10
7.22821
 20
146.485
 11
7.11174
 21
146.551
  0
LINE
  8
0
 10
7.11174
 20
146.551
 11
7.00076
 21
146.625
  0
LINE
  8
0
 10
7.00076
 20
146.625
 11
6.89594
 21
146.707
  0
LINE
  8
0
 10
6.89594
 20
146.707
 11
6.79791
 21
146.798
  0
LINE
  8
0
 10
6.79791
 20
146.798
 11
6.70731
 21
146.896
  0
LINE
  8
0
 10
6.70731
 20
146.896
 11
6.62466
 21
147.001
  0
LINE
  8
0
 10
6.62466
 20
147.001
 11
6.55051
 21
147.112
  0
LINE
  8
0
 10
6.55051
 20
147.112
 11
6.48528
 21
147.228
  0
LINE
  8
0
 10
6.48528
 20
147.228
 11
6.4294
 21
147.349
  0
LINE
  8
0
 10
6.4294
 20
147.349
 11
6.38319
 21
147.475
  0
LINE
  8
0
 10
6.38319
 20
147.475
 11
6.34697
 21
147.603
  0
LINE
  8
0
 10
6.34697
 20
147.603
 11
6.32092
 21
147.734
  0
LINE
  8
0
 10
6.32092
 20
147.734
 11
6.30524
 21
147.867
  0
LINE
  8
0
 10
6.30524
 20
147.867
 11
6.29999
 21
148
  0
LINE
  8
0
 10
6.29999
 20
148
 11
6.30524
 21
148.133
  0
LINE
  8
0
 10
6.30524
 20
148.133
 11
6.32092
 21
148.266
  0
LINE
  8
0
 10
6.32092
 20
148.266
 11
6.34697
 21
148.397
  0
LINE
  8
0
 10
6.34697
 20
148.397
 11
6.38319
 21
148.525
  0
LINE
  8
0
 10
6.38319
 20
148.525
 11
6.4294
 21
148.651
  0
LINE
  8
0
 10
6.4294
 20
148.651
 11
6.48528
 21
148.772
  0
LINE
  8
0
 10
6.48528
 20
148.772
 11
6.55051
 21
148.888
  0
LINE
  8
0
 10
6.55051
 20
148.888
 11
6.62466
 21
148.999
  0
LINE
  8
0
 10
6.62466
 20
148.999
 11
6.70731
 21
149.104
  0
LINE
  8
0
 10
6.70731
 20
149.104
 11
6.79791
 21
149.202
  0
LINE
  8
0
 10
6.79791
 20
149.202
 11
6.89594
 21
149.293
  0
LINE
  8
0
 10
6.89594
 20
149.293
 11
7.00076
 21
149.375
  0
LINE
  8
0
 10
7.00076
 20
149.375
 11
7.11174
 21
149.449
  0
LINE
  8
0
 10
7.11174
 20
149.449
 11
7.22821
 21
149.515
  0
LINE
  8
0
 10
7.22821
 20
149.515
 11
7.34943
 21
149.571
  0
LINE
  8
0
 10
7.34943
 20
149.571
 11
7.47467
 21
149.617
  0
LINE
  8
0
 10
7.47467
 20
149.617
 11
7.60313
 21
149.653
  0
LINE
  8
0
 10
7.60313
 20
149.653
 11
7.73405
 21
149.679
  0
LINE
  8
0
 10
7.73405
 20
149.679
 11
7.86661
 21
149.695
  0
LINE
  8
0
 10
7.86661
 20
149.695
 11
8
 21
149.7
  0
LINE
  8
0
 10
8
 20
149.7
 11
8.13338
 21
149.695
  0
LINE
  8
0
 10
8.13338
 20
149.695
 11
8.26593
 21
149.679
  0
LINE
  8
0
 10
8.26593
 20
149.679
 11
8.39685
 21
149.653
  0
LINE
  8
0
 10
8.39685
 20
149.653
 11
8.52531
 21
149.617
  0
LINE
  8
0
 10
8.52531
 20
149.617
 11
8.65056
 21
149.571
  0
LINE
  8
0
 10
8.65056
 20
149.571
 11
8.77177
 21
149.515
  0
LINE
  8
0
 10
8.77177
 20
149.515
 11
8.88824
 21
149.449
  0
LINE
  8
0
 10
8.88824
 20
149.449
 11
8.99922
 21
149.375
  0
LINE
  8
0
 10
8.99922
 20
149.375
 11
9.10405
 21
149.293
  0
LINE
  8
0
 10
9.10405
 20
149.293
 11
9.20207
 21
149.202
  0
LINE
  8
0
 10
9.20207
 20
149.202
 11
9.29268
 21
149.104
  0
LINE
  8
0
 10
9.29268
 20
149.104
 11
9.37532
 21
148.999
  0
LINE
  8
0
 10
9.37532
 20
148.999
 11
9.44948
 21
148.888
  0
LINE
  8
0
 10
9.44948
 20
148.888
 11
9.51471
 21
148.772
  0
LINE
  8
0
 10
9.51471
 20
148.772
 11
9.57059
 21
148.651
  0
LINE
  8
0
 10
9.57059
 20
148.651
 11
9.61679
 21
148.525
  0
LINE
  8
0
 10
9.61679
 20
148.525
 11
9.65302
 21
148.397
  0
LINE
  8
0
 10
9.65302
 20
148.397
 11
9.67906
 21
148.266
  0
LINE
  8
0
 10
9.67906
 20
148.266
 11
9.69475
 21
148.133
  0
LINE
  8
0
 10
9.69475
 20
148.133
 11
9.7
 21
148
  0
LINE
  8
0
 10
9.7
 20
148
 11
9.69475
 21
147.867
  0
LINE
  8
0
 10
9.69475
 20
147.867
 11
9.67906
 21
147.734
  0
LINE
  8
0
 10
9.67906
 20
147.734
 11
9.65302
 21
147.603
  0
LINE
  8
0
 10
9.65302
 20
147.603
 11
9.61679
 21
147.475
  0
LINE
  8
0
 10
9.61679
 20
147.475
 11
9.57059
 21
147.349
  0
LINE
  8
0
 10
9.57059
 20
147.349
 11
9.51471
 21
147.228
  0
LINE
  8
0
 10
9.51471
 20
147.228
 11
9.44948
 21
147.112
  0
LINE
  8
0
 10
9.44948
 20
147.112
 11
9.37532
 21
147.001
  0
LINE
  8
0
 10
9.37532
 20
147.001
 11
9.29268
 21
146.896
  0
LINE
  8
0
 10
9.29268
 20
146.896
 11
9.20207
 21
146.798
  0
LINE
  8
0
 10
9.20207
 20
146.798
 11
9.10405
 21
146.707
  0
LINE
  8
0
 10
9.10405
 20
146.707
 11
8.99922
 21
146.625
  0
LINE
  8
0
 10
8.99922
 20
146.625
 11
8.88824
 21
146.551
  0
LINE
  8
0
 10
8.88824
 20
146.551
 11
8.77177
 21
146.485
  0
LINE
  8
0
 10
8.77177
 20
146.485
 11
8.65056
 21
146.429
  0
LINE
  8
0
 10
8.65056
 20
146.429
 11
8.52531
 21
146.383
  0
LINE
  8
0
 10
8.52531
 20
146.383
 11
8.39685
 21
146.347
  0
LINE
  8
0
 10
8.39685
 20
146.347
 11
8.26593
 21
146.321
  0
LINE
  8
0
 10
8.26593
 20
146.321
 11
8.13338
 21
146.305
  0
LINE
  8
0
 10
8.13338
 20
146.305
 11
8
 21
146.3
  0
LINE
  8
0
 10
8
 20
146.3
 11
7.86661
 21
146.305
  0
LINE
  8
0
 10
147.867
 20
146.305
 11
147.734
 21
146.321
  0
LINE
  8
0
 10
147.734
 20
146.321
 11
147.603
 21
146.347
  0
LINE
  8
0
 10
147.603
 20
146.347
 11
147.475
 21
146.383
  0
LINE
  8
0
 10
147.475
 20
146.383
 11
147.349
 21
146.429
  0
LINE
  8
0
 10
147.349
 20
146.429
 11
147.228
 21
146.485
  0
LINE
  8
0
 10
147.228
 20
146.485
 11
147.112
 21
146.551
  0
LINE
  8
0
 10
147.112
 20
146.551
 11
147.001
 21
146.625
  0
LINE
  8
0
 10
147.001
 20
146.625
 11
146.896
 21
146.707
  0
LINE
  8
0
 10
146.896
 20
146.707
 11
146.798
 21
146.798
  0
LINE
  8
0
 10
146.798
 20
146.798
 11
146.707
 21
146.896
  0
LINE
  8
0
 10
146.707
 20
146.896
 11
146.625
 21
147.001
  0
LINE
  8
0
 10
146.625
 20
147.001
 11
146.551
 21
147.112
  0
LINE
  8
0
 10
146.551
 20
147.112
 11
146.485
 21
147.228
  0
LINE
  8
0
 10
146.485
 20
147.228
 11
146.429
 21
147.349
  0
LINE
  8
0
 10
146.429
 20
147.349
 11
146.383
 21
147.475
  0
LINE
  8
0
 10
146.383
 20
147.475
 11
146.347
 21
147.603
  0
LINE
  8
0
 10
146.347
 20
147.603
 11
146.321
 21
147.734
  0
LINE
  8
0
 10
146.321
 20
147.734
 11
146.305
 21
147.867
  0
LINE
  8
0
 10
146.305
 20
147.867
 11
146.3
 21
148
  0
LINE
  8
0
 10
146.3
 20
148
 11
146.305
 21
148.133
  0
LINE
  8
0
 10
146.305
 20
148.133
 11
146.321
 21
148.266
  0
LINE
  8
0
 10
146.321
 20
148.266
 11
146.347
 21
148.397
  0
LINE
  8
0
 10
146.347
 20
148.397
 11
146.383
 21
148.525
  0
LINE
  8
0
 10
146.383
 20
148.525
 11
146.429
 21
148.651
  0
LINE
  8
0
 10
146.429
 20
148.651
 11
146.485
 21
148.772
  0
LINE
  8
0
 10
146.485
 20
148.772
 11
146.551
 21
148.888
  0
LINE
  8
0
 10
146.551
 20
148.888
 11
146.625
 21
148.999
  0
LINE
  8
0
 10
146.625
 20
148.999
 11
146.707
 21
149.104
  0
LINE
  8
0
 10
146.707
 20
149.104
 11
146.798
 21
149.202
  0
LINE
  8
0
 10
146.798
 20
149.202
 11
146.896
 21
149.293
  0
LINE
  8
0
 10
146.896
 20
149.293
 11
147.001
 21
149.375
  0
LINE
  8
0
 10
147.001
 20
149.375
 11
147.112
 21
149.449
  0
LINE
  8
0
 10
147.112
 20
149.449
 11
147.228
 21
149.515
  0
LINE
  8
0
 10
147.228
 20
149.515
 11
147.349
 21
149.571
  0
LINE
  8
0
 10
147.349
 20
149.571
 11
147.475
 21
149.617
  0
LINE
  8
0
 10
147.475
 20
149.617
 11
147.603
 21
149.653
  0
LINE
  8
0
 10
147.603
 20
149.653
 11
147.734
 21
149.679
  0
LINE
  8
0
 10
147.734
 20
149.679
 11
147.867
 21
149.695
  0
LINE
  8
0
 10
147.867
 20
149.695
 11
148
 21
149.7
  0
LINE
  8
0
 10
148
 20
149.7
 11
148.133
 21
149.695
  0
LINE
  8
0
 10
148.133
 20
149.695
 11
148.266
 21
149.679
  0
LINE
  8
0
 10
148.266
 20
149.679
 11
148.397
 21
149.653
  0
LINE
  8
0
 10
148.397
 20
149.653
 11
148.525
 21
149.617
  0
LINE
  8
0
 10
148.525
 20
149.617
 11
148.651
 21
149.571
  0
LINE
  8
0
 10
148.651
 20
149.571
 11
148.772
 21
149.515
  0
LINE
  8
0
 10
148.772
 20
149.515
 11
148.888
 21
149.449
  0
LINE
  8
0
 10
148.888
 20
149.449
 11
148.999
 21
149.375
  0
LINE
  8
0
 10
148.999
 20
149.375
 11
149.104
 21
149.293
  0
LINE
  8
0
 10
149.104
 20
149.293
 11
149.202
 21
149.202
  0
LINE
  8
0
 10
149.202
 20
149.202
 11
149.293
 21
149.104
  0
LINE
  8
0
 10
149.293
 20
149.104
 11
149.375
 21
148.999
  0
LINE
  8
0
 10
149.375
 20
148.999
 11
149.449
 21
148.888
  0
LINE
  8
0
 10
149.449
 20
148.888
 11
149.515
 21
148.772
  0
LINE
  8
0
 10
149.515
 20
148.772
 11
149.571
 21
148.651
  0
LINE
  8
0
 10
149.571
 20
148.651
 11
149.617
 21
148.525
  0
LINE
  8
0
 10
149.617
 20
148.525
 11
149.653
 21
148.397
  0
LINE
  8
0
 10
149.653
 20
148.397
 11
149.679
 21
148.266
  0
LINE
  8
0
 10
149.679
 20
148.266
 11
149.695
 21
148.133
  0
LINE
  8
0
 10
149.695
 20
148.133
 11
149.7
 21
148
  0
LINE
  8
0
 10
149.7
 20
148
 11
149.695
 21
147.867
  0
LINE
  8
0
 10
149.695
 20
147.867
 11
149.679
 21
147.734
  0
LINE
  8
0
 10
149.679
 20
147.734
 11
149.653
 21
147.603
  0
LINE
  8
0
 10
149.653
 20
147.603
 11
149.617
 21
147.475
  0
LINE
  8
0
 10
149.617
 20
147.475
 11
149.571
 21
147.349
  0
LINE
  8
0
 10
149.571
 20
147.349
 11
149.515
 21
147.228
  0
LINE
  8
0
 10
149.515
 20
147.228
 11
149.449
 21
147.112
  0
LINE
  8
0
 10
149.449
 20
147.112
 11
149.375
 21
147.001
  0
LINE
  8
0
 10
149.375
 20
147.001
 11
149.293
 21
146.896
  0
LINE
  8
0
 10
149.293
 20
146.896
 11
149.202
 21
146.798
  0
LINE
  8
0
 10
149.202
 20
146.798
 11
149.104
 21
146.707
  0
LINE
  8
0
 10
149.104
 20
146.707
 11
148.999
 21
146.625
  0
LINE
  8
0
 10
148.999
 20
146.625
 11
148.888
 21
146.551
  0
LINE
  8
0
 10
148.888
 20
146.551
 11
148.772
 21
146.485
  0
LINE
  8
0
 10
148.772
 20
146.485
 11
148.651
 21
146.429
  0
LINE
  8
0
 10
148.651
 20
146.429
 11
148.525
 21
146.383
  0
LINE
  8
0
 10
148.525
 20
146.383
 11
148.397
 21
146.347
  0
LINE
  8
0
 10
148.397
 20
146.347
 11
148.266
 21
146.321
  0
LINE
  8
0
 10
148.266
 20
146.321
 11
148.133
 21
146.305
  0
LINE
  8
0
 10
148.133
 20
146.305
 11
148
 21
146.3
  0
LINE
  8
0
 10
148
 20
146.3
 11
147.867
 21
146.305
  0
LINE
  8
0
 10
7.86661
 20
6.30524
 11
7.73405
 21
6.32092
  0
LINE
  8
0
 10
7.73405
 20
6.32092
 11
7.60313
 21
6.34697
  0
LINE
  8
0
 10
7.60313
 20
6.34697
 11
7.47467
 21
6.38319
  0
LINE
  8
0
 10
7.47467
 20
6.38319
 11
7.34943
 21
6.4294
  0
LINE
  8
0
 10
7.34943
 20
6.4294
 11
7.22821
 21
6.48528
  0
LINE
  8
0
 10
7.22821
 20
6.48528
 11
7.11174
 21
6.55051
  0
LINE
  8
0
 10
7.11174
 20
6.55051
 11
7.00076
 21
6.62466
  0
LINE
  8
0
 10
7.00076
 20
6.62466
 11
6.89594
 21
6.70731
  0
LINE
  8
0
 10
6.89594
 20
6.70731
 11
6.79791
 21
6.79791
  0
LINE
  8
0
 10
6.79791
 20
6.79791
 11
6.70731
 21
6.89594
  0
LINE
  8
0
 10
6.70731
 20
6.89594
 11
6.62466
 21
7.00076
  0
LINE
  8
0
 10
6.62466
 20
7.00076
 11
6.55051
 21
7.11174
  0
LINE
  8
0
 10
6.55051
 20
7.11174
 11
6.48528
 21
7.22821
  0
LINE
  8
0
 10
6.48528
 20
7.22821
 11
6.4294
 21
7.34943
  0
LINE
  8
0
 10
6.4294
 20
7.34943
 11
6.38319
 21
7.47467
  0
LINE
  8
0
 10
6.38319
 20
7.47467
 11
6.34697
 21
7.60313
  0
LINE
  8
0
 10
6.34697
 20
7.60313
 11
6.32092
 21
7.73405
  0
LINE
  8
0
 10
6.32092
 20
7.73405
 11
6.30524
 21
7.86661
  0
LINE
  8
0
 10
6.30524
 20
7.86661
 11
6.29999
 21
8
  0
LINE
  8
0
 10
6.29999
 20
8
 11
6.30524
 21
8.13338
  0
LINE
  8
0
 10
6.30524
 20
8.13338
 11
6.32092
 21
8.26593
  0
LINE
  8
0
 10
6.32092
 20
8.26593
 11
6.34697
 21
8.39685
  0
LINE
  8
0
 10
6.34697
 20
8.39685
 11
6.38319
 21
8.52531
  0
LINE
  8
0
 10
6.38319
 20
8.52531
 11
6.4294
 21
8.65056
  0
LINE
  8
0
 10
6.4294
 20
8.65056
 11
6.48528
 21
8.77177
  0
LINE
  8
0
 10
6.48528
 20
8.77177
 11
6.55051
 21
8.88824
  0
LINE
  8
0
 10
6.55051
 20
8.88824
 11
6.62466
 21
8.99922
  0
LINE
  8
0
 10
6.62466
 20
8.99922
 11
6.70731
 21
9.10405
  0
LINE
  8
0
 10
6.70731
 20
9.10405
 11
6.79791
 21
9.20207
  0
LINE
  8
0
 10
6.79791
 20
9.20207
 11
6.89594
 21
9.29268
  0
LINE
  8
0
 10
6.89594
 20
9.29268
 11
7.00076
 21
9.37532
  0
LINE
  8
0
 10
7.00076
 20
9.37532
 11
7.11174
 21
9.44948
  0
LINE
  8
0
 10
7.11174
 20
9.44948
 11
7.22821
 21
9.51471
  0
LINE
  8
0
 10
7.22821
 20
9.51471
 11
7.34943
 21
9.57059
  0
LINE
  8
0
 10
7.34943
 20
9.57059
 11
7.47467
 21
9.61679
  0
LINE
  8
0
 10
7.47467
 20
9.61679
 11
7.60313
 21
9.65302
  0
LINE
  8
0
 10
7.60313
 20
9.65302
 11
7.73405
 21
9.67906
  0
LINE
  8
0
 10
7.73405
 20
9.67906
 11
7.86661
 21
9.69475
  0
LINE
  8
0
 10
7.86661
 20
9.69475
 11
8
 21
9.7
  0
LINE
  8
0
 10
8
 20
9.7
 11
8.13338
 21
9.69475
  0
LINE
  8
0
 10
8.13338
 20
9.69475
 11
8.26593
 21
9.67906
  0
LINE
  8
0
 10
8.26593
 20
9.67906
 11
8.39685
 21
9.65302
  0
LINE
  8
0
 10
8.39685
 20
9.65302
 11
8.52531
 21
9.61679
  0
LINE
  8
0
 10
8.52531
 20
9.61679
 11
8.65056
 21
9.57059
  0
LINE
  8
0
 10
8.65056
 20
9.57059
 11
8.77177
 21
9.51471
  0
LINE
  8
0
 10
8.77177
 20
9.51471
 11
8.88824
 21
9.44948
  0
LINE
  8
0
 10
8.88824
 20
9.44948
 11
8.99922
 21
9.37532
  0
LINE
  8
0
 10
8.99922
 20
9.37532
 11
9.10405
 21
9.29268
  0
LINE
  8
0
 10
9.10405
 20
9.29268
 11
9.20207
 21
9.20207
  0
LINE
  8
0
 10
9.20207
 20
9.20207
 11
9.29268
 21
9.10405
  0
LINE
  8
0
 10
9.29268
 20
9.10405
 11
9.37532
 21
8.99922
  0
LINE
  8
0
 10
9.37532
 20
8.99922
 11
9.44948
 21
8.88824
  0
LINE
  8
0
 10
9.44948
 20
8.88824
 11
9.51471
 21
8.77177
  0
LINE
  8
0
 10
9.51471
 20
8.77177
 11
9.57059
 21
8.65056
  0
LINE
  8
0
 10
9.57059
 20
8.65056
 11
9.61679
 21
8.52531
  0
LINE
  8
0
 10
9.61679
 20
8.52531
 11
9.65302
 21
8.39685
  0
LINE
  8
0
 10
9.65302
 20
8.39685
 11
9.67906
 21
8.26593
  0
LINE
  8
0
 10
9.67906
 20
8.26593
 11
9.69475
 21
8.13338
  0
LINE
  8
0
 10
9.69475
 20
8.13338
 11
9.7
 21
8
  0
LINE
  8
0
 10
9.7
 20
8
 11
9.69475
 21
7.86661
  0
LINE
  8
0
 10
9.69475
 20
7.86661
 11
9.67906
 21
7.73405
  0
LINE
  8
0
 10
9.67906
 20
7.73405
 11
9.65302
 21
7.60313
  0
LINE
  8
0
 10
9.65302
 20
7.60313
 11
9.61679
 21
7.47467
  0
LINE
  8
0
 10
9.61679
 20
7.47467
 11
9.57059
 21
7.34943
  0
LINE
  8
0
 10
9.57059
 20
7.34943
 11
9.51471
 21
7.22821
  0
LINE
  8
0
 10
9.51471
 20
7.22821
 11
9.44948
 21
7.11174
  0
LINE
  8
0
 10
9.44948
 20
7.11174
 11
9.37532
 21
7.00076
  0
LINE
  8
0
 10
9.37532
 20
7.00076
 11
9.29268
 21
6.89594
  0
LINE
  8
0
 10
9.29268
 20
6.89594
 11
9.20207
 21
6.79791
  0
LINE
  8
0
 10
9.20207
 20
6.79791
 11
9.10405
 21
6.70731
  0
LINE
  8
0
 10
9.10405
 20
6.70731
 11
8.99922
 21
6.62466
  0
LINE
  8
0
 10
8.99922
 20
6.62466
 11
8.88824
 21
6.55051
  0
LINE
  8
0
 10
8.88824
 20
6.55051
 11
8.77177
 21
6.48528
  0
LINE
  8
0
 10
8.77177
 20
6.48528
 11
8.65056
 21
6.4294
  0
LINE
  8
0
 10
8.65056
 20
6.4294
 11
8.52531
 21
6.38319
  0
LINE
  8
0
 10
8.52531
 20
6.38319
 11
8.39685
 21
6.34697
  0
LINE
  8
0
 10
8.39685
 20
6.34697
 11
8.26593
 21
6.32092
  0
LINE
  8
0
 10
8.26593
 20
6.32092
 11
8.13338
 21
6.30524
  0
LINE
  8
0
 10
8.13338
 20
6.30524
 11
8
 21
6.29999
  0
LINE
  8
0
 10
8
 20
6.29999
 11
7.86661
 21
6.30524
  0
LINE
  8
0
 10
147.867
 20
6.30524
 11
147.734
 21
6.32092
  0
LINE
  8
0
 10
147.734
 20
6.32092
 11
147.603
 21
6.34697
  0
LINE
  8
0
 10
147.603
 20
6.34697
 11
147.475
 21
6.38319
  0
LINE
  8
0
 10
147.475
 20
6.38319
 11
147.349
 21
6.4294
  0
LINE
  8
0
 10
147.349
 20
6.4294
 11
147.228
 21
6.48528
  0
LINE
  8
0
 10
147.228
 20
6.48528
 11
147.112
 21
6.55051
  0
LINE
  8
0
 10
147.112
 20
6.55051
 11
147.001
 21
6.62466
  0
LINE
  8
0
 10
147.001
 20
6.62466
 11
146.896
 21
6.70731
  0
LINE
  8
0
 10
146.896
 20
6.70731
 11
146.798
 21
6.79791
  0
LINE
  8
0
 10
146.798
 20
6.79791
 11
146.707
 21
6.89594
  0
LINE
  8
0
 10
146.707
 20
6.89594
 11
146.625
 21
7.00076
  0
LINE
  8
0
 10
146.625
 20
7.00076
 11
146.551
 21
7.11174
  0
LINE
  8
0
 10
146.551
 20
7.11174
 11
146.485
 21
7.22821
  0
LINE
  8
0
 10
146.485
 20
7.22821
 11
146.429
 21
7.34943
  0
LINE
  8
0
 10
146.429
 20
7.34943
 11
146.383
 21
7.47467
  0
LINE
  8
0
 10
146.383
 20
7.47467
 11
146.347
 21
7.60313
  0
LINE
  8
0
 10
146.347
 20
7.60313
 11
146.321
 21
7.73405
  0
LINE
  8
0
 10
146.321
 20
7.73405
 11
146.305
 21
7.86661
  0
LINE
  8
0
 10
146.305
 20
7.86661
 11
146.3
 21
8
  0
LINE
  8
0
 10
146.3
 20
8
 11
146.305
 21
8.13338
  0
LINE
  8
0
 10
146.305
 20
8.13338
 11
146.321
 21
8.26593
  0
LINE
  8
0
 10
146.321
 20
8.26593
 11
146.347
 21
8.39685
  0
LINE
  8
0
 10
146.347
 20
8.39685
 11
146.383
 21
8.52531
  0
LINE
  8
0
 10
146.383
 20
8.52531
 11
146.429
 21
8.65056
  0
LINE
  8
0
 10
146.429
 20
8.65056
 11
146.485
 21
8.77177
  0
LINE
  8
0
 10
146.485
 20
8.77177
 11
146.551
 21
8.88824
  0
LINE
  8
0
 10
146.551
 20
8.88824
 11
146.625
 21
8.99922
  0
LINE
  8
0
 10
146.625
 20
8.99922
 11
146.707
 21
9.10405
  0
LINE
  8
0
 10
146.707
 20
9.10405
 11
146.798
 21
9.20207
  0
LINE
  8
0
 10
146.798
 20
9.20207
 11
146.896
 21
9.29268
  0
LINE
  8
0
 10
146.896
 20
9.29268
 11
147.001
 21
9.37532
  0
LINE
  8
0
 10
147.001
 20
9.37532
 11
147.112
 21
9.44948
  0
LINE
  8
0
 10
147.112
 20
9.44948
 11
147.228
 21
9.51471
  0
LINE
  8
0
 10
147.228
 20
9.51471
 11
147.349
 21
9.57059
  0
LINE
  8
0
 10
147.349
 20
9.57059
 11
147.475
 21
9.61679
  0
LINE
  8
0
 10
147.475
 20
9.61679
 11
147.603
 21
9.65302
  0
LINE
  8
0
 10
147.603
 20
9.65302
 11
147.734
 21
9.67906
  0
LINE
  8
0
 10
147.734
 20
9.67906
 11
147.867
 21
9.69475
  0
LINE
  8
0
 10
147.867
 20
9.69475
 11
148
 21
9.7
  0
LINE
  8
0
 10
148
 20
9.7
 11
148.133
 21
9.69475
  0
LINE
  8
0
 10
148.133
 20
9.69475
 11
148.266
 21
9.67906
  0
LINE
  8
0
 10
148.266
 20
9.67906
 11
148.397
 21
9.65302
  0
LINE
  8
0
 10
148.397
 20
9.65302
 11
148.525
 21
9.61679
  0
LINE
  8
0
 10
148.525
 20
9.61679
 11
148.651
 21
9.57059
  0
LINE
  8
0
 10
148.651
 20
9.57059
 11
148.772
 21
9.51471
  0
LINE
  8
0
 10
148.772
 20
9.51471
 11
148.888
 21
9.44948
  0
LINE
  8
0
 10
148.888
 20
9.44948
 11
148.999
 21
9.37532
  0
LINE
  8
0
 10
148.999
 20
9.37532
 11
149.104
 21
9.29268
  0
LINE
  8
0
 10
149.104
 20
9.29268
 11
149.202
 21
9.20207
  0
LINE
  8
0
 10
149.202
 20
9.20207
 11
149.293
 21
9.10405
  0
LINE
  8
0
 10
149.293
 20
9.10405
 11
149.375
 21
8.99922
  0
LINE
  8
0
 10
149.375
 20
8.99922
 11
149.449
 21
8.88824
  0
LINE
  8
0
 10
149.449
 20
8.88824
 11
149.515
 21
8.77177
  0
LINE
  8
0
 10
149.515
 20
8.77177
 11
149.571
 21
8.65056
  0
LINE
  8
0
 10
149.571
 20
8.65056
 11
149.617
 21
8.52531
  0
LINE
  8
0
 10
149.617
 20
8.52531
 11
149.653
 21
8.39685
  0
LINE
  8
0
 10
149.653
 20
8.39685
 11
149.679
 21
8.26593
  0
LINE
  8
0
 10
149.679
 20
8.26593
 11
149.695
 21
8.13338
  0
LINE
  8
0
 10
149.695
 20
8.13338
 11
149.7
 21
8
  0
LINE
  8
0
 10
149.7
 20
8
 11
149.695
 21
7.86661
  0
LINE
  8
0
 10
149.695
 20
7.86661
 11
149.679
 21
7.73405
  0
LINE
  8
0
 10
149.679
 20
7.73405
 11
149.653
 21
7.60313
  0
LINE
  8
0
 10
149.653
 20
7.60313
 11
149.617
 21
7.47467
  0
LINE
  8
0
 10
149.617
 20
7.47467
 11
149.571
 21
7.34943
  0
LINE
  8
0
 10
149.571
 20
7.34943
 11
149.515
 21
7.22821
  0
LINE
  8
0
 10
149.515
 20
7.22821
 11
149.449
 21
7.11174
  0
LINE
  8
0
 10
149.449
 20
7.11174
 11
149.375
 21
7.00076
  0
LINE
  8
0
 10
149.375
 20
7.00076
 11
149.293
 21
6.89594
  0
LINE
  8
0
 10
149.293
 20
6.89594
 11
149.202
 21
6.79791
  0
LINE
  8
0
 10
149.202
 20
6.79791
 11
149.104
 21
6.70731
  0
LINE
  8
0
 10
149.104
 20
6.70731
 11
148.999
 21
6.62466
  0
LINE
  8
0
 10
148.999
 20
6.62466
 11
148.888
 21
6.55051
  0
LINE
  8
0
 10
148.888
 20
6.55051
 11
148.772
 21
6.48528
  0
LINE
  8
0
 10
148.772
 20
6.48528
 11
148.651
 21
6.4294
  0
LINE
  8
0
 10
148.651
 20
6.4294
 11
148.525
 21
6.38319
  0
LINE
  8
0
 10
148.525
 20
6.38319
 11
148.397
 21
6.34697
  0
LINE
  8
0
 10
148.397
 20
6.34697
 11
148.266
 21
6.32092
  0
LINE
  8
0
 10
148.266
 20
6.32092
 11
148.133
 21
6.30524
  0
LINE
  8
0
 10
148.133
 20
6.30524
 11
148
 21
6.29999
  0
LINE
  8
0
 10
148
 20
6.29999
 11
147.867
 21
6.30524
  0
ENDSEC
  0
SECTION
  2
OBJECTS
  0
DICTIONARY
  0
ENDSEC
  0
EOF
