  0
SECTION
  2
BLOCKS
  0
ENDSEC
  0
SECTION
  2
ENTITIES
  0
LINE
  8
0
 10
150.235
 20
2.51848
 11
150.35
 21
2.54146
  0
LINE
  8
0
 10
150.35
 20
2.54146
 11
150.464
 21
2.57343
  0
LINE
  8
0
 10
150.464
 20
2.57343
 11
150.574
 21
2.61418
  0
LINE
  8
0
 10
150.574
 20
2.61418
 11
150.681
 21
2.6635
  0
LINE
  8
0
 10
150.681
 20
2.6635
 11
150.784
 21
2.72105
  0
LINE
  8
0
 10
150.784
 20
2.72105
 11
150.882
 21
2.78648
  0
LINE
  8
0
 10
150.882
 20
2.78648
 11
150.974
 21
2.85941
  0
LINE
  8
0
 10
150.974
 20
2.85941
 11
151.061
 21
2.93935
  0
LINE
  8
0
 10
151.061
 20
2.93935
 11
151.141
 21
3.02583
  0
LINE
  8
0
 10
151.141
 20
3.02583
 11
151.214
 21
3.11833
  0
LINE
  8
0
 10
151.214
 20
3.11833
 11
151.279
 21
3.21626
  0
LINE
  8
0
 10
151.279
 20
3.21626
 11
151.337
 21
3.31902
  0
LINE
  8
0
 10
151.337
 20
3.31902
 11
151.386
 21
3.42598
  0
LINE
  8
0
 10
151.386
 20
3.42598
 11
151.427
 21
3.53648
  0
LINE
  8
0
 10
151.427
 20
3.53648
 11
151.459
 21
3.64984
  0
LINE
  8
0
 10
151.459
 20
3.64984
 11
151.482
 21
3.76535
  0
LINE
  8
0
 10
151.482
 20
3.76535
 11
151.495
 21
3.88232
  0
LINE
  8
0
 10
151.495
 20
3.88232
 11
151.5
 21
4
  0
LINE
  8
0
 10
151.5
 20
4
 11
151.5
 21
114.44
  0
LINE
  8
0
 10
151.5
 20
114.44
 11
151.495
 21
114.558
  0
LINE
  8
0
 10
151.495
 20
114.558
 11
151.482
 21
114.675
  0
LINE
  8
0
 10
151.482
 20
114.675
 11
151.459
 21
114.79
  0
LINE
  8
0
 10
151.459
 20
114.79
 11
151.427
 21
114.904
  0
LINE
  8
0
 10
151.427
 20
114.904
 11
151.386
 21
115.014
  0
LINE
  8
0
 10
151.386
 20
115.014
 11
151.337
 21
115.121
  0
LINE
  8
0
 10
151.337
 20
115.121
 11
151.279
 21
115.224
  0
LINE
  8
0
 10
151.279
 20
115.224
 11
151.214
 21
115.322
  0
LINE
  8
0
 10
151.214
 20
115.322
 11
151.141
 21
115.414
  0
LINE
  8
0
 10
151.141
 20
115.414
 11
151.061
 21
115.501
  0
LINE
  8
0
 10
151.061
 20
115.501
 11
150.974
 21
115.581
  0
LINE
  8
0
 10
150.974
 20
115.581
 11
150.882
 21
115.654
  0
LINE
  8
0
 10
150.882
 20
115.654
 11
150.784
 21
115.719
  0
LINE
  8
0
 10
150.784
 20
115.719
 11
150.681
 21
115.776
  0
LINE
  8
0
 10
150.681
 20
115.776
 11
150.574
 21
115.826
  0
LINE
  8
0
 10
150.574
 20
115.826
 11
150.464
 21
115.867
  0
LINE
  8
0
 10
150.464
 20
115.867
 11
150.35
 21
115.899
  0
LINE
  8
0
 10
150.35
 20
115.899
 11
150.235
 21
115.922
  0
LINE
  8
0
 10
150.235
 20
115.922
 11
150.118
 21
115.935
  0
LINE
  8
0
 10
150.118
 20
115.935
 11
150
 21
115.94
  0
LINE
  8
0
 10
150
 20
115.94
 11
119.5
 21
115.94
  0
LINE
  8
0
 10
119.5
 20
115.94
 11
119.382
 21
115.935
  0
LINE
  8
0
 10
119.382
 20
115.935
 11
119.265
 21
115.922
  0
LINE
  8
0
 10
119.265
 20
115.922
 11
119.15
 21
115.899
  0
LINE
  8
0
 10
119.15
 20
115.899
 11
119.036
 21
115.867
  0
LINE
  8
0
 10
119.036
 20
115.867
 11
118.926
 21
115.826
  0
LINE
  8
0
 10
118.926
 20
115.826
 11
118.819
 21
115.776
  0
LINE
  8
0
 10
118.819
 20
115.776
 11
118.716
 21
115.719
  0
LINE
  8
0
 10
118.716
 20
115.719
 11
118.618
 21
115.654
  0
LINE
  8
0
 10
118.618
 20
115.654
 11
118.526
 21
115.581
  0
LINE
  8
0
 10
118.526
 20
115.581
 11
118.439
 21
115.501
  0
LINE
  8
0
 10
118.439
 20
115.501
 11
118.359
 21
115.414
  0
LINE
  8
0
 10
118.359
 20
115.414
 11
118.286
 21
115.322
  0
LINE
  8
0
 10
118.286
 20
115.322
 11
118.221
 21
115.224
  0
LINE
  8
0
 10
118.221
 20
115.224
 11
118.163
 21
115.121
  0
LINE
  8
0
 10
118.163
 20
115.121
 11
118.114
 21
115.014
  0
LINE
  8
0
 10
118.114
 20
115.014
 11
118.073
 21
114.904
  0
LINE
  8
0
 10
118.073
 20
114.904
 11
118.041
 21
114.79
  0
LINE
  8
0
 10
118.041
 20
114.79
 11
118.018
 21
114.675
  0
LINE
  8
0
 10
118.018
 20
114.675
 11
118.005
 21
114.558
  0
LINE
  8
0
 10
118.005
 20
114.558
 11
118
 21
114.44
  0
LINE
  8
0
 10
118
 20
114.44
 11
118
 21
99.94
  0
LINE
  8
0
 10
118
 20
99.94
 11
107.5
 21
99.94
  0
LINE
  8
0
 10
107.5
 20
99.94
 11
107.382
 21
99.9353
  0
LINE
  8
0
 10
107.382
 20
99.9353
 11
107.265
 21
99.9215
  0
LINE
  8
0
 10
107.265
 20
99.9215
 11
107.15
 21
99.8985
  0
LINE
  8
0
 10
107.15
 20
99.8985
 11
107.036
 21
99.8666
  0
LINE
  8
0
 10
107.036
 20
99.8666
 11
106.926
 21
99.8258
  0
LINE
  8
0
 10
106.926
 20
99.8258
 11
106.819
 21
99.7765
  0
LINE
  8
0
 10
106.819
 20
99.7765
 11
106.716
 21
99.7189
  0
LINE
  8
0
 10
106.716
 20
99.7189
 11
106.618
 21
99.6535
  0
LINE
  8
0
 10
106.618
 20
99.6535
 11
106.526
 21
99.5806
  0
LINE
  8
0
 10
106.526
 20
99.5806
 11
106.439
 21
99.5006
  0
LINE
  8
0
 10
106.439
 20
99.5006
 11
106.359
 21
99.4142
  0
LINE
  8
0
 10
106.359
 20
99.4142
 11
106.286
 21
99.3217
  0
LINE
  8
0
 10
106.286
 20
99.3217
 11
106.221
 21
99.2237
  0
LINE
  8
0
 10
106.221
 20
99.2237
 11
106.163
 21
99.121
  0
LINE
  8
0
 10
106.163
 20
99.121
 11
106.114
 21
99.014
  0
LINE
  8
0
 10
106.114
 20
99.014
 11
106.073
 21
98.9035
  0
LINE
  8
0
 10
106.073
 20
98.9035
 11
106.041
 21
98.7901
  0
LINE
  8
0
 10
106.041
 20
98.7901
 11
106.018
 21
98.6746
  0
LINE
  8
0
 10
106.018
 20
98.6746
 11
106.005
 21
98.5577
  0
LINE
  8
0
 10
106.005
 20
98.5577
 11
106
 21
98.44
  0
LINE
  8
0
 10
106
 20
98.44
 11
106
 21
95.94
  0
LINE
  8
0
 10
106
 20
95.94
 11
93
 21
95.94
  0
LINE
  8
0
 10
93
 20
95.94
 11
92.8823
 21
95.9353
  0
LINE
  8
0
 10
92.8823
 20
95.9353
 11
92.7654
 21
95.9215
  0
LINE
  8
0
 10
92.7654
 20
95.9215
 11
92.6498
 21
95.8985
  0
LINE
  8
0
 10
92.6498
 20
95.8985
 11
92.5365
 21
95.8666
  0
LINE
  8
0
 10
92.5365
 20
95.8666
 11
92.426
 21
95.8258
  0
LINE
  8
0
 10
92.426
 20
95.8258
 11
92.319
 21
95.7765
  0
LINE
  8
0
 10
92.319
 20
95.7765
 11
92.2163
 21
95.7189
  0
LINE
  8
0
 10
92.2163
 20
95.7189
 11
92.1183
 21
95.6535
  0
LINE
  8
0
 10
92.1183
 20
95.6535
 11
92.0258
 21
95.5806
  0
LINE
  8
0
 10
92.0258
 20
95.5806
 11
91.9393
 21
95.5006
  0
LINE
  8
0
 10
91.9393
 20
95.5006
 11
91.8594
 21
95.4142
  0
LINE
  8
0
 10
91.8594
 20
95.4142
 11
91.7865
 21
95.3217
  0
LINE
  8
0
 10
91.7865
 20
95.3217
 11
91.7211
 21
95.2237
  0
LINE
  8
0
 10
91.7211
 20
95.2237
 11
91.6635
 21
95.121
  0
LINE
  8
0
 10
91.6635
 20
95.121
 11
91.6142
 21
95.014
  0
LINE
  8
0
 10
91.6142
 20
95.014
 11
91.5734
 21
94.9035
  0
LINE
  8
0
 10
91.5734
 20
94.9035
 11
91.5415
 21
94.7901
  0
LINE
  8
0
 10
91.5415
 20
94.7901
 11
91.5185
 21
94.6746
  0
LINE
  8
0
 10
91.5185
 20
94.6746
 11
91.5046
 21
94.5577
  0
LINE
  8
0
 10
91.5046
 20
94.5577
 11
91.5
 21
94.44
  0
LINE
  8
0
 10
91.5
 20
94.44
 11
91.5
 21
89.94
  0
LINE
  8
0
 10
91.5
 20
89.94
 11
58.5
 21
89.94
  0
LINE
  8
0
 10
58.5
 20
89.94
 11
58.5
 21
94.44
  0
LINE
  8
0
 10
58.5
 20
94.44
 11
58.4954
 21
94.5577
  0
LINE
  8
0
 10
58.4954
 20
94.5577
 11
58.4815
 21
94.6746
  0
LINE
  8
0
 10
58.4815
 20
94.6746
 11
58.4585
 21
94.7901
  0
LINE
  8
0
 10
58.4585
 20
94.7901
 11
58.4266
 21
94.9035
  0
LINE
  8
0
 10
58.4266
 20
94.9035
 11
58.3858
 21
95.014
  0
LINE
  8
0
 10
58.3858
 20
95.014
 11
58.3365
 21
95.121
  0
LINE
  8
0
 10
58.3365
 20
95.121
 11
58.2789
 21
95.2237
  0
LINE
  8
0
 10
58.2789
 20
95.2237
 11
58.2135
 21
95.3217
  0
LINE
  8
0
 10
58.2135
 20
95.3217
 11
58.1406
 21
95.4142
  0
LINE
  8
0
 10
58.1406
 20
95.4142
 11
58.0607
 21
95.5006
  0
LINE
  8
0
 10
58.0607
 20
95.5006
 11
57.9742
 21
95.5806
  0
LINE
  8
0
 10
57.9742
 20
95.5806
 11
57.8817
 21
95.6535
  0
LINE
  8
0
 10
57.8817
 20
95.6535
 11
57.7837
 21
95.7189
  0
LINE
  8
0
 10
57.7837
 20
95.7189
 11
57.681
 21
95.7765
  0
LINE
  8
0
 10
57.681
 20
95.7765
 11
57.574
 21
95.8258
  0
LINE
  8
0
 10
57.574
 20
95.8258
 11
57.4635
 21
95.8666
  0
LINE
  8
0
 10
57.4635
 20
95.8666
 11
57.3502
 21
95.8985
  0
LINE
  8
0
 10
57.3502
 20
95.8985
 11
57.2346
 21
95.9215
  0
LINE
  8
0
 10
57.2346
 20
95.9215
 11
57.1177
 21
95.9353
  0
LINE
  8
0
 10
57.1177
 20
95.9353
 11
57
 21
95.94
  0
LINE
  8
0
 10
57
 20
95.94
 11
44
 21
95.94
  0
LINE
  8
0
 10
44
 20
95.94
 11
44
 21
114.44
  0
LINE
  8
0
 10
44
 20
114.44
 11
43.9954
 21
114.558
  0
LINE
  8
0
 10
43.9954
 20
114.558
 11
43.9815
 21
114.675
  0
LINE
  8
0
 10
43.9815
 20
114.675
 11
43.9585
 21
114.79
  0
LINE
  8
0
 10
43.9585
 20
114.79
 11
43.9266
 21
114.904
  0
LINE
  8
0
 10
43.9266
 20
114.904
 11
43.8858
 21
115.014
  0
LINE
  8
0
 10
43.8858
 20
115.014
 11
43.8365
 21
115.121
  0
LINE
  8
0
 10
43.8365
 20
115.121
 11
43.7789
 21
115.224
  0
LINE
  8
0
 10
43.7789
 20
115.224
 11
43.7135
 21
115.322
  0
LINE
  8
0
 10
43.7135
 20
115.322
 11
43.6406
 21
115.414
  0
LINE
  8
0
 10
43.6406
 20
115.414
 11
43.5607
 21
115.501
  0
LINE
  8
0
 10
43.5607
 20
115.501
 11
43.4742
 21
115.581
  0
LINE
  8
0
 10
43.4742
 20
115.581
 11
43.3817
 21
115.654
  0
LINE
  8
0
 10
43.3817
 20
115.654
 11
43.2837
 21
115.719
  0
LINE
  8
0
 10
43.2837
 20
115.719
 11
43.181
 21
115.776
  0
LINE
  8
0
 10
43.181
 20
115.776
 11
43.074
 21
115.826
  0
LINE
  8
0
 10
43.074
 20
115.826
 11
42.9635
 21
115.867
  0
LINE
  8
0
 10
42.9635
 20
115.867
 11
42.8502
 21
115.899
  0
LINE
  8
0
 10
42.8502
 20
115.899
 11
42.7346
 21
115.922
  0
LINE
  8
0
 10
42.7346
 20
115.922
 11
42.6177
 21
115.935
  0
LINE
  8
0
 10
42.6177
 20
115.935
 11
42.5
 21
115.94
  0
LINE
  8
0
 10
42.5
 20
115.94
 11
0
 21
115.94
  0
LINE
  8
0
 10
0
 20
115.94
 11
-0.117676
 21
115.935
  0
LINE
  8
0
 10
-0.117676
 20
115.935
 11
-0.23465
 21
115.922
  0
LINE
  8
0
 10
-0.23465
 20
115.922
 11
-0.350159
 21
115.899
  0
LINE
  8
0
 10
-0.350159
 20
115.899
 11
-0.463516
 21
115.867
  0
LINE
  8
0
 10
-0.463516
 20
115.867
 11
-0.57402
 21
115.826
  0
LINE
  8
0
 10
-0.57402
 20
115.826
 11
-0.680984
 21
115.776
  0
LINE
  8
0
 10
-0.680984
 20
115.776
 11
-0.783737
 21
115.719
  0
LINE
  8
0
 10
-0.783737
 20
115.719
 11
-0.881668
 21
115.654
  0
LINE
  8
0
 10
-0.881668
 20
115.654
 11
-0.974167
 21
115.581
  0
LINE
  8
0
 10
-0.974167
 20
115.581
 11
-1.06065
 21
115.501
  0
LINE
  8
0
 10
-1.06065
 20
115.501
 11
-1.14059
 21
115.414
  0
LINE
  8
0
 10
-1.14059
 20
115.414
 11
-1.21352
 21
115.322
  0
LINE
  8
0
 10
-1.21352
 20
115.322
 11
-1.27895
 21
115.224
  0
LINE
  8
0
 10
-1.27895
 20
115.224
 11
-1.3365
 21
115.121
  0
LINE
  8
0
 10
-1.3365
 20
115.121
 11
-1.38582
 21
115.014
  0
LINE
  8
0
 10
-1.38582
 20
115.014
 11
-1.42657
 21
114.904
  0
LINE
  8
0
 10
-1.42657
 20
114.904
 11
-1.45854
 21
114.79
  0
LINE
  8
0
 10
-1.45854
 20
114.79
 11
-1.48152
 21
114.675
  0
LINE
  8
0
 10
-1.48152
 20
114.675
 11
-1.49536
 21
114.558
  0
LINE
  8
0
 10
-1.49536
 20
114.558
 11
-1.5
 21
114.44
  0
LINE
  8
0
 10
-1.5
 20
114.44
 11
-1.5
 21
4
  0
LINE
  8
0
 10
-1.5
 20
4
 11
-1.49536
 21
3.88232
  0
LINE
  8
0
 10
-1.49536
 20
3.88232
 11
-1.48152
 21
3.76535
  0
LINE
  8
0
 10
-1.48152
 20
3.76535
 11
-1.45854
 21
3.64984
  0
LINE
  8
0
 10
-1.45854
 20
3.64984
 11
-1.42657
 21
3.53648
  0
LINE
  8
0
 10
-1.42657
 20
3.53648
 11
-1.38582
 21
3.42598
  0
LINE
  8
0
 10
-1.38582
 20
3.42598
 11
-1.3365
 21
3.31902
  0
LINE
  8
0
 10
-1.3365
 20
3.31902
 11
-1.27895
 21
3.21626
  0
LINE
  8
0
 10
-1.27895
 20
3.21626
 11
-1.21352
 21
3.11833
  0
LINE
  8
0
 10
-1.21352
 20
3.11833
 11
-1.14059
 21
3.02583
  0
LINE
  8
0
 10
-1.14059
 20
3.02583
 11
-1.06065
 21
2.93935
  0
LINE
  8
0
 10
-1.06065
 20
2.93935
 11
-0.974167
 21
2.85941
  0
LINE
  8
0
 10
-0.974167
 20
2.85941
 11
-0.881668
 21
2.78648
  0
LINE
  8
0
 10
-0.881668
 20
2.78648
 11
-0.783737
 21
2.72105
  0
LINE
  8
0
 10
-0.783737
 20
2.72105
 11
-0.680984
 21
2.6635
  0
LINE
  8
0
 10
-0.680984
 20
2.6635
 11
-0.57402
 21
2.61418
  0
LINE
  8
0
 10
-0.57402
 20
2.61418
 11
-0.463516
 21
2.57343
  0
LINE
  8
0
 10
-0.463516
 20
2.57343
 11
-0.350159
 21
2.54146
  0
LINE
  8
0
 10
-0.350159
 20
2.54146
 11
-0.23465
 21
2.51848
  0
LINE
  8
0
 10
-0.23465
 20
2.51848
 11
-0.117676
 21
2.50464
  0
LINE
  8
0
 10
-0.117676
 20
2.50464
 11
0
 21
2.5
  0
LINE
  8
0
 10
0
 20
2.5
 11
2.5
 21
2.5
  0
LINE
  8
0
 10
2.5
 20
2.5
 11
2.5
 21
0
  0
LINE
  8
0
 10
2.5
 20
0
 11
2.50464
 21
-0.117676
  0
LINE
  8
0
 10
2.50464
 20
-0.117676
 11
2.51848
 21
-0.23465
  0
LINE
  8
0
 10
2.51848
 20
-0.23465
 11
2.54146
 21
-0.350159
  0
LINE
  8
0
 10
2.54146
 20
-0.350159
 11
2.57343
 21
-0.463516
  0
LINE
  8
0
 10
2.57343
 20
-0.463516
 11
2.61418
 21
-0.57402
  0
LINE
  8
0
 10
2.61418
 20
-0.57402
 11
2.6635
 21
-0.680984
  0
LINE
  8
0
 10
2.6635
 20
-0.680984
 11
2.72105
 21
-0.783737
  0
LINE
  8
0
 10
2.72105
 20
-0.783737
 11
2.78648
 21
-0.881668
  0
LINE
  8
0
 10
2.78648
 20
-0.881668
 11
2.85941
 21
-0.974167
  0
LINE
  8
0
 10
2.85941
 20
-0.974167
 11
2.93935
 21
-1.06065
  0
LINE
  8
0
 10
2.93935
 20
-1.06065
 11
3.02583
 21
-1.14059
  0
LINE
  8
0
 10
3.02583
 20
-1.14059
 11
3.11833
 21
-1.21352
  0
LINE
  8
0
 10
3.11833
 20
-1.21352
 11
3.21626
 21
-1.27895
  0
LINE
  8
0
 10
3.21626
 20
-1.27895
 11
3.31902
 21
-1.3365
  0
LINE
  8
0
 10
3.31902
 20
-1.3365
 11
3.42598
 21
-1.38582
  0
LINE
  8
0
 10
3.42598
 20
-1.38582
 11
3.53648
 21
-1.42657
  0
LINE
  8
0
 10
3.53648
 20
-1.42657
 11
3.64984
 21
-1.45854
  0
LINE
  8
0
 10
3.64984
 20
-1.45854
 11
3.76535
 21
-1.48152
  0
LINE
  8
0
 10
3.76535
 20
-1.48152
 11
3.88232
 21
-1.49536
  0
LINE
  8
0
 10
3.88232
 20
-1.49536
 11
4
 21
-1.5
  0
LINE
  8
0
 10
4
 20
-1.5
 11
146
 21
-1.5
  0
LINE
  8
0
 10
146
 20
-1.5
 11
146.118
 21
-1.49536
  0
LINE
  8
0
 10
146.118
 20
-1.49536
 11
146.235
 21
-1.48152
  0
LINE
  8
0
 10
146.235
 20
-1.48152
 11
146.35
 21
-1.45854
  0
LINE
  8
0
 10
146.35
 20
-1.45854
 11
146.464
 21
-1.42657
  0
LINE
  8
0
 10
146.464
 20
-1.42657
 11
146.574
 21
-1.38582
  0
LINE
  8
0
 10
146.574
 20
-1.38582
 11
146.681
 21
-1.3365
  0
LINE
  8
0
 10
146.681
 20
-1.3365
 11
146.784
 21
-1.27895
  0
LINE
  8
0
 10
146.784
 20
-1.27895
 11
146.882
 21
-1.21352
  0
LINE
  8
0
 10
146.882
 20
-1.21352
 11
146.974
 21
-1.14059
  0
LINE
  8
0
 10
146.974
 20
-1.14059
 11
147.061
 21
-1.06065
  0
LINE
  8
0
 10
147.061
 20
-1.06065
 11
147.141
 21
-0.974167
  0
LINE
  8
0
 10
147.141
 20
-0.974167
 11
147.214
 21
-0.881668
  0
LINE
  8
0
 10
147.214
 20
-0.881668
 11
147.279
 21
-0.783737
  0
LINE
  8
0
 10
147.279
 20
-0.783737
 11
147.337
 21
-0.680984
  0
LINE
  8
0
 10
147.337
 20
-0.680984
 11
147.386
 21
-0.57402
  0
LINE
  8
0
 10
147.386
 20
-0.57402
 11
147.427
 21
-0.463516
  0
LINE
  8
0
 10
147.427
 20
-0.463516
 11
147.459
 21
-0.350159
  0
LINE
  8
0
 10
147.459
 20
-0.350159
 11
147.482
 21
-0.23465
  0
LINE
  8
0
 10
147.482
 20
-0.23465
 11
147.495
 21
-0.117676
  0
LINE
  8
0
 10
147.495
 20
-0.117676
 11
147.5
 21
0
  0
LINE
  8
0
 10
147.5
 20
0
 11
147.5
 21
2.5
  0
LINE
  8
0
 10
147.5
 20
2.5
 11
150
 21
2.5
  0
LINE
  8
0
 10
150
 20
2.5
 11
150.118
 21
2.50464
  0
LINE
  8
0
 10
150.118
 20
2.50464
 11
150.235
 21
2.51848
  0
ENDSEC
  0
SECTION
  2
OBJECTS
  0
DICTIONARY
  0
ENDSEC
  0
EOF
