  0
SECTION
  2
BLOCKS
  0
ENDSEC
  0
SECTION
  2
ENTITIES
  0
LINE
  8
0
 10
68
 20
18.78
 11
71
 21
18.78
  0
LINE
  8
0
 10
71
 20
18.78
 11
71.1177
 21
18.7846
  0
LINE
  8
0
 10
71.1177
 20
18.7846
 11
71.2346
 21
18.7985
  0
LINE
  8
0
 10
71.2346
 20
18.7985
 11
71.3502
 21
18.8215
  0
LINE
  8
0
 10
71.3502
 20
18.8215
 11
71.4635
 21
18.8534
  0
LINE
  8
0
 10
71.4635
 20
18.8534
 11
71.574
 21
18.8942
  0
LINE
  8
0
 10
71.574
 20
18.8942
 11
71.681
 21
18.9435
  0
LINE
  8
0
 10
71.681
 20
18.9435
 11
71.7837
 21
19.0011
  0
LINE
  8
0
 10
71.7837
 20
19.0011
 11
71.8817
 21
19.0665
  0
LINE
  8
0
 10
71.8817
 20
19.0665
 11
71.9742
 21
19.1394
  0
LINE
  8
0
 10
71.9742
 20
19.1394
 11
72.0607
 21
19.2193
  0
LINE
  8
0
 10
72.0607
 20
19.2193
 11
72.1406
 21
19.3058
  0
LINE
  8
0
 10
72.1406
 20
19.3058
 11
72.2135
 21
19.3983
  0
LINE
  8
0
 10
72.2135
 20
19.3983
 11
72.2789
 21
19.4963
  0
LINE
  8
0
 10
72.2789
 20
19.4963
 11
72.3365
 21
19.599
  0
LINE
  8
0
 10
72.3365
 20
19.599
 11
72.3858
 21
19.706
  0
LINE
  8
0
 10
72.3858
 20
19.706
 11
72.4266
 21
19.8165
  0
LINE
  8
0
 10
72.4266
 20
19.8165
 11
72.4585
 21
19.9298
  0
LINE
  8
0
 10
72.4585
 20
19.9298
 11
72.4815
 21
20.0453
  0
LINE
  8
0
 10
72.4815
 20
20.0453
 11
72.4954
 21
20.1623
  0
LINE
  8
0
 10
72.4954
 20
20.1623
 11
72.5
 21
20.28
  0
LINE
  8
0
 10
72.5
 20
20.28
 11
72.5
 21
32.56
  0
LINE
  8
0
 10
72.5
 20
32.56
 11
72.4954
 21
32.6777
  0
LINE
  8
0
 10
72.4954
 20
32.6777
 11
72.4815
 21
32.7946
  0
LINE
  8
0
 10
72.4815
 20
32.7946
 11
72.4585
 21
32.9102
  0
LINE
  8
0
 10
72.4585
 20
32.9102
 11
72.4266
 21
33.0235
  0
LINE
  8
0
 10
72.4266
 20
33.0235
 11
72.3858
 21
33.134
  0
LINE
  8
0
 10
72.3858
 20
33.134
 11
72.3365
 21
33.241
  0
LINE
  8
0
 10
72.3365
 20
33.241
 11
72.2789
 21
33.3437
  0
LINE
  8
0
 10
72.2789
 20
33.3437
 11
72.2135
 21
33.4417
  0
LINE
  8
0
 10
72.2135
 20
33.4417
 11
72.1406
 21
33.5342
  0
LINE
  8
0
 10
72.1406
 20
33.5342
 11
72.0607
 21
33.6207
  0
LINE
  8
0
 10
72.0607
 20
33.6207
 11
71.9742
 21
33.7006
  0
LINE
  8
0
 10
71.9742
 20
33.7006
 11
71.8817
 21
33.7735
  0
LINE
  8
0
 10
71.8817
 20
33.7735
 11
71.7837
 21
33.8389
  0
LINE
  8
0
 10
71.7837
 20
33.8389
 11
71.681
 21
33.8965
  0
LINE
  8
0
 10
71.681
 20
33.8965
 11
71.574
 21
33.9458
  0
LINE
  8
0
 10
71.574
 20
33.9458
 11
71.4635
 21
33.9866
  0
LINE
  8
0
 10
71.4635
 20
33.9866
 11
71.3502
 21
34.0185
  0
LINE
  8
0
 10
71.3502
 20
34.0185
 11
71.2346
 21
34.0415
  0
LINE
  8
0
 10
71.2346
 20
34.0415
 11
71.1177
 21
34.0554
  0
LINE
  8
0
 10
71.1177
 20
34.0554
 11
71
 21
34.06
  0
LINE
  8
0
 10
71
 20
34.06
 11
0
 21
34.06
  0
LINE
  8
0
 10
0
 20
34.06
 11
-0.117676
 21
34.0554
  0
LINE
  8
0
 10
-0.117676
 20
34.0554
 11
-0.23465
 21
34.0415
  0
LINE
  8
0
 10
-0.23465
 20
34.0415
 11
-0.350159
 21
34.0185
  0
LINE
  8
0
 10
-0.350159
 20
34.0185
 11
-0.463516
 21
33.9866
  0
LINE
  8
0
 10
-0.463516
 20
33.9866
 11
-0.57402
 21
33.9458
  0
LINE
  8
0
 10
-0.57402
 20
33.9458
 11
-0.680984
 21
33.8965
  0
LINE
  8
0
 10
-0.680984
 20
33.8965
 11
-0.783737
 21
33.8389
  0
LINE
  8
0
 10
-0.783737
 20
33.8389
 11
-0.881668
 21
33.7735
  0
LINE
  8
0
 10
-0.881668
 20
33.7735
 11
-0.974167
 21
33.7006
  0
LINE
  8
0
 10
-0.974167
 20
33.7006
 11
-1.06065
 21
33.6207
  0
LINE
  8
0
 10
-1.06065
 20
33.6207
 11
-1.14059
 21
33.5342
  0
LINE
  8
0
 10
-1.14059
 20
33.5342
 11
-1.21352
 21
33.4417
  0
LINE
  8
0
 10
-1.21352
 20
33.4417
 11
-1.27895
 21
33.3437
  0
LINE
  8
0
 10
-1.27895
 20
33.3437
 11
-1.3365
 21
33.241
  0
LINE
  8
0
 10
-1.3365
 20
33.241
 11
-1.38582
 21
33.134
  0
LINE
  8
0
 10
-1.38582
 20
33.134
 11
-1.42657
 21
33.0235
  0
LINE
  8
0
 10
-1.42657
 20
33.0235
 11
-1.45854
 21
32.9102
  0
LINE
  8
0
 10
-1.45854
 20
32.9102
 11
-1.48152
 21
32.7946
  0
LINE
  8
0
 10
-1.48152
 20
32.7946
 11
-1.49536
 21
32.6777
  0
LINE
  8
0
 10
-1.49536
 20
32.6777
 11
-1.5
 21
32.56
  0
LINE
  8
0
 10
-1.5
 20
32.56
 11
-1.5
 21
20.28
  0
LINE
  8
0
 10
-1.5
 20
20.28
 11
-1.49536
 21
20.1623
  0
LINE
  8
0
 10
-1.49536
 20
20.1623
 11
-1.48152
 21
20.0453
  0
LINE
  8
0
 10
-1.48152
 20
20.0453
 11
-1.45854
 21
19.9298
  0
LINE
  8
0
 10
-1.45854
 20
19.9298
 11
-1.42657
 21
19.8165
  0
LINE
  8
0
 10
-1.42657
 20
19.8165
 11
-1.38582
 21
19.706
  0
LINE
  8
0
 10
-1.38582
 20
19.706
 11
-1.3365
 21
19.599
  0
LINE
  8
0
 10
-1.3365
 20
19.599
 11
-1.27895
 21
19.4963
  0
LINE
  8
0
 10
-1.27895
 20
19.4963
 11
-1.21352
 21
19.3983
  0
LINE
  8
0
 10
-1.21352
 20
19.3983
 11
-1.14059
 21
19.3058
  0
LINE
  8
0
 10
-1.14059
 20
19.3058
 11
-1.06065
 21
19.2193
  0
LINE
  8
0
 10
-1.06065
 20
19.2193
 11
-0.974167
 21
19.1394
  0
LINE
  8
0
 10
-0.974167
 20
19.1394
 11
-0.881668
 21
19.0665
  0
LINE
  8
0
 10
-0.881668
 20
19.0665
 11
-0.783737
 21
19.0011
  0
LINE
  8
0
 10
-0.783737
 20
19.0011
 11
-0.680984
 21
18.9435
  0
LINE
  8
0
 10
-0.680984
 20
18.9435
 11
-0.57402
 21
18.8942
  0
LINE
  8
0
 10
-0.57402
 20
18.8942
 11
-0.463516
 21
18.8534
  0
LINE
  8
0
 10
-0.463516
 20
18.8534
 11
-0.350159
 21
18.8215
  0
LINE
  8
0
 10
-0.350159
 20
18.8215
 11
-0.23465
 21
18.7985
  0
LINE
  8
0
 10
-0.23465
 20
18.7985
 11
-0.117676
 21
18.7846
  0
LINE
  8
0
 10
-0.117676
 20
18.7846
 11
0
 21
18.78
  0
LINE
  8
0
 10
0
 20
18.78
 11
3
 21
18.78
  0
LINE
  8
0
 10
3
 20
18.78
 11
3
 21
14.28
  0
LINE
  8
0
 10
3
 20
14.28
 11
0
 21
14.28
  0
LINE
  8
0
 10
0
 20
14.28
 11
-0.117676
 21
14.2754
  0
LINE
  8
0
 10
-0.117676
 20
14.2754
 11
-0.23465
 21
14.2615
  0
LINE
  8
0
 10
-0.23465
 20
14.2615
 11
-0.350159
 21
14.2385
  0
LINE
  8
0
 10
-0.350159
 20
14.2385
 11
-0.463516
 21
14.2066
  0
LINE
  8
0
 10
-0.463516
 20
14.2066
 11
-0.57402
 21
14.1658
  0
LINE
  8
0
 10
-0.57402
 20
14.1658
 11
-0.680984
 21
14.1165
  0
LINE
  8
0
 10
-0.680984
 20
14.1165
 11
-0.783737
 21
14.0589
  0
LINE
  8
0
 10
-0.783737
 20
14.0589
 11
-0.881668
 21
13.9935
  0
LINE
  8
0
 10
-0.881668
 20
13.9935
 11
-0.974167
 21
13.9206
  0
LINE
  8
0
 10
-0.974167
 20
13.9206
 11
-1.06065
 21
13.8407
  0
LINE
  8
0
 10
-1.06065
 20
13.8407
 11
-1.14059
 21
13.7542
  0
LINE
  8
0
 10
-1.14059
 20
13.7542
 11
-1.21352
 21
13.6617
  0
LINE
  8
0
 10
-1.21352
 20
13.6617
 11
-1.27895
 21
13.5637
  0
LINE
  8
0
 10
-1.27895
 20
13.5637
 11
-1.3365
 21
13.461
  0
LINE
  8
0
 10
-1.3365
 20
13.461
 11
-1.38582
 21
13.354
  0
LINE
  8
0
 10
-1.38582
 20
13.354
 11
-1.42657
 21
13.2435
  0
LINE
  8
0
 10
-1.42657
 20
13.2435
 11
-1.45854
 21
13.1302
  0
LINE
  8
0
 10
-1.45854
 20
13.1302
 11
-1.48152
 21
13.0146
  0
LINE
  8
0
 10
-1.48152
 20
13.0146
 11
-1.49536
 21
12.8977
  0
LINE
  8
0
 10
-1.49536
 20
12.8977
 11
-1.5
 21
12.78
  0
LINE
  8
0
 10
-1.5
 20
12.78
 11
-1.5
 21
0
  0
LINE
  8
0
 10
-1.5
 20
0
 11
-1.49536
 21
-0.117676
  0
LINE
  8
0
 10
-1.49536
 20
-0.117676
 11
-1.48152
 21
-0.23465
  0
LINE
  8
0
 10
-1.48152
 20
-0.23465
 11
-1.45854
 21
-0.350159
  0
LINE
  8
0
 10
-1.45854
 20
-0.350159
 11
-1.42657
 21
-0.463516
  0
LINE
  8
0
 10
-1.42657
 20
-0.463516
 11
-1.38582
 21
-0.57402
  0
LINE
  8
0
 10
-1.38582
 20
-0.57402
 11
-1.3365
 21
-0.680984
  0
LINE
  8
0
 10
-1.3365
 20
-0.680984
 11
-1.27895
 21
-0.783737
  0
LINE
  8
0
 10
-1.27895
 20
-0.783737
 11
-1.21352
 21
-0.881668
  0
LINE
  8
0
 10
-1.21352
 20
-0.881668
 11
-1.14059
 21
-0.974167
  0
LINE
  8
0
 10
-1.14059
 20
-0.974167
 11
-1.06065
 21
-1.06065
  0
LINE
  8
0
 10
-1.06065
 20
-1.06065
 11
-0.974167
 21
-1.14059
  0
LINE
  8
0
 10
-0.974167
 20
-1.14059
 11
-0.881668
 21
-1.21352
  0
LINE
  8
0
 10
-0.881668
 20
-1.21352
 11
-0.783737
 21
-1.27895
  0
LINE
  8
0
 10
-0.783737
 20
-1.27895
 11
-0.680984
 21
-1.3365
  0
LINE
  8
0
 10
-0.680984
 20
-1.3365
 11
-0.57402
 21
-1.38582
  0
LINE
  8
0
 10
-0.57402
 20
-1.38582
 11
-0.463516
 21
-1.42657
  0
LINE
  8
0
 10
-0.463516
 20
-1.42657
 11
-0.350159
 21
-1.45854
  0
LINE
  8
0
 10
-0.350159
 20
-1.45854
 11
-0.23465
 21
-1.48152
  0
LINE
  8
0
 10
-0.23465
 20
-1.48152
 11
-0.117676
 21
-1.49536
  0
LINE
  8
0
 10
-0.117676
 20
-1.49536
 11
0
 21
-1.5
  0
LINE
  8
0
 10
0
 20
-1.5
 11
71
 21
-1.5
  0
LINE
  8
0
 10
71
 20
-1.5
 11
71.1177
 21
-1.49536
  0
LINE
  8
0
 10
71.1177
 20
-1.49536
 11
71.2346
 21
-1.48152
  0
LINE
  8
0
 10
71.2346
 20
-1.48152
 11
71.3502
 21
-1.45854
  0
LINE
  8
0
 10
71.3502
 20
-1.45854
 11
71.4635
 21
-1.42657
  0
LINE
  8
0
 10
71.4635
 20
-1.42657
 11
71.574
 21
-1.38582
  0
LINE
  8
0
 10
71.574
 20
-1.38582
 11
71.681
 21
-1.3365
  0
LINE
  8
0
 10
71.681
 20
-1.3365
 11
71.7837
 21
-1.27895
  0
LINE
  8
0
 10
71.7837
 20
-1.27895
 11
71.8817
 21
-1.21352
  0
LINE
  8
0
 10
71.8817
 20
-1.21352
 11
71.9742
 21
-1.14059
  0
LINE
  8
0
 10
71.9742
 20
-1.14059
 11
72.0607
 21
-1.06065
  0
LINE
  8
0
 10
72.0607
 20
-1.06065
 11
72.1406
 21
-0.974167
  0
LINE
  8
0
 10
72.1406
 20
-0.974167
 11
72.2135
 21
-0.881668
  0
LINE
  8
0
 10
72.2135
 20
-0.881668
 11
72.2789
 21
-0.783737
  0
LINE
  8
0
 10
72.2789
 20
-0.783737
 11
72.3365
 21
-0.680984
  0
LINE
  8
0
 10
72.3365
 20
-0.680984
 11
72.3858
 21
-0.57402
  0
LINE
  8
0
 10
72.3858
 20
-0.57402
 11
72.4266
 21
-0.463516
  0
LINE
  8
0
 10
72.4266
 20
-0.463516
 11
72.4585
 21
-0.350159
  0
LINE
  8
0
 10
72.4585
 20
-0.350159
 11
72.4815
 21
-0.23465
  0
LINE
  8
0
 10
72.4815
 20
-0.23465
 11
72.4954
 21
-0.117676
  0
LINE
  8
0
 10
72.4954
 20
-0.117676
 11
72.5
 21
0
  0
LINE
  8
0
 10
72.5
 20
0
 11
72.5
 21
12.78
  0
LINE
  8
0
 10
72.5
 20
12.78
 11
72.4954
 21
12.8977
  0
LINE
  8
0
 10
72.4954
 20
12.8977
 11
72.4815
 21
13.0146
  0
LINE
  8
0
 10
72.4815
 20
13.0146
 11
72.4585
 21
13.1302
  0
LINE
  8
0
 10
72.4585
 20
13.1302
 11
72.4266
 21
13.2435
  0
LINE
  8
0
 10
72.4266
 20
13.2435
 11
72.3858
 21
13.354
  0
LINE
  8
0
 10
72.3858
 20
13.354
 11
72.3365
 21
13.461
  0
LINE
  8
0
 10
72.3365
 20
13.461
 11
72.2789
 21
13.5637
  0
LINE
  8
0
 10
72.2789
 20
13.5637
 11
72.2135
 21
13.6617
  0
LINE
  8
0
 10
72.2135
 20
13.6617
 11
72.1406
 21
13.7542
  0
LINE
  8
0
 10
72.1406
 20
13.7542
 11
72.0607
 21
13.8407
  0
LINE
  8
0
 10
72.0607
 20
13.8407
 11
71.9742
 21
13.9206
  0
LINE
  8
0
 10
71.9742
 20
13.9206
 11
71.8817
 21
13.9935
  0
LINE
  8
0
 10
71.8817
 20
13.9935
 11
71.7837
 21
14.0589
  0
LINE
  8
0
 10
71.7837
 20
14.0589
 11
71.681
 21
14.1165
  0
LINE
  8
0
 10
71.681
 20
14.1165
 11
71.574
 21
14.1658
  0
LINE
  8
0
 10
71.574
 20
14.1658
 11
71.4635
 21
14.2066
  0
LINE
  8
0
 10
71.4635
 20
14.2066
 11
71.3502
 21
14.2385
  0
LINE
  8
0
 10
71.3502
 20
14.2385
 11
71.2346
 21
14.2615
  0
LINE
  8
0
 10
71.2346
 20
14.2615
 11
71.1177
 21
14.2754
  0
LINE
  8
0
 10
71.1177
 20
14.2754
 11
71
 21
14.28
  0
LINE
  8
0
 10
71
 20
14.28
 11
68
 21
14.28
  0
LINE
  8
0
 10
68
 20
14.28
 11
68
 21
18.78
  0
ENDSEC
  0
SECTION
  2
OBJECTS
  0
DICTIONARY
  0
ENDSEC
  0
EOF
