  0
SECTION
  2
BLOCKS
  0
ENDSEC
  0
SECTION
  2
ENTITIES
  0
LINE
  8
0
 10
87.376
 20
0.0236664
 11
87.5621
 21
0.0531464
  0
LINE
  8
0
 10
87.5621
 20
0.0531464
 11
87.7461
 21
0.0942535
  0
LINE
  8
0
 10
87.7461
 20
0.0942535
 11
87.927
 21
0.146835
  0
LINE
  8
0
 10
87.927
 20
0.146835
 11
88.1044
 21
0.210678
  0
LINE
  8
0
 10
88.1044
 20
0.210678
 11
88.2773
 21
0.285522
  0
LINE
  8
0
 10
88.2773
 20
0.285522
 11
88.4453
 21
0.371094
  0
LINE
  8
0
 10
88.4453
 20
0.371094
 11
88.6075
 21
0.467026
  0
LINE
  8
0
 10
88.6075
 20
0.467026
 11
88.7634
 21
0.572952
  0
LINE
  8
0
 10
88.7634
 20
0.572952
 11
88.9123
 21
0.688461
  0
LINE
  8
0
 10
88.9123
 20
0.688461
 11
89.0536
 21
0.813095
  0
LINE
  8
0
 10
89.0536
 20
0.813095
 11
89.1869
 21
0.946365
  0
LINE
  8
0
 10
89.1869
 20
0.946365
 11
89.3115
 21
1.08774
  0
LINE
  8
0
 10
89.3115
 20
1.08774
 11
89.427
 21
1.23665
  0
LINE
  8
0
 10
89.427
 20
1.23665
 11
89.533
 21
1.39253
  0
LINE
  8
0
 10
89.533
 20
1.39253
 11
89.6289
 21
1.55475
  0
LINE
  8
0
 10
89.6289
 20
1.55475
 11
89.7145
 21
1.72267
  0
LINE
  8
0
 10
89.7145
 20
1.72267
 11
89.7893
 21
1.89563
  0
LINE
  8
0
 10
89.7893
 20
1.89563
 11
89.8532
 21
2.07295
  0
LINE
  8
0
 10
89.8532
 20
2.07295
 11
89.9057
 21
2.25394
  0
LINE
  8
0
 10
89.9057
 20
2.25394
 11
89.9469
 21
2.43787
  0
LINE
  8
0
 10
89.9469
 20
2.43787
 11
89.9763
 21
2.62401
  0
LINE
  8
0
 10
89.9763
 20
2.62401
 11
89.9941
 21
2.81163
  0
LINE
  8
0
 10
89.9941
 20
2.81163
 11
90
 21
3
  0
LINE
  8
0
 10
90
 20
3
 11
90
 21
77
  0
LINE
  8
0
 10
90
 20
77
 11
89.9941
 21
77.1884
  0
LINE
  8
0
 10
89.9941
 20
77.1884
 11
89.9763
 21
77.376
  0
LINE
  8
0
 10
89.9763
 20
77.376
 11
89.9469
 21
77.5621
  0
LINE
  8
0
 10
89.9469
 20
77.5621
 11
89.9057
 21
77.7461
  0
LINE
  8
0
 10
89.9057
 20
77.7461
 11
89.8532
 21
77.927
  0
LINE
  8
0
 10
89.8532
 20
77.927
 11
89.7893
 21
78.1044
  0
LINE
  8
0
 10
89.7893
 20
78.1044
 11
89.7145
 21
78.2773
  0
LINE
  8
0
 10
89.7145
 20
78.2773
 11
89.6289
 21
78.4453
  0
LINE
  8
0
 10
89.6289
 20
78.4453
 11
89.533
 21
78.6075
  0
LINE
  8
0
 10
89.533
 20
78.6075
 11
89.427
 21
78.7634
  0
LINE
  8
0
 10
89.427
 20
78.7634
 11
89.3115
 21
78.9123
  0
LINE
  8
0
 10
89.3115
 20
78.9123
 11
89.1869
 21
79.0536
  0
LINE
  8
0
 10
89.1869
 20
79.0536
 11
89.0536
 21
79.1869
  0
LINE
  8
0
 10
89.0536
 20
79.1869
 11
88.9123
 21
79.3115
  0
LINE
  8
0
 10
88.9123
 20
79.3115
 11
88.7634
 21
79.427
  0
LINE
  8
0
 10
88.7634
 20
79.427
 11
88.6075
 21
79.533
  0
LINE
  8
0
 10
88.6075
 20
79.533
 11
88.4453
 21
79.6289
  0
LINE
  8
0
 10
88.4453
 20
79.6289
 11
88.2773
 21
79.7145
  0
LINE
  8
0
 10
88.2773
 20
79.7145
 11
88.1044
 21
79.7893
  0
LINE
  8
0
 10
88.1044
 20
79.7893
 11
87.927
 21
79.8532
  0
LINE
  8
0
 10
87.927
 20
79.8532
 11
87.7461
 21
79.9057
  0
LINE
  8
0
 10
87.7461
 20
79.9057
 11
87.5621
 21
79.9469
  0
LINE
  8
0
 10
87.5621
 20
79.9469
 11
87.376
 21
79.9763
  0
LINE
  8
0
 10
87.376
 20
79.9763
 11
87.1884
 21
79.9941
  0
LINE
  8
0
 10
87.1884
 20
79.9941
 11
87
 21
80
  0
LINE
  8
0
 10
87
 20
80
 11
3
 21
80
  0
LINE
  8
0
 10
3
 20
80
 11
2.81163
 21
79.9941
  0
LINE
  8
0
 10
2.81163
 20
79.9941
 11
2.62401
 21
79.9763
  0
LINE
  8
0
 10
2.62401
 20
79.9763
 11
2.43787
 21
79.9469
  0
LINE
  8
0
 10
2.43787
 20
79.9469
 11
2.25394
 21
79.9057
  0
LINE
  8
0
 10
2.25394
 20
79.9057
 11
2.07295
 21
79.8532
  0
LINE
  8
0
 10
2.07295
 20
79.8532
 11
1.89563
 21
79.7893
  0
LINE
  8
0
 10
1.89563
 20
79.7893
 11
1.72267
 21
79.7145
  0
LINE
  8
0
 10
1.72267
 20
79.7145
 11
1.55475
 21
79.6289
  0
LINE
  8
0
 10
1.55475
 20
79.6289
 11
1.39253
 21
79.533
  0
LINE
  8
0
 10
1.39253
 20
79.533
 11
1.23665
 21
79.427
  0
LINE
  8
0
 10
1.23665
 20
79.427
 11
1.08774
 21
79.3115
  0
LINE
  8
0
 10
1.08774
 20
79.3115
 11
0.946365
 21
79.1869
  0
LINE
  8
0
 10
0.946365
 20
79.1869
 11
0.813095
 21
79.0536
  0
LINE
  8
0
 10
0.813095
 20
79.0536
 11
0.688461
 21
78.9123
  0
LINE
  8
0
 10
0.688461
 20
78.9123
 11
0.572952
 21
78.7634
  0
LINE
  8
0
 10
0.572952
 20
78.7634
 11
0.467026
 21
78.6075
  0
LINE
  8
0
 10
0.467026
 20
78.6075
 11
0.371094
 21
78.4453
  0
LINE
  8
0
 10
0.371094
 20
78.4453
 11
0.285522
 21
78.2773
  0
LINE
  8
0
 10
0.285522
 20
78.2773
 11
0.210678
 21
78.1044
  0
LINE
  8
0
 10
0.210678
 20
78.1044
 11
0.146835
 21
77.927
  0
LINE
  8
0
 10
0.146835
 20
77.927
 11
0.0942535
 21
77.7461
  0
LINE
  8
0
 10
0.0942535
 20
77.7461
 11
0.0531464
 21
77.5621
  0
LINE
  8
0
 10
0.0531464
 20
77.5621
 11
0.0236664
 21
77.376
  0
LINE
  8
0
 10
0.0236664
 20
77.376
 11
0.00592041
 21
77.1884
  0
LINE
  8
0
 10
0.00592041
 20
77.1884
 11
0
 21
77
  0
LINE
  8
0
 10
0
 20
77
 11
0
 21
3
  0
LINE
  8
0
 10
0
 20
3
 11
0.00592041
 21
2.81163
  0
LINE
  8
0
 10
0.00592041
 20
2.81163
 11
0.0236664
 21
2.62401
  0
LINE
  8
0
 10
0.0236664
 20
2.62401
 11
0.0531464
 21
2.43787
  0
LINE
  8
0
 10
0.0531464
 20
2.43787
 11
0.0942535
 21
2.25394
  0
LINE
  8
0
 10
0.0942535
 20
2.25394
 11
0.146835
 21
2.07295
  0
LINE
  8
0
 10
0.146835
 20
2.07295
 11
0.210678
 21
1.89563
  0
LINE
  8
0
 10
0.210678
 20
1.89563
 11
0.285522
 21
1.72267
  0
LINE
  8
0
 10
0.285522
 20
1.72267
 11
0.371094
 21
1.55475
  0
LINE
  8
0
 10
0.371094
 20
1.55475
 11
0.467026
 21
1.39253
  0
LINE
  8
0
 10
0.467026
 20
1.39253
 11
0.572952
 21
1.23665
  0
LINE
  8
0
 10
0.572952
 20
1.23665
 11
0.688461
 21
1.08774
  0
LINE
  8
0
 10
0.688461
 20
1.08774
 11
0.813095
 21
0.946365
  0
LINE
  8
0
 10
0.813095
 20
0.946365
 11
0.946365
 21
0.813095
  0
LINE
  8
0
 10
0.946365
 20
0.813095
 11
1.08774
 21
0.688461
  0
LINE
  8
0
 10
1.08774
 20
0.688461
 11
1.23665
 21
0.572952
  0
LINE
  8
0
 10
1.23665
 20
0.572952
 11
1.39253
 21
0.467026
  0
LINE
  8
0
 10
1.39253
 20
0.467026
 11
1.55475
 21
0.371094
  0
LINE
  8
0
 10
1.55475
 20
0.371094
 11
1.72267
 21
0.285522
  0
LINE
  8
0
 10
1.72267
 20
0.285522
 11
1.89563
 21
0.210678
  0
LINE
  8
0
 10
1.89563
 20
0.210678
 11
2.07295
 21
0.146835
  0
LINE
  8
0
 10
2.07295
 20
0.146835
 11
2.25394
 21
0.0942535
  0
LINE
  8
0
 10
2.25394
 20
0.0942535
 11
2.43787
 21
0.0531464
  0
LINE
  8
0
 10
2.43787
 20
0.0531464
 11
2.62401
 21
0.0236664
  0
LINE
  8
0
 10
2.62401
 20
0.0236664
 11
2.81163
 21
0.00592041
  0
LINE
  8
0
 10
2.81163
 20
0.00592041
 11
3
 21
0
  0
LINE
  8
0
 10
3
 20
0
 11
21.2003
 21
0
  0
LINE
  8
0
 10
21.2003
 20
0
 11
27.8131
 21
-7.05363
  0
LINE
  8
0
 10
27.8131
 20
-7.05363
 11
27.9464
 21
-7.1869
  0
LINE
  8
0
 10
27.9464
 20
-7.1869
 11
28.0877
 21
-7.31154
  0
LINE
  8
0
 10
28.0877
 20
-7.31154
 11
28.2366
 21
-7.42705
  0
LINE
  8
0
 10
28.2366
 20
-7.42705
 11
28.3925
 21
-7.53297
  0
LINE
  8
0
 10
28.3925
 20
-7.53297
 11
28.5547
 21
-7.62891
  0
LINE
  8
0
 10
28.5547
 20
-7.62891
 11
28.7227
 21
-7.71448
  0
LINE
  8
0
 10
28.7227
 20
-7.71448
 11
28.8956
 21
-7.78932
  0
LINE
  8
0
 10
28.8956
 20
-7.78932
 11
29.073
 21
-7.85316
  0
LINE
  8
0
 10
29.073
 20
-7.85316
 11
29.2539
 21
-7.90575
  0
LINE
  8
0
 10
29.2539
 20
-7.90575
 11
29.4379
 21
-7.94685
  0
LINE
  8
0
 10
29.4379
 20
-7.94685
 11
29.624
 21
-7.97633
  0
LINE
  8
0
 10
29.624
 20
-7.97633
 11
29.8116
 21
-7.99408
  0
LINE
  8
0
 10
29.8116
 20
-7.99408
 11
30
 21
-8
  0
LINE
  8
0
 10
30
 20
-8
 11
60
 21
-8
  0
LINE
  8
0
 10
60
 20
-8
 11
60.1884
 21
-7.99408
  0
LINE
  8
0
 10
60.1884
 20
-7.99408
 11
60.376
 21
-7.97633
  0
LINE
  8
0
 10
60.376
 20
-7.97633
 11
60.5621
 21
-7.94685
  0
LINE
  8
0
 10
60.5621
 20
-7.94685
 11
60.7461
 21
-7.90575
  0
LINE
  8
0
 10
60.7461
 20
-7.90575
 11
60.927
 21
-7.85316
  0
LINE
  8
0
 10
60.927
 20
-7.85316
 11
61.1044
 21
-7.78932
  0
LINE
  8
0
 10
61.1044
 20
-7.78932
 11
61.2773
 21
-7.71448
  0
LINE
  8
0
 10
61.2773
 20
-7.71448
 11
61.4453
 21
-7.62891
  0
LINE
  8
0
 10
61.4453
 20
-7.62891
 11
61.6075
 21
-7.53297
  0
LINE
  8
0
 10
61.6075
 20
-7.53297
 11
61.7634
 21
-7.42705
  0
LINE
  8
0
 10
61.7634
 20
-7.42705
 11
61.9123
 21
-7.31154
  0
LINE
  8
0
 10
61.9123
 20
-7.31154
 11
62.0536
 21
-7.1869
  0
LINE
  8
0
 10
62.0536
 20
-7.1869
 11
62.1869
 21
-7.05363
  0
LINE
  8
0
 10
62.1869
 20
-7.05363
 11
68.7997
 21
0
  0
LINE
  8
0
 10
68.7997
 20
0
 11
87
 21
0
  0
LINE
  8
0
 10
87
 20
0
 11
87.1884
 21
0.00592041
  0
LINE
  8
0
 10
87.1884
 20
0.00592041
 11
87.376
 21
0.0236664
  0
ENDSEC
  0
SECTION
  2
OBJECTS
  0
DICTIONARY
  0
ENDSEC
  0
EOF
