  0
SECTION
  2
BLOCKS
  0
ENDSEC
  0
SECTION
  2
ENTITIES
  0
LINE
  8
0
 10
169.5
 20
129.5
 11
0.5
 21
129.5
  0
LINE
  8
0
 10
0.5
 20
129.5
 11
0.5
 21
0.5
  0
LINE
  8
0
 10
0.5
 20
0.5
 11
169.5
 21
0.5
  0
LINE
  8
0
 10
169.5
 20
0.5
 11
169.5
 21
129.5
  0
LINE
  8
0
 10
59.5
 20
103.75
 11
59.3627
 21
103.755
  0
LINE
  8
0
 10
59.3627
 20
103.755
 11
59.2262
 21
103.772
  0
LINE
  8
0
 10
59.2262
 20
103.772
 11
59.0915
 21
103.798
  0
LINE
  8
0
 10
59.0915
 20
103.798
 11
58.9592
 21
103.836
  0
LINE
  8
0
 10
58.9592
 20
103.836
 11
58.8303
 21
103.883
  0
LINE
  8
0
 10
58.8303
 20
103.883
 11
58.7055
 21
103.941
  0
LINE
  8
0
 10
58.7055
 20
103.941
 11
58.5856
 21
104.008
  0
LINE
  8
0
 10
58.5856
 20
104.008
 11
58.4714
 21
104.084
  0
LINE
  8
0
 10
58.4714
 20
104.084
 11
58.3635
 21
104.169
  0
LINE
  8
0
 10
58.3635
 20
104.169
 11
58.2626
 21
104.263
  0
LINE
  8
0
 10
58.2626
 20
104.263
 11
58.1693
 21
104.363
  0
LINE
  8
0
 10
58.1693
 20
104.363
 11
58.0842
 21
104.471
  0
LINE
  8
0
 10
58.0842
 20
104.471
 11
58.0079
 21
104.586
  0
LINE
  8
0
 10
58.0079
 20
104.586
 11
57.9407
 21
104.706
  0
LINE
  8
0
 10
57.9407
 20
104.706
 11
57.8832
 21
104.83
  0
LINE
  8
0
 10
57.8832
 20
104.83
 11
57.8356
 21
104.959
  0
LINE
  8
0
 10
57.8356
 20
104.959
 11
57.7983
 21
105.091
  0
LINE
  8
0
 10
57.7983
 20
105.091
 11
57.7715
 21
105.226
  0
LINE
  8
0
 10
57.7715
 20
105.226
 11
57.7554
 21
105.363
  0
LINE
  8
0
 10
57.7554
 20
105.363
 11
57.75
 21
105.5
  0
LINE
  8
0
 10
57.75
 20
105.5
 11
57.7554
 21
105.637
  0
LINE
  8
0
 10
57.7554
 20
105.637
 11
57.7715
 21
105.774
  0
LINE
  8
0
 10
57.7715
 20
105.774
 11
57.7983
 21
105.909
  0
LINE
  8
0
 10
57.7983
 20
105.909
 11
57.8356
 21
106.041
  0
LINE
  8
0
 10
57.8356
 20
106.041
 11
57.8832
 21
106.17
  0
LINE
  8
0
 10
57.8832
 20
106.17
 11
57.9407
 21
106.294
  0
LINE
  8
0
 10
57.9407
 20
106.294
 11
58.0079
 21
106.414
  0
LINE
  8
0
 10
58.0079
 20
106.414
 11
58.0842
 21
106.529
  0
LINE
  8
0
 10
58.0842
 20
106.529
 11
58.1693
 21
106.637
  0
LINE
  8
0
 10
58.1693
 20
106.637
 11
58.2626
 21
106.737
  0
LINE
  8
0
 10
58.2626
 20
106.737
 11
58.3635
 21
106.831
  0
LINE
  8
0
 10
58.3635
 20
106.831
 11
58.4714
 21
106.916
  0
LINE
  8
0
 10
58.4714
 20
106.916
 11
58.5856
 21
106.992
  0
LINE
  8
0
 10
58.5856
 20
106.992
 11
58.7055
 21
107.059
  0
LINE
  8
0
 10
58.7055
 20
107.059
 11
58.8303
 21
107.117
  0
LINE
  8
0
 10
58.8303
 20
107.117
 11
58.9592
 21
107.164
  0
LINE
  8
0
 10
58.9592
 20
107.164
 11
59.0915
 21
107.202
  0
LINE
  8
0
 10
59.0915
 20
107.202
 11
59.2262
 21
107.228
  0
LINE
  8
0
 10
59.2262
 20
107.228
 11
59.3627
 21
107.245
  0
LINE
  8
0
 10
59.3627
 20
107.245
 11
59.5
 21
107.25
  0
LINE
  8
0
 10
59.5
 20
107.25
 11
61.5
 21
107.25
  0
LINE
  8
0
 10
61.5
 20
107.25
 11
61.6373
 21
107.245
  0
LINE
  8
0
 10
61.6373
 20
107.245
 11
61.7738
 21
107.228
  0
LINE
  8
0
 10
61.7738
 20
107.228
 11
61.9085
 21
107.202
  0
LINE
  8
0
 10
61.9085
 20
107.202
 11
62.0408
 21
107.164
  0
LINE
  8
0
 10
62.0408
 20
107.164
 11
62.1697
 21
107.117
  0
LINE
  8
0
 10
62.1697
 20
107.117
 11
62.2945
 21
107.059
  0
LINE
  8
0
 10
62.2945
 20
107.059
 11
62.4144
 21
106.992
  0
LINE
  8
0
 10
62.4144
 20
106.992
 11
62.5286
 21
106.916
  0
LINE
  8
0
 10
62.5286
 20
106.916
 11
62.6365
 21
106.831
  0
LINE
  8
0
 10
62.6365
 20
106.831
 11
62.7374
 21
106.737
  0
LINE
  8
0
 10
62.7374
 20
106.737
 11
62.8307
 21
106.637
  0
LINE
  8
0
 10
62.8307
 20
106.637
 11
62.9158
 21
106.529
  0
LINE
  8
0
 10
62.9158
 20
106.529
 11
62.9921
 21
106.414
  0
LINE
  8
0
 10
62.9921
 20
106.414
 11
63.0592
 21
106.294
  0
LINE
  8
0
 10
63.0592
 20
106.294
 11
63.1168
 21
106.17
  0
LINE
  8
0
 10
63.1168
 20
106.17
 11
63.1643
 21
106.041
  0
LINE
  8
0
 10
63.1643
 20
106.041
 11
63.2016
 21
105.909
  0
LINE
  8
0
 10
63.2016
 20
105.909
 11
63.2285
 21
105.774
  0
LINE
  8
0
 10
63.2285
 20
105.774
 11
63.2446
 21
105.637
  0
LINE
  8
0
 10
63.2446
 20
105.637
 11
63.25
 21
105.5
  0
LINE
  8
0
 10
63.25
 20
105.5
 11
63.2446
 21
105.363
  0
LINE
  8
0
 10
63.2446
 20
105.363
 11
63.2285
 21
105.226
  0
LINE
  8
0
 10
63.2285
 20
105.226
 11
63.2016
 21
105.091
  0
LINE
  8
0
 10
63.2016
 20
105.091
 11
63.1643
 21
104.959
  0
LINE
  8
0
 10
63.1643
 20
104.959
 11
63.1168
 21
104.83
  0
LINE
  8
0
 10
63.1168
 20
104.83
 11
63.0592
 21
104.706
  0
LINE
  8
0
 10
63.0592
 20
104.706
 11
62.9921
 21
104.586
  0
LINE
  8
0
 10
62.9921
 20
104.586
 11
62.9158
 21
104.471
  0
LINE
  8
0
 10
62.9158
 20
104.471
 11
62.8307
 21
104.363
  0
LINE
  8
0
 10
62.8307
 20
104.363
 11
62.7374
 21
104.263
  0
LINE
  8
0
 10
62.7374
 20
104.263
 11
62.6365
 21
104.169
  0
LINE
  8
0
 10
62.6365
 20
104.169
 11
62.5286
 21
104.084
  0
LINE
  8
0
 10
62.5286
 20
104.084
 11
62.4144
 21
104.008
  0
LINE
  8
0
 10
62.4144
 20
104.008
 11
62.2945
 21
103.941
  0
LINE
  8
0
 10
62.2945
 20
103.941
 11
62.1697
 21
103.883
  0
LINE
  8
0
 10
62.1697
 20
103.883
 11
62.0408
 21
103.836
  0
LINE
  8
0
 10
62.0408
 20
103.836
 11
61.9085
 21
103.798
  0
LINE
  8
0
 10
61.9085
 20
103.798
 11
61.7738
 21
103.772
  0
LINE
  8
0
 10
61.7738
 20
103.772
 11
61.6373
 21
103.755
  0
LINE
  8
0
 10
61.6373
 20
103.755
 11
61.5
 21
103.75
  0
LINE
  8
0
 10
61.5
 20
103.75
 11
59.5
 21
103.75
  0
LINE
  8
0
 10
109.5
 20
103.75
 11
109.363
 21
103.755
  0
LINE
  8
0
 10
109.363
 20
103.755
 11
109.226
 21
103.772
  0
LINE
  8
0
 10
109.226
 20
103.772
 11
109.091
 21
103.798
  0
LINE
  8
0
 10
109.091
 20
103.798
 11
108.959
 21
103.836
  0
LINE
  8
0
 10
108.959
 20
103.836
 11
108.83
 21
103.883
  0
LINE
  8
0
 10
108.83
 20
103.883
 11
108.706
 21
103.941
  0
LINE
  8
0
 10
108.706
 20
103.941
 11
108.586
 21
104.008
  0
LINE
  8
0
 10
108.586
 20
104.008
 11
108.471
 21
104.084
  0
LINE
  8
0
 10
108.471
 20
104.084
 11
108.363
 21
104.169
  0
LINE
  8
0
 10
108.363
 20
104.169
 11
108.263
 21
104.263
  0
LINE
  8
0
 10
108.263
 20
104.263
 11
108.169
 21
104.363
  0
LINE
  8
0
 10
108.169
 20
104.363
 11
108.084
 21
104.471
  0
LINE
  8
0
 10
108.084
 20
104.471
 11
108.008
 21
104.586
  0
LINE
  8
0
 10
108.008
 20
104.586
 11
107.941
 21
104.706
  0
LINE
  8
0
 10
107.941
 20
104.706
 11
107.883
 21
104.83
  0
LINE
  8
0
 10
107.883
 20
104.83
 11
107.836
 21
104.959
  0
LINE
  8
0
 10
107.836
 20
104.959
 11
107.798
 21
105.091
  0
LINE
  8
0
 10
107.798
 20
105.091
 11
107.772
 21
105.226
  0
LINE
  8
0
 10
107.772
 20
105.226
 11
107.755
 21
105.363
  0
LINE
  8
0
 10
107.755
 20
105.363
 11
107.75
 21
105.5
  0
LINE
  8
0
 10
107.75
 20
105.5
 11
107.755
 21
105.637
  0
LINE
  8
0
 10
107.755
 20
105.637
 11
107.772
 21
105.774
  0
LINE
  8
0
 10
107.772
 20
105.774
 11
107.798
 21
105.909
  0
LINE
  8
0
 10
107.798
 20
105.909
 11
107.836
 21
106.041
  0
LINE
  8
0
 10
107.836
 20
106.041
 11
107.883
 21
106.17
  0
LINE
  8
0
 10
107.883
 20
106.17
 11
107.941
 21
106.294
  0
LINE
  8
0
 10
107.941
 20
106.294
 11
108.008
 21
106.414
  0
LINE
  8
0
 10
108.008
 20
106.414
 11
108.084
 21
106.529
  0
LINE
  8
0
 10
108.084
 20
106.529
 11
108.169
 21
106.637
  0
LINE
  8
0
 10
108.169
 20
106.637
 11
108.263
 21
106.737
  0
LINE
  8
0
 10
108.263
 20
106.737
 11
108.363
 21
106.831
  0
LINE
  8
0
 10
108.363
 20
106.831
 11
108.471
 21
106.916
  0
LINE
  8
0
 10
108.471
 20
106.916
 11
108.586
 21
106.992
  0
LINE
  8
0
 10
108.586
 20
106.992
 11
108.706
 21
107.059
  0
LINE
  8
0
 10
108.706
 20
107.059
 11
108.83
 21
107.117
  0
LINE
  8
0
 10
108.83
 20
107.117
 11
108.959
 21
107.164
  0
LINE
  8
0
 10
108.959
 20
107.164
 11
109.091
 21
107.202
  0
LINE
  8
0
 10
109.091
 20
107.202
 11
109.226
 21
107.228
  0
LINE
  8
0
 10
109.226
 20
107.228
 11
109.363
 21
107.245
  0
LINE
  8
0
 10
109.363
 20
107.245
 11
109.5
 21
107.25
  0
LINE
  8
0
 10
109.5
 20
107.25
 11
111.5
 21
107.25
  0
LINE
  8
0
 10
111.5
 20
107.25
 11
111.637
 21
107.245
  0
LINE
  8
0
 10
111.637
 20
107.245
 11
111.774
 21
107.228
  0
LINE
  8
0
 10
111.774
 20
107.228
 11
111.909
 21
107.202
  0
LINE
  8
0
 10
111.909
 20
107.202
 11
112.041
 21
107.164
  0
LINE
  8
0
 10
112.041
 20
107.164
 11
112.17
 21
107.117
  0
LINE
  8
0
 10
112.17
 20
107.117
 11
112.294
 21
107.059
  0
LINE
  8
0
 10
112.294
 20
107.059
 11
112.414
 21
106.992
  0
LINE
  8
0
 10
112.414
 20
106.992
 11
112.529
 21
106.916
  0
LINE
  8
0
 10
112.529
 20
106.916
 11
112.637
 21
106.831
  0
LINE
  8
0
 10
112.637
 20
106.831
 11
112.737
 21
106.737
  0
LINE
  8
0
 10
112.737
 20
106.737
 11
112.831
 21
106.637
  0
LINE
  8
0
 10
112.831
 20
106.637
 11
112.916
 21
106.529
  0
LINE
  8
0
 10
112.916
 20
106.529
 11
112.992
 21
106.414
  0
LINE
  8
0
 10
112.992
 20
106.414
 11
113.059
 21
106.294
  0
LINE
  8
0
 10
113.059
 20
106.294
 11
113.117
 21
106.17
  0
LINE
  8
0
 10
113.117
 20
106.17
 11
113.164
 21
106.041
  0
LINE
  8
0
 10
113.164
 20
106.041
 11
113.202
 21
105.909
  0
LINE
  8
0
 10
113.202
 20
105.909
 11
113.228
 21
105.774
  0
LINE
  8
0
 10
113.228
 20
105.774
 11
113.245
 21
105.637
  0
LINE
  8
0
 10
113.245
 20
105.637
 11
113.25
 21
105.5
  0
LINE
  8
0
 10
113.25
 20
105.5
 11
113.245
 21
105.363
  0
LINE
  8
0
 10
113.245
 20
105.363
 11
113.228
 21
105.226
  0
LINE
  8
0
 10
113.228
 20
105.226
 11
113.202
 21
105.091
  0
LINE
  8
0
 10
113.202
 20
105.091
 11
113.164
 21
104.959
  0
LINE
  8
0
 10
113.164
 20
104.959
 11
113.117
 21
104.83
  0
LINE
  8
0
 10
113.117
 20
104.83
 11
113.059
 21
104.706
  0
LINE
  8
0
 10
113.059
 20
104.706
 11
112.992
 21
104.586
  0
LINE
  8
0
 10
112.992
 20
104.586
 11
112.916
 21
104.471
  0
LINE
  8
0
 10
112.916
 20
104.471
 11
112.831
 21
104.363
  0
LINE
  8
0
 10
112.831
 20
104.363
 11
112.737
 21
104.263
  0
LINE
  8
0
 10
112.737
 20
104.263
 11
112.637
 21
104.169
  0
LINE
  8
0
 10
112.637
 20
104.169
 11
112.529
 21
104.084
  0
LINE
  8
0
 10
112.529
 20
104.084
 11
112.414
 21
104.008
  0
LINE
  8
0
 10
112.414
 20
104.008
 11
112.294
 21
103.941
  0
LINE
  8
0
 10
112.294
 20
103.941
 11
112.17
 21
103.883
  0
LINE
  8
0
 10
112.17
 20
103.883
 11
112.041
 21
103.836
  0
LINE
  8
0
 10
112.041
 20
103.836
 11
111.909
 21
103.798
  0
LINE
  8
0
 10
111.909
 20
103.798
 11
111.774
 21
103.772
  0
LINE
  8
0
 10
111.774
 20
103.772
 11
111.637
 21
103.755
  0
LINE
  8
0
 10
111.637
 20
103.755
 11
111.5
 21
103.75
  0
LINE
  8
0
 10
111.5
 20
103.75
 11
109.5
 21
103.75
  0
LINE
  8
0
 10
59.5
 20
68.75
 11
59.3627
 21
68.7554
  0
LINE
  8
0
 10
59.3627
 20
68.7554
 11
59.2262
 21
68.7715
  0
LINE
  8
0
 10
59.2262
 20
68.7715
 11
59.0915
 21
68.7983
  0
LINE
  8
0
 10
59.0915
 20
68.7983
 11
58.9592
 21
68.8356
  0
LINE
  8
0
 10
58.9592
 20
68.8356
 11
58.8303
 21
68.8832
  0
LINE
  8
0
 10
58.8303
 20
68.8832
 11
58.7055
 21
68.9407
  0
LINE
  8
0
 10
58.7055
 20
68.9407
 11
58.5856
 21
69.0079
  0
LINE
  8
0
 10
58.5856
 20
69.0079
 11
58.4714
 21
69.0842
  0
LINE
  8
0
 10
58.4714
 20
69.0842
 11
58.3635
 21
69.1693
  0
LINE
  8
0
 10
58.3635
 20
69.1693
 11
58.2626
 21
69.2626
  0
LINE
  8
0
 10
58.2626
 20
69.2626
 11
58.1693
 21
69.3635
  0
LINE
  8
0
 10
58.1693
 20
69.3635
 11
58.0842
 21
69.4714
  0
LINE
  8
0
 10
58.0842
 20
69.4714
 11
58.0079
 21
69.5856
  0
LINE
  8
0
 10
58.0079
 20
69.5856
 11
57.9407
 21
69.7055
  0
LINE
  8
0
 10
57.9407
 20
69.7055
 11
57.8832
 21
69.8303
  0
LINE
  8
0
 10
57.8832
 20
69.8303
 11
57.8356
 21
69.9592
  0
LINE
  8
0
 10
57.8356
 20
69.9592
 11
57.7983
 21
70.0915
  0
LINE
  8
0
 10
57.7983
 20
70.0915
 11
57.7715
 21
70.2262
  0
LINE
  8
0
 10
57.7715
 20
70.2262
 11
57.7554
 21
70.3627
  0
LINE
  8
0
 10
57.7554
 20
70.3627
 11
57.75
 21
70.5
  0
LINE
  8
0
 10
57.75
 20
70.5
 11
57.7554
 21
70.6373
  0
LINE
  8
0
 10
57.7554
 20
70.6373
 11
57.7715
 21
70.7738
  0
LINE
  8
0
 10
57.7715
 20
70.7738
 11
57.7983
 21
70.9085
  0
LINE
  8
0
 10
57.7983
 20
70.9085
 11
57.8356
 21
71.0408
  0
LINE
  8
0
 10
57.8356
 20
71.0408
 11
57.8832
 21
71.1697
  0
LINE
  8
0
 10
57.8832
 20
71.1697
 11
57.9407
 21
71.2945
  0
LINE
  8
0
 10
57.9407
 20
71.2945
 11
58.0079
 21
71.4144
  0
LINE
  8
0
 10
58.0079
 20
71.4144
 11
58.0842
 21
71.5286
  0
LINE
  8
0
 10
58.0842
 20
71.5286
 11
58.1693
 21
71.6365
  0
LINE
  8
0
 10
58.1693
 20
71.6365
 11
58.2626
 21
71.7374
  0
LINE
  8
0
 10
58.2626
 20
71.7374
 11
58.3635
 21
71.8307
  0
LINE
  8
0
 10
58.3635
 20
71.8307
 11
58.4714
 21
71.9158
  0
LINE
  8
0
 10
58.4714
 20
71.9158
 11
58.5856
 21
71.9921
  0
LINE
  8
0
 10
58.5856
 20
71.9921
 11
58.7055
 21
72.0592
  0
LINE
  8
0
 10
58.7055
 20
72.0592
 11
58.8303
 21
72.1168
  0
LINE
  8
0
 10
58.8303
 20
72.1168
 11
58.9592
 21
72.1643
  0
LINE
  8
0
 10
58.9592
 20
72.1643
 11
59.0915
 21
72.2016
  0
LINE
  8
0
 10
59.0915
 20
72.2016
 11
59.2262
 21
72.2285
  0
LINE
  8
0
 10
59.2262
 20
72.2285
 11
59.3627
 21
72.2446
  0
LINE
  8
0
 10
59.3627
 20
72.2446
 11
59.5
 21
72.25
  0
LINE
  8
0
 10
59.5
 20
72.25
 11
61.5
 21
72.25
  0
LINE
  8
0
 10
61.5
 20
72.25
 11
61.6373
 21
72.2446
  0
LINE
  8
0
 10
61.6373
 20
72.2446
 11
61.7738
 21
72.2285
  0
LINE
  8
0
 10
61.7738
 20
72.2285
 11
61.9085
 21
72.2016
  0
LINE
  8
0
 10
61.9085
 20
72.2016
 11
62.0408
 21
72.1643
  0
LINE
  8
0
 10
62.0408
 20
72.1643
 11
62.1697
 21
72.1168
  0
LINE
  8
0
 10
62.1697
 20
72.1168
 11
62.2945
 21
72.0592
  0
LINE
  8
0
 10
62.2945
 20
72.0592
 11
62.4144
 21
71.9921
  0
LINE
  8
0
 10
62.4144
 20
71.9921
 11
62.5286
 21
71.9158
  0
LINE
  8
0
 10
62.5286
 20
71.9158
 11
62.6365
 21
71.8307
  0
LINE
  8
0
 10
62.6365
 20
71.8307
 11
62.7374
 21
71.7374
  0
LINE
  8
0
 10
62.7374
 20
71.7374
 11
62.8307
 21
71.6365
  0
LINE
  8
0
 10
62.8307
 20
71.6365
 11
62.9158
 21
71.5286
  0
LINE
  8
0
 10
62.9158
 20
71.5286
 11
62.9921
 21
71.4144
  0
LINE
  8
0
 10
62.9921
 20
71.4144
 11
63.0592
 21
71.2945
  0
LINE
  8
0
 10
63.0592
 20
71.2945
 11
63.1168
 21
71.1697
  0
LINE
  8
0
 10
63.1168
 20
71.1697
 11
63.1643
 21
71.0408
  0
LINE
  8
0
 10
63.1643
 20
71.0408
 11
63.2016
 21
70.9085
  0
LINE
  8
0
 10
63.2016
 20
70.9085
 11
63.2285
 21
70.7738
  0
LINE
  8
0
 10
63.2285
 20
70.7738
 11
63.2446
 21
70.6373
  0
LINE
  8
0
 10
63.2446
 20
70.6373
 11
63.25
 21
70.5
  0
LINE
  8
0
 10
63.25
 20
70.5
 11
63.2446
 21
70.3627
  0
LINE
  8
0
 10
63.2446
 20
70.3627
 11
63.2285
 21
70.2262
  0
LINE
  8
0
 10
63.2285
 20
70.2262
 11
63.2016
 21
70.0915
  0
LINE
  8
0
 10
63.2016
 20
70.0915
 11
63.1643
 21
69.9592
  0
LINE
  8
0
 10
63.1643
 20
69.9592
 11
63.1168
 21
69.8303
  0
LINE
  8
0
 10
63.1168
 20
69.8303
 11
63.0592
 21
69.7055
  0
LINE
  8
0
 10
63.0592
 20
69.7055
 11
62.9921
 21
69.5856
  0
LINE
  8
0
 10
62.9921
 20
69.5856
 11
62.9158
 21
69.4714
  0
LINE
  8
0
 10
62.9158
 20
69.4714
 11
62.8307
 21
69.3635
  0
LINE
  8
0
 10
62.8307
 20
69.3635
 11
62.7374
 21
69.2626
  0
LINE
  8
0
 10
62.7374
 20
69.2626
 11
62.6365
 21
69.1693
  0
LINE
  8
0
 10
62.6365
 20
69.1693
 11
62.5286
 21
69.0842
  0
LINE
  8
0
 10
62.5286
 20
69.0842
 11
62.4144
 21
69.0079
  0
LINE
  8
0
 10
62.4144
 20
69.0079
 11
62.2945
 21
68.9407
  0
LINE
  8
0
 10
62.2945
 20
68.9407
 11
62.1697
 21
68.8832
  0
LINE
  8
0
 10
62.1697
 20
68.8832
 11
62.0408
 21
68.8356
  0
LINE
  8
0
 10
62.0408
 20
68.8356
 11
61.9085
 21
68.7983
  0
LINE
  8
0
 10
61.9085
 20
68.7983
 11
61.7738
 21
68.7715
  0
LINE
  8
0
 10
61.7738
 20
68.7715
 11
61.6373
 21
68.7554
  0
LINE
  8
0
 10
61.6373
 20
68.7554
 11
61.5
 21
68.75
  0
LINE
  8
0
 10
61.5
 20
68.75
 11
59.5
 21
68.75
  0
LINE
  8
0
 10
109.5
 20
68.75
 11
109.363
 21
68.7554
  0
LINE
  8
0
 10
109.363
 20
68.7554
 11
109.226
 21
68.7715
  0
LINE
  8
0
 10
109.226
 20
68.7715
 11
109.091
 21
68.7983
  0
LINE
  8
0
 10
109.091
 20
68.7983
 11
108.959
 21
68.8356
  0
LINE
  8
0
 10
108.959
 20
68.8356
 11
108.83
 21
68.8832
  0
LINE
  8
0
 10
108.83
 20
68.8832
 11
108.706
 21
68.9407
  0
LINE
  8
0
 10
108.706
 20
68.9407
 11
108.586
 21
69.0079
  0
LINE
  8
0
 10
108.586
 20
69.0079
 11
108.471
 21
69.0842
  0
LINE
  8
0
 10
108.471
 20
69.0842
 11
108.363
 21
69.1693
  0
LINE
  8
0
 10
108.363
 20
69.1693
 11
108.263
 21
69.2626
  0
LINE
  8
0
 10
108.263
 20
69.2626
 11
108.169
 21
69.3635
  0
LINE
  8
0
 10
108.169
 20
69.3635
 11
108.084
 21
69.4714
  0
LINE
  8
0
 10
108.084
 20
69.4714
 11
108.008
 21
69.5856
  0
LINE
  8
0
 10
108.008
 20
69.5856
 11
107.941
 21
69.7055
  0
LINE
  8
0
 10
107.941
 20
69.7055
 11
107.883
 21
69.8303
  0
LINE
  8
0
 10
107.883
 20
69.8303
 11
107.836
 21
69.9592
  0
LINE
  8
0
 10
107.836
 20
69.9592
 11
107.798
 21
70.0915
  0
LINE
  8
0
 10
107.798
 20
70.0915
 11
107.772
 21
70.2262
  0
LINE
  8
0
 10
107.772
 20
70.2262
 11
107.755
 21
70.3627
  0
LINE
  8
0
 10
107.755
 20
70.3627
 11
107.75
 21
70.5
  0
LINE
  8
0
 10
107.75
 20
70.5
 11
107.755
 21
70.6373
  0
LINE
  8
0
 10
107.755
 20
70.6373
 11
107.772
 21
70.7738
  0
LINE
  8
0
 10
107.772
 20
70.7738
 11
107.798
 21
70.9085
  0
LINE
  8
0
 10
107.798
 20
70.9085
 11
107.836
 21
71.0408
  0
LINE
  8
0
 10
107.836
 20
71.0408
 11
107.883
 21
71.1697
  0
LINE
  8
0
 10
107.883
 20
71.1697
 11
107.941
 21
71.2945
  0
LINE
  8
0
 10
107.941
 20
71.2945
 11
108.008
 21
71.4144
  0
LINE
  8
0
 10
108.008
 20
71.4144
 11
108.084
 21
71.5286
  0
LINE
  8
0
 10
108.084
 20
71.5286
 11
108.169
 21
71.6365
  0
LINE
  8
0
 10
108.169
 20
71.6365
 11
108.263
 21
71.7374
  0
LINE
  8
0
 10
108.263
 20
71.7374
 11
108.363
 21
71.8307
  0
LINE
  8
0
 10
108.363
 20
71.8307
 11
108.471
 21
71.9158
  0
LINE
  8
0
 10
108.471
 20
71.9158
 11
108.586
 21
71.9921
  0
LINE
  8
0
 10
108.586
 20
71.9921
 11
108.706
 21
72.0592
  0
LINE
  8
0
 10
108.706
 20
72.0592
 11
108.83
 21
72.1168
  0
LINE
  8
0
 10
108.83
 20
72.1168
 11
108.959
 21
72.1643
  0
LINE
  8
0
 10
108.959
 20
72.1643
 11
109.091
 21
72.2016
  0
LINE
  8
0
 10
109.091
 20
72.2016
 11
109.226
 21
72.2285
  0
LINE
  8
0
 10
109.226
 20
72.2285
 11
109.363
 21
72.2446
  0
LINE
  8
0
 10
109.363
 20
72.2446
 11
109.5
 21
72.25
  0
LINE
  8
0
 10
109.5
 20
72.25
 11
111.5
 21
72.25
  0
LINE
  8
0
 10
111.5
 20
72.25
 11
111.637
 21
72.2446
  0
LINE
  8
0
 10
111.637
 20
72.2446
 11
111.774
 21
72.2285
  0
LINE
  8
0
 10
111.774
 20
72.2285
 11
111.909
 21
72.2016
  0
LINE
  8
0
 10
111.909
 20
72.2016
 11
112.041
 21
72.1643
  0
LINE
  8
0
 10
112.041
 20
72.1643
 11
112.17
 21
72.1168
  0
LINE
  8
0
 10
112.17
 20
72.1168
 11
112.294
 21
72.0592
  0
LINE
  8
0
 10
112.294
 20
72.0592
 11
112.414
 21
71.9921
  0
LINE
  8
0
 10
112.414
 20
71.9921
 11
112.529
 21
71.9158
  0
LINE
  8
0
 10
112.529
 20
71.9158
 11
112.637
 21
71.8307
  0
LINE
  8
0
 10
112.637
 20
71.8307
 11
112.737
 21
71.7374
  0
LINE
  8
0
 10
112.737
 20
71.7374
 11
112.831
 21
71.6365
  0
LINE
  8
0
 10
112.831
 20
71.6365
 11
112.916
 21
71.5286
  0
LINE
  8
0
 10
112.916
 20
71.5286
 11
112.992
 21
71.4144
  0
LINE
  8
0
 10
112.992
 20
71.4144
 11
113.059
 21
71.2945
  0
LINE
  8
0
 10
113.059
 20
71.2945
 11
113.117
 21
71.1697
  0
LINE
  8
0
 10
113.117
 20
71.1697
 11
113.164
 21
71.0408
  0
LINE
  8
0
 10
113.164
 20
71.0408
 11
113.202
 21
70.9085
  0
LINE
  8
0
 10
113.202
 20
70.9085
 11
113.228
 21
70.7738
  0
LINE
  8
0
 10
113.228
 20
70.7738
 11
113.245
 21
70.6373
  0
LINE
  8
0
 10
113.245
 20
70.6373
 11
113.25
 21
70.5
  0
LINE
  8
0
 10
113.25
 20
70.5
 11
113.245
 21
70.3627
  0
LINE
  8
0
 10
113.245
 20
70.3627
 11
113.228
 21
70.2262
  0
LINE
  8
0
 10
113.228
 20
70.2262
 11
113.202
 21
70.0915
  0
LINE
  8
0
 10
113.202
 20
70.0915
 11
113.164
 21
69.9592
  0
LINE
  8
0
 10
113.164
 20
69.9592
 11
113.117
 21
69.8303
  0
LINE
  8
0
 10
113.117
 20
69.8303
 11
113.059
 21
69.7055
  0
LINE
  8
0
 10
113.059
 20
69.7055
 11
112.992
 21
69.5856
  0
LINE
  8
0
 10
112.992
 20
69.5856
 11
112.916
 21
69.4714
  0
LINE
  8
0
 10
112.916
 20
69.4714
 11
112.831
 21
69.3635
  0
LINE
  8
0
 10
112.831
 20
69.3635
 11
112.737
 21
69.2626
  0
LINE
  8
0
 10
112.737
 20
69.2626
 11
112.637
 21
69.1693
  0
LINE
  8
0
 10
112.637
 20
69.1693
 11
112.529
 21
69.0842
  0
LINE
  8
0
 10
112.529
 20
69.0842
 11
112.414
 21
69.0079
  0
LINE
  8
0
 10
112.414
 20
69.0079
 11
112.294
 21
68.9407
  0
LINE
  8
0
 10
112.294
 20
68.9407
 11
112.17
 21
68.8832
  0
LINE
  8
0
 10
112.17
 20
68.8832
 11
112.041
 21
68.8356
  0
LINE
  8
0
 10
112.041
 20
68.8356
 11
111.909
 21
68.7983
  0
LINE
  8
0
 10
111.909
 20
68.7983
 11
111.774
 21
68.7715
  0
LINE
  8
0
 10
111.774
 20
68.7715
 11
111.637
 21
68.7554
  0
LINE
  8
0
 10
111.637
 20
68.7554
 11
111.5
 21
68.75
  0
LINE
  8
0
 10
111.5
 20
68.75
 11
109.5
 21
68.75
  0
LINE
  8
0
 10
59.5
 20
33.75
 11
59.3627
 21
33.7554
  0
LINE
  8
0
 10
59.3627
 20
33.7554
 11
59.2262
 21
33.7715
  0
LINE
  8
0
 10
59.2262
 20
33.7715
 11
59.0915
 21
33.7983
  0
LINE
  8
0
 10
59.0915
 20
33.7983
 11
58.9592
 21
33.8356
  0
LINE
  8
0
 10
58.9592
 20
33.8356
 11
58.8303
 21
33.8832
  0
LINE
  8
0
 10
58.8303
 20
33.8832
 11
58.7055
 21
33.9407
  0
LINE
  8
0
 10
58.7055
 20
33.9407
 11
58.5856
 21
34.0079
  0
LINE
  8
0
 10
58.5856
 20
34.0079
 11
58.4714
 21
34.0842
  0
LINE
  8
0
 10
58.4714
 20
34.0842
 11
58.3635
 21
34.1693
  0
LINE
  8
0
 10
58.3635
 20
34.1693
 11
58.2626
 21
34.2626
  0
LINE
  8
0
 10
58.2626
 20
34.2626
 11
58.1693
 21
34.3635
  0
LINE
  8
0
 10
58.1693
 20
34.3635
 11
58.0842
 21
34.4714
  0
LINE
  8
0
 10
58.0842
 20
34.4714
 11
58.0079
 21
34.5856
  0
LINE
  8
0
 10
58.0079
 20
34.5856
 11
57.9407
 21
34.7055
  0
LINE
  8
0
 10
57.9407
 20
34.7055
 11
57.8832
 21
34.8303
  0
LINE
  8
0
 10
57.8832
 20
34.8303
 11
57.8356
 21
34.9592
  0
LINE
  8
0
 10
57.8356
 20
34.9592
 11
57.7983
 21
35.0915
  0
LINE
  8
0
 10
57.7983
 20
35.0915
 11
57.7715
 21
35.2262
  0
LINE
  8
0
 10
57.7715
 20
35.2262
 11
57.7554
 21
35.3627
  0
LINE
  8
0
 10
57.7554
 20
35.3627
 11
57.75
 21
35.5
  0
LINE
  8
0
 10
57.75
 20
35.5
 11
57.7554
 21
35.6373
  0
LINE
  8
0
 10
57.7554
 20
35.6373
 11
57.7715
 21
35.7738
  0
LINE
  8
0
 10
57.7715
 20
35.7738
 11
57.7983
 21
35.9085
  0
LINE
  8
0
 10
57.7983
 20
35.9085
 11
57.8356
 21
36.0408
  0
LINE
  8
0
 10
57.8356
 20
36.0408
 11
57.8832
 21
36.1697
  0
LINE
  8
0
 10
57.8832
 20
36.1697
 11
57.9407
 21
36.2945
  0
LINE
  8
0
 10
57.9407
 20
36.2945
 11
58.0079
 21
36.4144
  0
LINE
  8
0
 10
58.0079
 20
36.4144
 11
58.0842
 21
36.5286
  0
LINE
  8
0
 10
58.0842
 20
36.5286
 11
58.1693
 21
36.6365
  0
LINE
  8
0
 10
58.1693
 20
36.6365
 11
58.2626
 21
36.7374
  0
LINE
  8
0
 10
58.2626
 20
36.7374
 11
58.3635
 21
36.8307
  0
LINE
  8
0
 10
58.3635
 20
36.8307
 11
58.4714
 21
36.9158
  0
LINE
  8
0
 10
58.4714
 20
36.9158
 11
58.5856
 21
36.9921
  0
LINE
  8
0
 10
58.5856
 20
36.9921
 11
58.7055
 21
37.0592
  0
LINE
  8
0
 10
58.7055
 20
37.0592
 11
58.8303
 21
37.1168
  0
LINE
  8
0
 10
58.8303
 20
37.1168
 11
58.9592
 21
37.1643
  0
LINE
  8
0
 10
58.9592
 20
37.1643
 11
59.0915
 21
37.2016
  0
LINE
  8
0
 10
59.0915
 20
37.2016
 11
59.2262
 21
37.2285
  0
LINE
  8
0
 10
59.2262
 20
37.2285
 11
59.3627
 21
37.2446
  0
LINE
  8
0
 10
59.3627
 20
37.2446
 11
59.5
 21
37.25
  0
LINE
  8
0
 10
59.5
 20
37.25
 11
61.5
 21
37.25
  0
LINE
  8
0
 10
61.5
 20
37.25
 11
61.6373
 21
37.2446
  0
LINE
  8
0
 10
61.6373
 20
37.2446
 11
61.7738
 21
37.2285
  0
LINE
  8
0
 10
61.7738
 20
37.2285
 11
61.9085
 21
37.2016
  0
LINE
  8
0
 10
61.9085
 20
37.2016
 11
62.0408
 21
37.1643
  0
LINE
  8
0
 10
62.0408
 20
37.1643
 11
62.1697
 21
37.1168
  0
LINE
  8
0
 10
62.1697
 20
37.1168
 11
62.2945
 21
37.0592
  0
LINE
  8
0
 10
62.2945
 20
37.0592
 11
62.4144
 21
36.9921
  0
LINE
  8
0
 10
62.4144
 20
36.9921
 11
62.5286
 21
36.9158
  0
LINE
  8
0
 10
62.5286
 20
36.9158
 11
62.6365
 21
36.8307
  0
LINE
  8
0
 10
62.6365
 20
36.8307
 11
62.7374
 21
36.7374
  0
LINE
  8
0
 10
62.7374
 20
36.7374
 11
62.8307
 21
36.6365
  0
LINE
  8
0
 10
62.8307
 20
36.6365
 11
62.9158
 21
36.5286
  0
LINE
  8
0
 10
62.9158
 20
36.5286
 11
62.9921
 21
36.4144
  0
LINE
  8
0
 10
62.9921
 20
36.4144
 11
63.0592
 21
36.2945
  0
LINE
  8
0
 10
63.0592
 20
36.2945
 11
63.1168
 21
36.1697
  0
LINE
  8
0
 10
63.1168
 20
36.1697
 11
63.1643
 21
36.0408
  0
LINE
  8
0
 10
63.1643
 20
36.0408
 11
63.2016
 21
35.9085
  0
LINE
  8
0
 10
63.2016
 20
35.9085
 11
63.2285
 21
35.7738
  0
LINE
  8
0
 10
63.2285
 20
35.7738
 11
63.2446
 21
35.6373
  0
LINE
  8
0
 10
63.2446
 20
35.6373
 11
63.25
 21
35.5
  0
LINE
  8
0
 10
63.25
 20
35.5
 11
63.2446
 21
35.3627
  0
LINE
  8
0
 10
63.2446
 20
35.3627
 11
63.2285
 21
35.2262
  0
LINE
  8
0
 10
63.2285
 20
35.2262
 11
63.2016
 21
35.0915
  0
LINE
  8
0
 10
63.2016
 20
35.0915
 11
63.1643
 21
34.9592
  0
LINE
  8
0
 10
63.1643
 20
34.9592
 11
63.1168
 21
34.8303
  0
LINE
  8
0
 10
63.1168
 20
34.8303
 11
63.0592
 21
34.7055
  0
LINE
  8
0
 10
63.0592
 20
34.7055
 11
62.9921
 21
34.5856
  0
LINE
  8
0
 10
62.9921
 20
34.5856
 11
62.9158
 21
34.4714
  0
LINE
  8
0
 10
62.9158
 20
34.4714
 11
62.8307
 21
34.3635
  0
LINE
  8
0
 10
62.8307
 20
34.3635
 11
62.7374
 21
34.2626
  0
LINE
  8
0
 10
62.7374
 20
34.2626
 11
62.6365
 21
34.1693
  0
LINE
  8
0
 10
62.6365
 20
34.1693
 11
62.5286
 21
34.0842
  0
LINE
  8
0
 10
62.5286
 20
34.0842
 11
62.4144
 21
34.0079
  0
LINE
  8
0
 10
62.4144
 20
34.0079
 11
62.2945
 21
33.9407
  0
LINE
  8
0
 10
62.2945
 20
33.9407
 11
62.1697
 21
33.8832
  0
LINE
  8
0
 10
62.1697
 20
33.8832
 11
62.0408
 21
33.8356
  0
LINE
  8
0
 10
62.0408
 20
33.8356
 11
61.9085
 21
33.7983
  0
LINE
  8
0
 10
61.9085
 20
33.7983
 11
61.7738
 21
33.7715
  0
LINE
  8
0
 10
61.7738
 20
33.7715
 11
61.6373
 21
33.7554
  0
LINE
  8
0
 10
61.6373
 20
33.7554
 11
61.5
 21
33.75
  0
LINE
  8
0
 10
61.5
 20
33.75
 11
59.5
 21
33.75
  0
LINE
  8
0
 10
109.5
 20
33.75
 11
109.363
 21
33.7554
  0
LINE
  8
0
 10
109.363
 20
33.7554
 11
109.226
 21
33.7715
  0
LINE
  8
0
 10
109.226
 20
33.7715
 11
109.091
 21
33.7983
  0
LINE
  8
0
 10
109.091
 20
33.7983
 11
108.959
 21
33.8356
  0
LINE
  8
0
 10
108.959
 20
33.8356
 11
108.83
 21
33.8832
  0
LINE
  8
0
 10
108.83
 20
33.8832
 11
108.706
 21
33.9407
  0
LINE
  8
0
 10
108.706
 20
33.9407
 11
108.586
 21
34.0079
  0
LINE
  8
0
 10
108.586
 20
34.0079
 11
108.471
 21
34.0842
  0
LINE
  8
0
 10
108.471
 20
34.0842
 11
108.363
 21
34.1693
  0
LINE
  8
0
 10
108.363
 20
34.1693
 11
108.263
 21
34.2626
  0
LINE
  8
0
 10
108.263
 20
34.2626
 11
108.169
 21
34.3635
  0
LINE
  8
0
 10
108.169
 20
34.3635
 11
108.084
 21
34.4714
  0
LINE
  8
0
 10
108.084
 20
34.4714
 11
108.008
 21
34.5856
  0
LINE
  8
0
 10
108.008
 20
34.5856
 11
107.941
 21
34.7055
  0
LINE
  8
0
 10
107.941
 20
34.7055
 11
107.883
 21
34.8303
  0
LINE
  8
0
 10
107.883
 20
34.8303
 11
107.836
 21
34.9592
  0
LINE
  8
0
 10
107.836
 20
34.9592
 11
107.798
 21
35.0915
  0
LINE
  8
0
 10
107.798
 20
35.0915
 11
107.772
 21
35.2262
  0
LINE
  8
0
 10
107.772
 20
35.2262
 11
107.755
 21
35.3627
  0
LINE
  8
0
 10
107.755
 20
35.3627
 11
107.75
 21
35.5
  0
LINE
  8
0
 10
107.75
 20
35.5
 11
107.755
 21
35.6373
  0
LINE
  8
0
 10
107.755
 20
35.6373
 11
107.772
 21
35.7738
  0
LINE
  8
0
 10
107.772
 20
35.7738
 11
107.798
 21
35.9085
  0
LINE
  8
0
 10
107.798
 20
35.9085
 11
107.836
 21
36.0408
  0
LINE
  8
0
 10
107.836
 20
36.0408
 11
107.883
 21
36.1697
  0
LINE
  8
0
 10
107.883
 20
36.1697
 11
107.941
 21
36.2945
  0
LINE
  8
0
 10
107.941
 20
36.2945
 11
108.008
 21
36.4144
  0
LINE
  8
0
 10
108.008
 20
36.4144
 11
108.084
 21
36.5286
  0
LINE
  8
0
 10
108.084
 20
36.5286
 11
108.169
 21
36.6365
  0
LINE
  8
0
 10
108.169
 20
36.6365
 11
108.263
 21
36.7374
  0
LINE
  8
0
 10
108.263
 20
36.7374
 11
108.363
 21
36.8307
  0
LINE
  8
0
 10
108.363
 20
36.8307
 11
108.471
 21
36.9158
  0
LINE
  8
0
 10
108.471
 20
36.9158
 11
108.586
 21
36.9921
  0
LINE
  8
0
 10
108.586
 20
36.9921
 11
108.706
 21
37.0592
  0
LINE
  8
0
 10
108.706
 20
37.0592
 11
108.83
 21
37.1168
  0
LINE
  8
0
 10
108.83
 20
37.1168
 11
108.959
 21
37.1643
  0
LINE
  8
0
 10
108.959
 20
37.1643
 11
109.091
 21
37.2016
  0
LINE
  8
0
 10
109.091
 20
37.2016
 11
109.226
 21
37.2285
  0
LINE
  8
0
 10
109.226
 20
37.2285
 11
109.363
 21
37.2446
  0
LINE
  8
0
 10
109.363
 20
37.2446
 11
109.5
 21
37.25
  0
LINE
  8
0
 10
109.5
 20
37.25
 11
111.5
 21
37.25
  0
LINE
  8
0
 10
111.5
 20
37.25
 11
111.637
 21
37.2446
  0
LINE
  8
0
 10
111.637
 20
37.2446
 11
111.774
 21
37.2285
  0
LINE
  8
0
 10
111.774
 20
37.2285
 11
111.909
 21
37.2016
  0
LINE
  8
0
 10
111.909
 20
37.2016
 11
112.041
 21
37.1643
  0
LINE
  8
0
 10
112.041
 20
37.1643
 11
112.17
 21
37.1168
  0
LINE
  8
0
 10
112.17
 20
37.1168
 11
112.294
 21
37.0592
  0
LINE
  8
0
 10
112.294
 20
37.0592
 11
112.414
 21
36.9921
  0
LINE
  8
0
 10
112.414
 20
36.9921
 11
112.529
 21
36.9158
  0
LINE
  8
0
 10
112.529
 20
36.9158
 11
112.637
 21
36.8307
  0
LINE
  8
0
 10
112.637
 20
36.8307
 11
112.737
 21
36.7374
  0
LINE
  8
0
 10
112.737
 20
36.7374
 11
112.831
 21
36.6365
  0
LINE
  8
0
 10
112.831
 20
36.6365
 11
112.916
 21
36.5286
  0
LINE
  8
0
 10
112.916
 20
36.5286
 11
112.992
 21
36.4144
  0
LINE
  8
0
 10
112.992
 20
36.4144
 11
113.059
 21
36.2945
  0
LINE
  8
0
 10
113.059
 20
36.2945
 11
113.117
 21
36.1697
  0
LINE
  8
0
 10
113.117
 20
36.1697
 11
113.164
 21
36.0408
  0
LINE
  8
0
 10
113.164
 20
36.0408
 11
113.202
 21
35.9085
  0
LINE
  8
0
 10
113.202
 20
35.9085
 11
113.228
 21
35.7738
  0
LINE
  8
0
 10
113.228
 20
35.7738
 11
113.245
 21
35.6373
  0
LINE
  8
0
 10
113.245
 20
35.6373
 11
113.25
 21
35.5
  0
LINE
  8
0
 10
113.25
 20
35.5
 11
113.245
 21
35.3627
  0
LINE
  8
0
 10
113.245
 20
35.3627
 11
113.228
 21
35.2262
  0
LINE
  8
0
 10
113.228
 20
35.2262
 11
113.202
 21
35.0915
  0
LINE
  8
0
 10
113.202
 20
35.0915
 11
113.164
 21
34.9592
  0
LINE
  8
0
 10
113.164
 20
34.9592
 11
113.117
 21
34.8303
  0
LINE
  8
0
 10
113.117
 20
34.8303
 11
113.059
 21
34.7055
  0
LINE
  8
0
 10
113.059
 20
34.7055
 11
112.992
 21
34.5856
  0
LINE
  8
0
 10
112.992
 20
34.5856
 11
112.916
 21
34.4714
  0
LINE
  8
0
 10
112.916
 20
34.4714
 11
112.831
 21
34.3635
  0
LINE
  8
0
 10
112.831
 20
34.3635
 11
112.737
 21
34.2626
  0
LINE
  8
0
 10
112.737
 20
34.2626
 11
112.637
 21
34.1693
  0
LINE
  8
0
 10
112.637
 20
34.1693
 11
112.529
 21
34.0842
  0
LINE
  8
0
 10
112.529
 20
34.0842
 11
112.414
 21
34.0079
  0
LINE
  8
0
 10
112.414
 20
34.0079
 11
112.294
 21
33.9407
  0
LINE
  8
0
 10
112.294
 20
33.9407
 11
112.17
 21
33.8832
  0
LINE
  8
0
 10
112.17
 20
33.8832
 11
112.041
 21
33.8356
  0
LINE
  8
0
 10
112.041
 20
33.8356
 11
111.909
 21
33.7983
  0
LINE
  8
0
 10
111.909
 20
33.7983
 11
111.774
 21
33.7715
  0
LINE
  8
0
 10
111.774
 20
33.7715
 11
111.637
 21
33.7554
  0
LINE
  8
0
 10
111.637
 20
33.7554
 11
111.5
 21
33.75
  0
LINE
  8
0
 10
111.5
 20
33.75
 11
109.5
 21
33.75
  0
ENDSEC
  0
SECTION
  2
OBJECTS
  0
DICTIONARY
  0
ENDSEC
  0
EOF
