  0
SECTION
  2
BLOCKS
  0
ENDSEC
  0
SECTION
  2
ENTITIES
  0
LINE
  8
0
 10
5.25107
 20
71.8099
 11
5.50058
 21
71.8394
  0
LINE
  8
0
 10
5.50058
 20
71.8394
 11
5.74702
 21
71.8884
  0
LINE
  8
0
 10
5.74702
 20
71.8884
 11
5.98885
 21
71.9566
  0
LINE
  8
0
 10
5.98885
 20
71.9566
 11
6.22458
 21
72.0436
  0
LINE
  8
0
 10
6.22458
 20
72.0436
 11
6.45276
 21
72.1488
  0
LINE
  8
0
 10
6.45276
 20
72.1488
 11
6.67198
 21
72.2715
  0
LINE
  8
0
 10
6.67198
 20
72.2715
 11
6.88091
 21
72.4111
  0
LINE
  8
0
 10
6.88091
 20
72.4111
 11
7.07823
 21
72.5667
  0
LINE
  8
0
 10
7.07823
 20
72.5667
 11
7.26274
 21
72.7372
  0
LINE
  8
0
 10
7.26274
 20
72.7372
 11
7.43329
 21
72.9218
  0
LINE
  8
0
 10
7.43329
 20
72.9218
 11
7.58885
 21
73.1191
  0
LINE
  8
0
 10
7.58885
 20
73.1191
 11
7.72844
 21
73.328
  0
LINE
  8
0
 10
7.72844
 20
73.328
 11
7.85121
 21
73.5472
  0
LINE
  8
0
 10
7.85121
 20
73.5472
 11
7.95641
 21
73.7754
  0
LINE
  8
0
 10
7.95641
 20
73.7754
 11
8.04338
 21
74.0111
  0
LINE
  8
0
 10
8.04338
 20
74.0111
 11
8.11157
 21
74.253
  0
LINE
  8
0
 10
8.11157
 20
74.253
 11
8.1606
 21
74.4994
  0
LINE
  8
0
 10
8.1606
 20
74.4994
 11
8.19012
 21
74.7489
  0
LINE
  8
0
 10
8.19012
 20
74.7489
 11
8.2
 21
75
  0
LINE
  8
0
 10
8.2
 20
75
 11
8.19012
 21
75.2511
  0
LINE
  8
0
 10
8.19012
 20
75.2511
 11
8.1606
 21
75.5006
  0
LINE
  8
0
 10
8.1606
 20
75.5006
 11
8.11157
 21
75.747
  0
LINE
  8
0
 10
8.11157
 20
75.747
 11
8.04338
 21
75.9888
  0
LINE
  8
0
 10
8.04338
 20
75.9888
 11
7.95641
 21
76.2246
  0
LINE
  8
0
 10
7.95641
 20
76.2246
 11
7.85121
 21
76.4528
  0
LINE
  8
0
 10
7.85121
 20
76.4528
 11
7.72844
 21
76.672
  0
LINE
  8
0
 10
7.72844
 20
76.672
 11
7.58885
 21
76.8809
  0
LINE
  8
0
 10
7.58885
 20
76.8809
 11
7.43329
 21
77.0782
  0
LINE
  8
0
 10
7.43329
 20
77.0782
 11
7.26274
 21
77.2627
  0
LINE
  8
0
 10
7.26274
 20
77.2627
 11
7.07823
 21
77.4333
  0
LINE
  8
0
 10
7.07823
 20
77.4333
 11
6.88091
 21
77.5889
  0
LINE
  8
0
 10
6.88091
 20
77.5889
 11
6.67198
 21
77.7284
  0
LINE
  8
0
 10
6.67198
 20
77.7284
 11
6.45276
 21
77.8512
  0
LINE
  8
0
 10
6.45276
 20
77.8512
 11
6.22458
 21
77.9564
  0
LINE
  8
0
 10
6.22458
 20
77.9564
 11
5.98885
 21
78.0434
  0
LINE
  8
0
 10
5.98885
 20
78.0434
 11
5.74702
 21
78.1116
  0
LINE
  8
0
 10
5.74702
 20
78.1116
 11
5.50058
 21
78.1606
  0
LINE
  8
0
 10
5.50058
 20
78.1606
 11
5.25107
 21
78.1901
  0
LINE
  8
0
 10
5.25107
 20
78.1901
 11
5
 21
78.2
  0
LINE
  8
0
 10
5
 20
78.2
 11
4.74892
 21
78.1901
  0
LINE
  8
0
 10
4.74892
 20
78.1901
 11
4.4994
 21
78.1606
  0
LINE
  8
0
 10
4.4994
 20
78.1606
 11
4.25296
 21
78.1116
  0
LINE
  8
0
 10
4.25296
 20
78.1116
 11
4.01114
 21
78.0434
  0
LINE
  8
0
 10
4.01114
 20
78.0434
 11
3.77541
 21
77.9564
  0
LINE
  8
0
 10
3.77541
 20
77.9564
 11
3.54723
 21
77.8512
  0
LINE
  8
0
 10
3.54723
 20
77.8512
 11
3.328
 21
77.7284
  0
LINE
  8
0
 10
3.328
 20
77.7284
 11
3.11908
 21
77.5889
  0
LINE
  8
0
 10
3.11908
 20
77.5889
 11
2.92175
 21
77.4333
  0
LINE
  8
0
 10
2.92175
 20
77.4333
 11
2.73724
 21
77.2627
  0
LINE
  8
0
 10
2.73724
 20
77.2627
 11
2.5667
 21
77.0782
  0
LINE
  8
0
 10
2.5667
 20
77.0782
 11
2.41113
 21
76.8809
  0
LINE
  8
0
 10
2.41113
 20
76.8809
 11
2.27155
 21
76.672
  0
LINE
  8
0
 10
2.27155
 20
76.672
 11
2.14877
 21
76.4528
  0
LINE
  8
0
 10
2.14877
 20
76.4528
 11
2.04358
 21
76.2246
  0
LINE
  8
0
 10
2.04358
 20
76.2246
 11
1.9566
 21
75.9888
  0
LINE
  8
0
 10
1.9566
 20
75.9888
 11
1.88841
 21
75.747
  0
LINE
  8
0
 10
1.88841
 20
75.747
 11
1.83939
 21
75.5006
  0
LINE
  8
0
 10
1.83939
 20
75.5006
 11
1.80986
 21
75.2511
  0
LINE
  8
0
 10
1.80986
 20
75.2511
 11
1.79999
 21
75
  0
LINE
  8
0
 10
1.79999
 20
75
 11
1.80986
 21
74.7489
  0
LINE
  8
0
 10
1.80986
 20
74.7489
 11
1.83939
 21
74.4994
  0
LINE
  8
0
 10
1.83939
 20
74.4994
 11
1.88841
 21
74.253
  0
LINE
  8
0
 10
1.88841
 20
74.253
 11
1.9566
 21
74.0111
  0
LINE
  8
0
 10
1.9566
 20
74.0111
 11
2.04358
 21
73.7754
  0
LINE
  8
0
 10
2.04358
 20
73.7754
 11
2.14877
 21
73.5472
  0
LINE
  8
0
 10
2.14877
 20
73.5472
 11
2.27155
 21
73.328
  0
LINE
  8
0
 10
2.27155
 20
73.328
 11
2.41113
 21
73.1191
  0
LINE
  8
0
 10
2.41113
 20
73.1191
 11
2.5667
 21
72.9218
  0
LINE
  8
0
 10
2.5667
 20
72.9218
 11
2.73724
 21
72.7372
  0
LINE
  8
0
 10
2.73724
 20
72.7372
 11
2.92175
 21
72.5667
  0
LINE
  8
0
 10
2.92175
 20
72.5667
 11
3.11908
 21
72.4111
  0
LINE
  8
0
 10
3.11908
 20
72.4111
 11
3.328
 21
72.2715
  0
LINE
  8
0
 10
3.328
 20
72.2715
 11
3.54723
 21
72.1488
  0
LINE
  8
0
 10
3.54723
 20
72.1488
 11
3.77541
 21
72.0436
  0
LINE
  8
0
 10
3.77541
 20
72.0436
 11
4.01114
 21
71.9566
  0
LINE
  8
0
 10
4.01114
 20
71.9566
 11
4.25296
 21
71.8884
  0
LINE
  8
0
 10
4.25296
 20
71.8884
 11
4.4994
 21
71.8394
  0
LINE
  8
0
 10
4.4994
 20
71.8394
 11
4.74892
 21
71.8099
  0
LINE
  8
0
 10
4.74892
 20
71.8099
 11
5
 21
71.8
  0
LINE
  8
0
 10
5
 20
71.8
 11
5.25107
 21
71.8099
  0
LINE
  8
0
 10
85.2511
 20
71.8099
 11
85.5006
 21
71.8394
  0
LINE
  8
0
 10
85.5006
 20
71.8394
 11
85.747
 21
71.8884
  0
LINE
  8
0
 10
85.747
 20
71.8884
 11
85.9888
 21
71.9566
  0
LINE
  8
0
 10
85.9888
 20
71.9566
 11
86.2246
 21
72.0436
  0
LINE
  8
0
 10
86.2246
 20
72.0436
 11
86.4528
 21
72.1488
  0
LINE
  8
0
 10
86.4528
 20
72.1488
 11
86.672
 21
72.2715
  0
LINE
  8
0
 10
86.672
 20
72.2715
 11
86.8809
 21
72.4111
  0
LINE
  8
0
 10
86.8809
 20
72.4111
 11
87.0782
 21
72.5667
  0
LINE
  8
0
 10
87.0782
 20
72.5667
 11
87.2627
 21
72.7372
  0
LINE
  8
0
 10
87.2627
 20
72.7372
 11
87.4333
 21
72.9218
  0
LINE
  8
0
 10
87.4333
 20
72.9218
 11
87.5889
 21
73.1191
  0
LINE
  8
0
 10
87.5889
 20
73.1191
 11
87.7284
 21
73.328
  0
LINE
  8
0
 10
87.7284
 20
73.328
 11
87.8512
 21
73.5472
  0
LINE
  8
0
 10
87.8512
 20
73.5472
 11
87.9564
 21
73.7754
  0
LINE
  8
0
 10
87.9564
 20
73.7754
 11
88.0434
 21
74.0111
  0
LINE
  8
0
 10
88.0434
 20
74.0111
 11
88.1116
 21
74.253
  0
LINE
  8
0
 10
88.1116
 20
74.253
 11
88.1606
 21
74.4994
  0
LINE
  8
0
 10
88.1606
 20
74.4994
 11
88.1901
 21
74.7489
  0
LINE
  8
0
 10
88.1901
 20
74.7489
 11
88.2
 21
75
  0
LINE
  8
0
 10
88.2
 20
75
 11
88.1901
 21
75.2511
  0
LINE
  8
0
 10
88.1901
 20
75.2511
 11
88.1606
 21
75.5006
  0
LINE
  8
0
 10
88.1606
 20
75.5006
 11
88.1116
 21
75.747
  0
LINE
  8
0
 10
88.1116
 20
75.747
 11
88.0434
 21
75.9888
  0
LINE
  8
0
 10
88.0434
 20
75.9888
 11
87.9564
 21
76.2246
  0
LINE
  8
0
 10
87.9564
 20
76.2246
 11
87.8512
 21
76.4528
  0
LINE
  8
0
 10
87.8512
 20
76.4528
 11
87.7284
 21
76.672
  0
LINE
  8
0
 10
87.7284
 20
76.672
 11
87.5889
 21
76.8809
  0
LINE
  8
0
 10
87.5889
 20
76.8809
 11
87.4333
 21
77.0782
  0
LINE
  8
0
 10
87.4333
 20
77.0782
 11
87.2627
 21
77.2627
  0
LINE
  8
0
 10
87.2627
 20
77.2627
 11
87.0782
 21
77.4333
  0
LINE
  8
0
 10
87.0782
 20
77.4333
 11
86.8809
 21
77.5889
  0
LINE
  8
0
 10
86.8809
 20
77.5889
 11
86.672
 21
77.7284
  0
LINE
  8
0
 10
86.672
 20
77.7284
 11
86.4528
 21
77.8512
  0
LINE
  8
0
 10
86.4528
 20
77.8512
 11
86.2246
 21
77.9564
  0
LINE
  8
0
 10
86.2246
 20
77.9564
 11
85.9888
 21
78.0434
  0
LINE
  8
0
 10
85.9888
 20
78.0434
 11
85.747
 21
78.1116
  0
LINE
  8
0
 10
85.747
 20
78.1116
 11
85.5006
 21
78.1606
  0
LINE
  8
0
 10
85.5006
 20
78.1606
 11
85.2511
 21
78.1901
  0
LINE
  8
0
 10
85.2511
 20
78.1901
 11
85
 21
78.2
  0
LINE
  8
0
 10
85
 20
78.2
 11
84.7489
 21
78.1901
  0
LINE
  8
0
 10
84.7489
 20
78.1901
 11
84.4994
 21
78.1606
  0
LINE
  8
0
 10
84.4994
 20
78.1606
 11
84.253
 21
78.1116
  0
LINE
  8
0
 10
84.253
 20
78.1116
 11
84.0111
 21
78.0434
  0
LINE
  8
0
 10
84.0111
 20
78.0434
 11
83.7754
 21
77.9564
  0
LINE
  8
0
 10
83.7754
 20
77.9564
 11
83.5472
 21
77.8512
  0
LINE
  8
0
 10
83.5472
 20
77.8512
 11
83.328
 21
77.7284
  0
LINE
  8
0
 10
83.328
 20
77.7284
 11
83.1191
 21
77.5889
  0
LINE
  8
0
 10
83.1191
 20
77.5889
 11
82.9218
 21
77.4333
  0
LINE
  8
0
 10
82.9218
 20
77.4333
 11
82.7372
 21
77.2627
  0
LINE
  8
0
 10
82.7372
 20
77.2627
 11
82.5667
 21
77.0782
  0
LINE
  8
0
 10
82.5667
 20
77.0782
 11
82.4111
 21
76.8809
  0
LINE
  8
0
 10
82.4111
 20
76.8809
 11
82.2715
 21
76.672
  0
LINE
  8
0
 10
82.2715
 20
76.672
 11
82.1488
 21
76.4528
  0
LINE
  8
0
 10
82.1488
 20
76.4528
 11
82.0436
 21
76.2246
  0
LINE
  8
0
 10
82.0436
 20
76.2246
 11
81.9566
 21
75.9888
  0
LINE
  8
0
 10
81.9566
 20
75.9888
 11
81.8884
 21
75.747
  0
LINE
  8
0
 10
81.8884
 20
75.747
 11
81.8394
 21
75.5006
  0
LINE
  8
0
 10
81.8394
 20
75.5006
 11
81.8099
 21
75.2511
  0
LINE
  8
0
 10
81.8099
 20
75.2511
 11
81.8
 21
75
  0
LINE
  8
0
 10
81.8
 20
75
 11
81.8099
 21
74.7489
  0
LINE
  8
0
 10
81.8099
 20
74.7489
 11
81.8394
 21
74.4994
  0
LINE
  8
0
 10
81.8394
 20
74.4994
 11
81.8884
 21
74.253
  0
LINE
  8
0
 10
81.8884
 20
74.253
 11
81.9566
 21
74.0111
  0
LINE
  8
0
 10
81.9566
 20
74.0111
 11
82.0436
 21
73.7754
  0
LINE
  8
0
 10
82.0436
 20
73.7754
 11
82.1488
 21
73.5472
  0
LINE
  8
0
 10
82.1488
 20
73.5472
 11
82.2715
 21
73.328
  0
LINE
  8
0
 10
82.2715
 20
73.328
 11
82.4111
 21
73.1191
  0
LINE
  8
0
 10
82.4111
 20
73.1191
 11
82.5667
 21
72.9218
  0
LINE
  8
0
 10
82.5667
 20
72.9218
 11
82.7372
 21
72.7372
  0
LINE
  8
0
 10
82.7372
 20
72.7372
 11
82.9218
 21
72.5667
  0
LINE
  8
0
 10
82.9218
 20
72.5667
 11
83.1191
 21
72.4111
  0
LINE
  8
0
 10
83.1191
 20
72.4111
 11
83.328
 21
72.2715
  0
LINE
  8
0
 10
83.328
 20
72.2715
 11
83.5472
 21
72.1488
  0
LINE
  8
0
 10
83.5472
 20
72.1488
 11
83.7754
 21
72.0436
  0
LINE
  8
0
 10
83.7754
 20
72.0436
 11
84.0111
 21
71.9566
  0
LINE
  8
0
 10
84.0111
 20
71.9566
 11
84.253
 21
71.8884
  0
LINE
  8
0
 10
84.253
 20
71.8884
 11
84.4994
 21
71.8394
  0
LINE
  8
0
 10
84.4994
 20
71.8394
 11
84.7489
 21
71.8099
  0
LINE
  8
0
 10
84.7489
 20
71.8099
 11
85
 21
71.8
  0
LINE
  8
0
 10
85
 20
71.8
 11
85.2511
 21
71.8099
  0
LINE
  8
0
 10
45.2511
 20
1.80986
 11
45.5006
 21
1.83939
  0
LINE
  8
0
 10
45.5006
 20
1.83939
 11
45.747
 21
1.88841
  0
LINE
  8
0
 10
45.747
 20
1.88841
 11
45.9888
 21
1.9566
  0
LINE
  8
0
 10
45.9888
 20
1.9566
 11
46.2246
 21
2.04358
  0
LINE
  8
0
 10
46.2246
 20
2.04358
 11
46.4528
 21
2.14877
  0
LINE
  8
0
 10
46.4528
 20
2.14877
 11
46.672
 21
2.27155
  0
LINE
  8
0
 10
46.672
 20
2.27155
 11
46.8809
 21
2.41113
  0
LINE
  8
0
 10
46.8809
 20
2.41113
 11
47.0782
 21
2.5667
  0
LINE
  8
0
 10
47.0782
 20
2.5667
 11
47.2627
 21
2.73724
  0
LINE
  8
0
 10
47.2627
 20
2.73724
 11
47.4333
 21
2.92175
  0
LINE
  8
0
 10
47.4333
 20
2.92175
 11
47.5889
 21
3.11908
  0
LINE
  8
0
 10
47.5889
 20
3.11908
 11
47.7284
 21
3.328
  0
LINE
  8
0
 10
47.7284
 20
3.328
 11
47.8512
 21
3.54723
  0
LINE
  8
0
 10
47.8512
 20
3.54723
 11
47.9564
 21
3.77541
  0
LINE
  8
0
 10
47.9564
 20
3.77541
 11
48.0434
 21
4.01114
  0
LINE
  8
0
 10
48.0434
 20
4.01114
 11
48.1116
 21
4.25296
  0
LINE
  8
0
 10
48.1116
 20
4.25296
 11
48.1606
 21
4.4994
  0
LINE
  8
0
 10
48.1606
 20
4.4994
 11
48.1901
 21
4.74892
  0
LINE
  8
0
 10
48.1901
 20
4.74892
 11
48.2
 21
5
  0
LINE
  8
0
 10
48.2
 20
5
 11
48.1901
 21
5.25107
  0
LINE
  8
0
 10
48.1901
 20
5.25107
 11
48.1606
 21
5.50058
  0
LINE
  8
0
 10
48.1606
 20
5.50058
 11
48.1116
 21
5.74702
  0
LINE
  8
0
 10
48.1116
 20
5.74702
 11
48.0434
 21
5.98885
  0
LINE
  8
0
 10
48.0434
 20
5.98885
 11
47.9564
 21
6.22458
  0
LINE
  8
0
 10
47.9564
 20
6.22458
 11
47.8512
 21
6.45276
  0
LINE
  8
0
 10
47.8512
 20
6.45276
 11
47.7284
 21
6.67198
  0
LINE
  8
0
 10
47.7284
 20
6.67198
 11
47.5889
 21
6.88091
  0
LINE
  8
0
 10
47.5889
 20
6.88091
 11
47.4333
 21
7.07823
  0
LINE
  8
0
 10
47.4333
 20
7.07823
 11
47.2627
 21
7.26274
  0
LINE
  8
0
 10
47.2627
 20
7.26274
 11
47.0782
 21
7.43329
  0
LINE
  8
0
 10
47.0782
 20
7.43329
 11
46.8809
 21
7.58885
  0
LINE
  8
0
 10
46.8809
 20
7.58885
 11
46.672
 21
7.72844
  0
LINE
  8
0
 10
46.672
 20
7.72844
 11
46.4528
 21
7.85121
  0
LINE
  8
0
 10
46.4528
 20
7.85121
 11
46.2246
 21
7.95641
  0
LINE
  8
0
 10
46.2246
 20
7.95641
 11
45.9888
 21
8.04338
  0
LINE
  8
0
 10
45.9888
 20
8.04338
 11
45.747
 21
8.11157
  0
LINE
  8
0
 10
45.747
 20
8.11157
 11
45.5006
 21
8.1606
  0
LINE
  8
0
 10
45.5006
 20
8.1606
 11
45.2511
 21
8.19012
  0
LINE
  8
0
 10
45.2511
 20
8.19012
 11
45
 21
8.2
  0
LINE
  8
0
 10
45
 20
8.2
 11
44.7489
 21
8.19012
  0
LINE
  8
0
 10
44.7489
 20
8.19012
 11
44.4994
 21
8.1606
  0
LINE
  8
0
 10
44.4994
 20
8.1606
 11
44.253
 21
8.11157
  0
LINE
  8
0
 10
44.253
 20
8.11157
 11
44.0111
 21
8.04338
  0
LINE
  8
0
 10
44.0111
 20
8.04338
 11
43.7754
 21
7.95641
  0
LINE
  8
0
 10
43.7754
 20
7.95641
 11
43.5472
 21
7.85121
  0
LINE
  8
0
 10
43.5472
 20
7.85121
 11
43.328
 21
7.72844
  0
LINE
  8
0
 10
43.328
 20
7.72844
 11
43.1191
 21
7.58885
  0
LINE
  8
0
 10
43.1191
 20
7.58885
 11
42.9218
 21
7.43329
  0
LINE
  8
0
 10
42.9218
 20
7.43329
 11
42.7372
 21
7.26274
  0
LINE
  8
0
 10
42.7372
 20
7.26274
 11
42.5667
 21
7.07823
  0
LINE
  8
0
 10
42.5667
 20
7.07823
 11
42.4111
 21
6.88091
  0
LINE
  8
0
 10
42.4111
 20
6.88091
 11
42.2715
 21
6.67198
  0
LINE
  8
0
 10
42.2715
 20
6.67198
 11
42.1488
 21
6.45276
  0
LINE
  8
0
 10
42.1488
 20
6.45276
 11
42.0436
 21
6.22458
  0
LINE
  8
0
 10
42.0436
 20
6.22458
 11
41.9566
 21
5.98885
  0
LINE
  8
0
 10
41.9566
 20
5.98885
 11
41.8884
 21
5.74702
  0
LINE
  8
0
 10
41.8884
 20
5.74702
 11
41.8394
 21
5.50058
  0
LINE
  8
0
 10
41.8394
 20
5.50058
 11
41.8099
 21
5.25107
  0
LINE
  8
0
 10
41.8099
 20
5.25107
 11
41.8
 21
5
  0
LINE
  8
0
 10
41.8
 20
5
 11
41.8099
 21
4.74892
  0
LINE
  8
0
 10
41.8099
 20
4.74892
 11
41.8394
 21
4.4994
  0
LINE
  8
0
 10
41.8394
 20
4.4994
 11
41.8884
 21
4.25296
  0
LINE
  8
0
 10
41.8884
 20
4.25296
 11
41.9566
 21
4.01114
  0
LINE
  8
0
 10
41.9566
 20
4.01114
 11
42.0436
 21
3.77541
  0
LINE
  8
0
 10
42.0436
 20
3.77541
 11
42.1488
 21
3.54723
  0
LINE
  8
0
 10
42.1488
 20
3.54723
 11
42.2715
 21
3.328
  0
LINE
  8
0
 10
42.2715
 20
3.328
 11
42.4111
 21
3.11908
  0
LINE
  8
0
 10
42.4111
 20
3.11908
 11
42.5667
 21
2.92175
  0
LINE
  8
0
 10
42.5667
 20
2.92175
 11
42.7372
 21
2.73724
  0
LINE
  8
0
 10
42.7372
 20
2.73724
 11
42.9218
 21
2.5667
  0
LINE
  8
0
 10
42.9218
 20
2.5667
 11
43.1191
 21
2.41113
  0
LINE
  8
0
 10
43.1191
 20
2.41113
 11
43.328
 21
2.27155
  0
LINE
  8
0
 10
43.328
 20
2.27155
 11
43.5472
 21
2.14877
  0
LINE
  8
0
 10
43.5472
 20
2.14877
 11
43.7754
 21
2.04358
  0
LINE
  8
0
 10
43.7754
 20
2.04358
 11
44.0111
 21
1.9566
  0
LINE
  8
0
 10
44.0111
 20
1.9566
 11
44.253
 21
1.88841
  0
LINE
  8
0
 10
44.253
 20
1.88841
 11
44.4994
 21
1.83939
  0
LINE
  8
0
 10
44.4994
 20
1.83939
 11
44.7489
 21
1.80986
  0
LINE
  8
0
 10
44.7489
 20
1.80986
 11
45
 21
1.79999
  0
LINE
  8
0
 10
45
 20
1.79999
 11
45.2511
 21
1.80986
  0
ENDSEC
  0
SECTION
  2
OBJECTS
  0
DICTIONARY
  0
ENDSEC
  0
EOF
