  0
SECTION
  2
BLOCKS
  0
ENDSEC
  0
SECTION
  2
ENTITIES
  0
LINE
  8
0
 10
5.13338
 20
73.3052
 11
5.26593
 21
73.3209
  0
LINE
  8
0
 10
5.26593
 20
73.3209
 11
5.39685
 21
73.347
  0
LINE
  8
0
 10
5.39685
 20
73.347
 11
5.52531
 21
73.3832
  0
LINE
  8
0
 10
5.52531
 20
73.3832
 11
5.65056
 21
73.4294
  0
LINE
  8
0
 10
5.65056
 20
73.4294
 11
5.77177
 21
73.4853
  0
LINE
  8
0
 10
5.77177
 20
73.4853
 11
5.88824
 21
73.5505
  0
LINE
  8
0
 10
5.88824
 20
73.5505
 11
5.99922
 21
73.6247
  0
LINE
  8
0
 10
5.99922
 20
73.6247
 11
6.10405
 21
73.7073
  0
LINE
  8
0
 10
6.10405
 20
73.7073
 11
6.20207
 21
73.7979
  0
LINE
  8
0
 10
6.20207
 20
73.7979
 11
6.29268
 21
73.8959
  0
LINE
  8
0
 10
6.29268
 20
73.8959
 11
6.37532
 21
74.0008
  0
LINE
  8
0
 10
6.37532
 20
74.0008
 11
6.44948
 21
74.1117
  0
LINE
  8
0
 10
6.44948
 20
74.1117
 11
6.51471
 21
74.2282
  0
LINE
  8
0
 10
6.51471
 20
74.2282
 11
6.57059
 21
74.3494
  0
LINE
  8
0
 10
6.57059
 20
74.3494
 11
6.61679
 21
74.4747
  0
LINE
  8
0
 10
6.61679
 20
74.4747
 11
6.65302
 21
74.6031
  0
LINE
  8
0
 10
6.65302
 20
74.6031
 11
6.67906
 21
74.7341
  0
LINE
  8
0
 10
6.67906
 20
74.7341
 11
6.69475
 21
74.8666
  0
LINE
  8
0
 10
6.69475
 20
74.8666
 11
6.7
 21
75
  0
LINE
  8
0
 10
6.7
 20
75
 11
6.69475
 21
75.1334
  0
LINE
  8
0
 10
6.69475
 20
75.1334
 11
6.67906
 21
75.2659
  0
LINE
  8
0
 10
6.67906
 20
75.2659
 11
6.65302
 21
75.3969
  0
LINE
  8
0
 10
6.65302
 20
75.3969
 11
6.61679
 21
75.5253
  0
LINE
  8
0
 10
6.61679
 20
75.5253
 11
6.57059
 21
75.6506
  0
LINE
  8
0
 10
6.57059
 20
75.6506
 11
6.51471
 21
75.7718
  0
LINE
  8
0
 10
6.51471
 20
75.7718
 11
6.44948
 21
75.8882
  0
LINE
  8
0
 10
6.44948
 20
75.8882
 11
6.37532
 21
75.9992
  0
LINE
  8
0
 10
6.37532
 20
75.9992
 11
6.29268
 21
76.104
  0
LINE
  8
0
 10
6.29268
 20
76.104
 11
6.20207
 21
76.2021
  0
LINE
  8
0
 10
6.20207
 20
76.2021
 11
6.10405
 21
76.2927
  0
LINE
  8
0
 10
6.10405
 20
76.2927
 11
5.99922
 21
76.3753
  0
LINE
  8
0
 10
5.99922
 20
76.3753
 11
5.88824
 21
76.4495
  0
LINE
  8
0
 10
5.88824
 20
76.4495
 11
5.77177
 21
76.5147
  0
LINE
  8
0
 10
5.77177
 20
76.5147
 11
5.65056
 21
76.5706
  0
LINE
  8
0
 10
5.65056
 20
76.5706
 11
5.52531
 21
76.6168
  0
LINE
  8
0
 10
5.52531
 20
76.6168
 11
5.39685
 21
76.653
  0
LINE
  8
0
 10
5.39685
 20
76.653
 11
5.26593
 21
76.6791
  0
LINE
  8
0
 10
5.26593
 20
76.6791
 11
5.13338
 21
76.6947
  0
LINE
  8
0
 10
5.13338
 20
76.6947
 11
5
 21
76.7
  0
LINE
  8
0
 10
5
 20
76.7
 11
4.86661
 21
76.6947
  0
LINE
  8
0
 10
4.86661
 20
76.6947
 11
4.73405
 21
76.6791
  0
LINE
  8
0
 10
4.73405
 20
76.6791
 11
4.60313
 21
76.653
  0
LINE
  8
0
 10
4.60313
 20
76.653
 11
4.47467
 21
76.6168
  0
LINE
  8
0
 10
4.47467
 20
76.6168
 11
4.34943
 21
76.5706
  0
LINE
  8
0
 10
4.34943
 20
76.5706
 11
4.22821
 21
76.5147
  0
LINE
  8
0
 10
4.22821
 20
76.5147
 11
4.11174
 21
76.4495
  0
LINE
  8
0
 10
4.11174
 20
76.4495
 11
4.00076
 21
76.3753
  0
LINE
  8
0
 10
4.00076
 20
76.3753
 11
3.89594
 21
76.2927
  0
LINE
  8
0
 10
3.89594
 20
76.2927
 11
3.79791
 21
76.2021
  0
LINE
  8
0
 10
3.79791
 20
76.2021
 11
3.70731
 21
76.104
  0
LINE
  8
0
 10
3.70731
 20
76.104
 11
3.62466
 21
75.9992
  0
LINE
  8
0
 10
3.62466
 20
75.9992
 11
3.55051
 21
75.8882
  0
LINE
  8
0
 10
3.55051
 20
75.8882
 11
3.48528
 21
75.7718
  0
LINE
  8
0
 10
3.48528
 20
75.7718
 11
3.4294
 21
75.6506
  0
LINE
  8
0
 10
3.4294
 20
75.6506
 11
3.38319
 21
75.5253
  0
LINE
  8
0
 10
3.38319
 20
75.5253
 11
3.34697
 21
75.3969
  0
LINE
  8
0
 10
3.34697
 20
75.3969
 11
3.32092
 21
75.2659
  0
LINE
  8
0
 10
3.32092
 20
75.2659
 11
3.30524
 21
75.1334
  0
LINE
  8
0
 10
3.30524
 20
75.1334
 11
3.29999
 21
75
  0
LINE
  8
0
 10
3.29999
 20
75
 11
3.30524
 21
74.8666
  0
LINE
  8
0
 10
3.30524
 20
74.8666
 11
3.32092
 21
74.7341
  0
LINE
  8
0
 10
3.32092
 20
74.7341
 11
3.34697
 21
74.6031
  0
LINE
  8
0
 10
3.34697
 20
74.6031
 11
3.38319
 21
74.4747
  0
LINE
  8
0
 10
3.38319
 20
74.4747
 11
3.4294
 21
74.3494
  0
LINE
  8
0
 10
3.4294
 20
74.3494
 11
3.48528
 21
74.2282
  0
LINE
  8
0
 10
3.48528
 20
74.2282
 11
3.55051
 21
74.1117
  0
LINE
  8
0
 10
3.55051
 20
74.1117
 11
3.62466
 21
74.0008
  0
LINE
  8
0
 10
3.62466
 20
74.0008
 11
3.70731
 21
73.8959
  0
LINE
  8
0
 10
3.70731
 20
73.8959
 11
3.79791
 21
73.7979
  0
LINE
  8
0
 10
3.79791
 20
73.7979
 11
3.89594
 21
73.7073
  0
LINE
  8
0
 10
3.89594
 20
73.7073
 11
4.00076
 21
73.6247
  0
LINE
  8
0
 10
4.00076
 20
73.6247
 11
4.11174
 21
73.5505
  0
LINE
  8
0
 10
4.11174
 20
73.5505
 11
4.22821
 21
73.4853
  0
LINE
  8
0
 10
4.22821
 20
73.4853
 11
4.34943
 21
73.4294
  0
LINE
  8
0
 10
4.34943
 20
73.4294
 11
4.47467
 21
73.3832
  0
LINE
  8
0
 10
4.47467
 20
73.3832
 11
4.60313
 21
73.347
  0
LINE
  8
0
 10
4.60313
 20
73.347
 11
4.73405
 21
73.3209
  0
LINE
  8
0
 10
4.73405
 20
73.3209
 11
4.86661
 21
73.3052
  0
LINE
  8
0
 10
4.86661
 20
73.3052
 11
5
 21
73.3
  0
LINE
  8
0
 10
5
 20
73.3
 11
5.13338
 21
73.3052
  0
LINE
  8
0
 10
85.1334
 20
73.3052
 11
85.2659
 21
73.3209
  0
LINE
  8
0
 10
85.2659
 20
73.3209
 11
85.3969
 21
73.347
  0
LINE
  8
0
 10
85.3969
 20
73.347
 11
85.5253
 21
73.3832
  0
LINE
  8
0
 10
85.5253
 20
73.3832
 11
85.6506
 21
73.4294
  0
LINE
  8
0
 10
85.6506
 20
73.4294
 11
85.7718
 21
73.4853
  0
LINE
  8
0
 10
85.7718
 20
73.4853
 11
85.8882
 21
73.5505
  0
LINE
  8
0
 10
85.8882
 20
73.5505
 11
85.9992
 21
73.6247
  0
LINE
  8
0
 10
85.9992
 20
73.6247
 11
86.104
 21
73.7073
  0
LINE
  8
0
 10
86.104
 20
73.7073
 11
86.2021
 21
73.7979
  0
LINE
  8
0
 10
86.2021
 20
73.7979
 11
86.2927
 21
73.8959
  0
LINE
  8
0
 10
86.2927
 20
73.8959
 11
86.3753
 21
74.0008
  0
LINE
  8
0
 10
86.3753
 20
74.0008
 11
86.4495
 21
74.1117
  0
LINE
  8
0
 10
86.4495
 20
74.1117
 11
86.5147
 21
74.2282
  0
LINE
  8
0
 10
86.5147
 20
74.2282
 11
86.5706
 21
74.3494
  0
LINE
  8
0
 10
86.5706
 20
74.3494
 11
86.6168
 21
74.4747
  0
LINE
  8
0
 10
86.6168
 20
74.4747
 11
86.653
 21
74.6031
  0
LINE
  8
0
 10
86.653
 20
74.6031
 11
86.6791
 21
74.7341
  0
LINE
  8
0
 10
86.6791
 20
74.7341
 11
86.6947
 21
74.8666
  0
LINE
  8
0
 10
86.6947
 20
74.8666
 11
86.7
 21
75
  0
LINE
  8
0
 10
86.7
 20
75
 11
86.6947
 21
75.1334
  0
LINE
  8
0
 10
86.6947
 20
75.1334
 11
86.6791
 21
75.2659
  0
LINE
  8
0
 10
86.6791
 20
75.2659
 11
86.653
 21
75.3969
  0
LINE
  8
0
 10
86.653
 20
75.3969
 11
86.6168
 21
75.5253
  0
LINE
  8
0
 10
86.6168
 20
75.5253
 11
86.5706
 21
75.6506
  0
LINE
  8
0
 10
86.5706
 20
75.6506
 11
86.5147
 21
75.7718
  0
LINE
  8
0
 10
86.5147
 20
75.7718
 11
86.4495
 21
75.8882
  0
LINE
  8
0
 10
86.4495
 20
75.8882
 11
86.3753
 21
75.9992
  0
LINE
  8
0
 10
86.3753
 20
75.9992
 11
86.2927
 21
76.104
  0
LINE
  8
0
 10
86.2927
 20
76.104
 11
86.2021
 21
76.2021
  0
LINE
  8
0
 10
86.2021
 20
76.2021
 11
86.104
 21
76.2927
  0
LINE
  8
0
 10
86.104
 20
76.2927
 11
85.9992
 21
76.3753
  0
LINE
  8
0
 10
85.9992
 20
76.3753
 11
85.8882
 21
76.4495
  0
LINE
  8
0
 10
85.8882
 20
76.4495
 11
85.7718
 21
76.5147
  0
LINE
  8
0
 10
85.7718
 20
76.5147
 11
85.6506
 21
76.5706
  0
LINE
  8
0
 10
85.6506
 20
76.5706
 11
85.5253
 21
76.6168
  0
LINE
  8
0
 10
85.5253
 20
76.6168
 11
85.3969
 21
76.653
  0
LINE
  8
0
 10
85.3969
 20
76.653
 11
85.2659
 21
76.6791
  0
LINE
  8
0
 10
85.2659
 20
76.6791
 11
85.1334
 21
76.6947
  0
LINE
  8
0
 10
85.1334
 20
76.6947
 11
85
 21
76.7
  0
LINE
  8
0
 10
85
 20
76.7
 11
84.8666
 21
76.6947
  0
LINE
  8
0
 10
84.8666
 20
76.6947
 11
84.7341
 21
76.6791
  0
LINE
  8
0
 10
84.7341
 20
76.6791
 11
84.6031
 21
76.653
  0
LINE
  8
0
 10
84.6031
 20
76.653
 11
84.4747
 21
76.6168
  0
LINE
  8
0
 10
84.4747
 20
76.6168
 11
84.3494
 21
76.5706
  0
LINE
  8
0
 10
84.3494
 20
76.5706
 11
84.2282
 21
76.5147
  0
LINE
  8
0
 10
84.2282
 20
76.5147
 11
84.1117
 21
76.4495
  0
LINE
  8
0
 10
84.1117
 20
76.4495
 11
84.0008
 21
76.3753
  0
LINE
  8
0
 10
84.0008
 20
76.3753
 11
83.8959
 21
76.2927
  0
LINE
  8
0
 10
83.8959
 20
76.2927
 11
83.7979
 21
76.2021
  0
LINE
  8
0
 10
83.7979
 20
76.2021
 11
83.7073
 21
76.104
  0
LINE
  8
0
 10
83.7073
 20
76.104
 11
83.6247
 21
75.9992
  0
LINE
  8
0
 10
83.6247
 20
75.9992
 11
83.5505
 21
75.8882
  0
LINE
  8
0
 10
83.5505
 20
75.8882
 11
83.4853
 21
75.7718
  0
LINE
  8
0
 10
83.4853
 20
75.7718
 11
83.4294
 21
75.6506
  0
LINE
  8
0
 10
83.4294
 20
75.6506
 11
83.3832
 21
75.5253
  0
LINE
  8
0
 10
83.3832
 20
75.5253
 11
83.347
 21
75.3969
  0
LINE
  8
0
 10
83.347
 20
75.3969
 11
83.3209
 21
75.2659
  0
LINE
  8
0
 10
83.3209
 20
75.2659
 11
83.3052
 21
75.1334
  0
LINE
  8
0
 10
83.3052
 20
75.1334
 11
83.3
 21
75
  0
LINE
  8
0
 10
83.3
 20
75
 11
83.3052
 21
74.8666
  0
LINE
  8
0
 10
83.3052
 20
74.8666
 11
83.3209
 21
74.7341
  0
LINE
  8
0
 10
83.3209
 20
74.7341
 11
83.347
 21
74.6031
  0
LINE
  8
0
 10
83.347
 20
74.6031
 11
83.3832
 21
74.4747
  0
LINE
  8
0
 10
83.3832
 20
74.4747
 11
83.4294
 21
74.3494
  0
LINE
  8
0
 10
83.4294
 20
74.3494
 11
83.4853
 21
74.2282
  0
LINE
  8
0
 10
83.4853
 20
74.2282
 11
83.5505
 21
74.1117
  0
LINE
  8
0
 10
83.5505
 20
74.1117
 11
83.6247
 21
74.0008
  0
LINE
  8
0
 10
83.6247
 20
74.0008
 11
83.7073
 21
73.8959
  0
LINE
  8
0
 10
83.7073
 20
73.8959
 11
83.7979
 21
73.7979
  0
LINE
  8
0
 10
83.7979
 20
73.7979
 11
83.8959
 21
73.7073
  0
LINE
  8
0
 10
83.8959
 20
73.7073
 11
84.0008
 21
73.6247
  0
LINE
  8
0
 10
84.0008
 20
73.6247
 11
84.1117
 21
73.5505
  0
LINE
  8
0
 10
84.1117
 20
73.5505
 11
84.2282
 21
73.4853
  0
LINE
  8
0
 10
84.2282
 20
73.4853
 11
84.3494
 21
73.4294
  0
LINE
  8
0
 10
84.3494
 20
73.4294
 11
84.4747
 21
73.3832
  0
LINE
  8
0
 10
84.4747
 20
73.3832
 11
84.6031
 21
73.347
  0
LINE
  8
0
 10
84.6031
 20
73.347
 11
84.7341
 21
73.3209
  0
LINE
  8
0
 10
84.7341
 20
73.3209
 11
84.8666
 21
73.3052
  0
LINE
  8
0
 10
84.8666
 20
73.3052
 11
85
 21
73.3
  0
LINE
  8
0
 10
85
 20
73.3
 11
85.1334
 21
73.3052
  0
LINE
  8
0
 10
45.1334
 20
3.30524
 11
45.2659
 21
3.32092
  0
LINE
  8
0
 10
45.2659
 20
3.32092
 11
45.3969
 21
3.34697
  0
LINE
  8
0
 10
45.3969
 20
3.34697
 11
45.5253
 21
3.38319
  0
LINE
  8
0
 10
45.5253
 20
3.38319
 11
45.6506
 21
3.4294
  0
LINE
  8
0
 10
45.6506
 20
3.4294
 11
45.7718
 21
3.48528
  0
LINE
  8
0
 10
45.7718
 20
3.48528
 11
45.8882
 21
3.55051
  0
LINE
  8
0
 10
45.8882
 20
3.55051
 11
45.9992
 21
3.62466
  0
LINE
  8
0
 10
45.9992
 20
3.62466
 11
46.104
 21
3.70731
  0
LINE
  8
0
 10
46.104
 20
3.70731
 11
46.2021
 21
3.79791
  0
LINE
  8
0
 10
46.2021
 20
3.79791
 11
46.2927
 21
3.89594
  0
LINE
  8
0
 10
46.2927
 20
3.89594
 11
46.3753
 21
4.00076
  0
LINE
  8
0
 10
46.3753
 20
4.00076
 11
46.4495
 21
4.11174
  0
LINE
  8
0
 10
46.4495
 20
4.11174
 11
46.5147
 21
4.22821
  0
LINE
  8
0
 10
46.5147
 20
4.22821
 11
46.5706
 21
4.34943
  0
LINE
  8
0
 10
46.5706
 20
4.34943
 11
46.6168
 21
4.47467
  0
LINE
  8
0
 10
46.6168
 20
4.47467
 11
46.653
 21
4.60313
  0
LINE
  8
0
 10
46.653
 20
4.60313
 11
46.6791
 21
4.73405
  0
LINE
  8
0
 10
46.6791
 20
4.73405
 11
46.6947
 21
4.86661
  0
LINE
  8
0
 10
46.6947
 20
4.86661
 11
46.7
 21
5
  0
LINE
  8
0
 10
46.7
 20
5
 11
46.6947
 21
5.13338
  0
LINE
  8
0
 10
46.6947
 20
5.13338
 11
46.6791
 21
5.26593
  0
LINE
  8
0
 10
46.6791
 20
5.26593
 11
46.653
 21
5.39685
  0
LINE
  8
0
 10
46.653
 20
5.39685
 11
46.6168
 21
5.52531
  0
LINE
  8
0
 10
46.6168
 20
5.52531
 11
46.5706
 21
5.65056
  0
LINE
  8
0
 10
46.5706
 20
5.65056
 11
46.5147
 21
5.77177
  0
LINE
  8
0
 10
46.5147
 20
5.77177
 11
46.4495
 21
5.88824
  0
LINE
  8
0
 10
46.4495
 20
5.88824
 11
46.3753
 21
5.99922
  0
LINE
  8
0
 10
46.3753
 20
5.99922
 11
46.2927
 21
6.10405
  0
LINE
  8
0
 10
46.2927
 20
6.10405
 11
46.2021
 21
6.20207
  0
LINE
  8
0
 10
46.2021
 20
6.20207
 11
46.104
 21
6.29268
  0
LINE
  8
0
 10
46.104
 20
6.29268
 11
45.9992
 21
6.37532
  0
LINE
  8
0
 10
45.9992
 20
6.37532
 11
45.8882
 21
6.44948
  0
LINE
  8
0
 10
45.8882
 20
6.44948
 11
45.7718
 21
6.51471
  0
LINE
  8
0
 10
45.7718
 20
6.51471
 11
45.6506
 21
6.57059
  0
LINE
  8
0
 10
45.6506
 20
6.57059
 11
45.5253
 21
6.61679
  0
LINE
  8
0
 10
45.5253
 20
6.61679
 11
45.3969
 21
6.65302
  0
LINE
  8
0
 10
45.3969
 20
6.65302
 11
45.2659
 21
6.67906
  0
LINE
  8
0
 10
45.2659
 20
6.67906
 11
45.1334
 21
6.69475
  0
LINE
  8
0
 10
45.1334
 20
6.69475
 11
45
 21
6.7
  0
LINE
  8
0
 10
45
 20
6.7
 11
44.8666
 21
6.69475
  0
LINE
  8
0
 10
44.8666
 20
6.69475
 11
44.7341
 21
6.67906
  0
LINE
  8
0
 10
44.7341
 20
6.67906
 11
44.6031
 21
6.65302
  0
LINE
  8
0
 10
44.6031
 20
6.65302
 11
44.4747
 21
6.61679
  0
LINE
  8
0
 10
44.4747
 20
6.61679
 11
44.3494
 21
6.57059
  0
LINE
  8
0
 10
44.3494
 20
6.57059
 11
44.2282
 21
6.51471
  0
LINE
  8
0
 10
44.2282
 20
6.51471
 11
44.1117
 21
6.44948
  0
LINE
  8
0
 10
44.1117
 20
6.44948
 11
44.0008
 21
6.37532
  0
LINE
  8
0
 10
44.0008
 20
6.37532
 11
43.8959
 21
6.29268
  0
LINE
  8
0
 10
43.8959
 20
6.29268
 11
43.7979
 21
6.20207
  0
LINE
  8
0
 10
43.7979
 20
6.20207
 11
43.7073
 21
6.10405
  0
LINE
  8
0
 10
43.7073
 20
6.10405
 11
43.6247
 21
5.99922
  0
LINE
  8
0
 10
43.6247
 20
5.99922
 11
43.5505
 21
5.88824
  0
LINE
  8
0
 10
43.5505
 20
5.88824
 11
43.4853
 21
5.77177
  0
LINE
  8
0
 10
43.4853
 20
5.77177
 11
43.4294
 21
5.65056
  0
LINE
  8
0
 10
43.4294
 20
5.65056
 11
43.3832
 21
5.52531
  0
LINE
  8
0
 10
43.3832
 20
5.52531
 11
43.347
 21
5.39685
  0
LINE
  8
0
 10
43.347
 20
5.39685
 11
43.3209
 21
5.26593
  0
LINE
  8
0
 10
43.3209
 20
5.26593
 11
43.3052
 21
5.13338
  0
LINE
  8
0
 10
43.3052
 20
5.13338
 11
43.3
 21
5
  0
LINE
  8
0
 10
43.3
 20
5
 11
43.3052
 21
4.86661
  0
LINE
  8
0
 10
43.3052
 20
4.86661
 11
43.3209
 21
4.73405
  0
LINE
  8
0
 10
43.3209
 20
4.73405
 11
43.347
 21
4.60313
  0
LINE
  8
0
 10
43.347
 20
4.60313
 11
43.3832
 21
4.47467
  0
LINE
  8
0
 10
43.3832
 20
4.47467
 11
43.4294
 21
4.34943
  0
LINE
  8
0
 10
43.4294
 20
4.34943
 11
43.4853
 21
4.22821
  0
LINE
  8
0
 10
43.4853
 20
4.22821
 11
43.5505
 21
4.11174
  0
LINE
  8
0
 10
43.5505
 20
4.11174
 11
43.6247
 21
4.00076
  0
LINE
  8
0
 10
43.6247
 20
4.00076
 11
43.7073
 21
3.89594
  0
LINE
  8
0
 10
43.7073
 20
3.89594
 11
43.7979
 21
3.79791
  0
LINE
  8
0
 10
43.7979
 20
3.79791
 11
43.8959
 21
3.70731
  0
LINE
  8
0
 10
43.8959
 20
3.70731
 11
44.0008
 21
3.62466
  0
LINE
  8
0
 10
44.0008
 20
3.62466
 11
44.1117
 21
3.55051
  0
LINE
  8
0
 10
44.1117
 20
3.55051
 11
44.2282
 21
3.48528
  0
LINE
  8
0
 10
44.2282
 20
3.48528
 11
44.3494
 21
3.4294
  0
LINE
  8
0
 10
44.3494
 20
3.4294
 11
44.4747
 21
3.38319
  0
LINE
  8
0
 10
44.4747
 20
3.38319
 11
44.6031
 21
3.34697
  0
LINE
  8
0
 10
44.6031
 20
3.34697
 11
44.7341
 21
3.32092
  0
LINE
  8
0
 10
44.7341
 20
3.32092
 11
44.8666
 21
3.30524
  0
LINE
  8
0
 10
44.8666
 20
3.30524
 11
45
 21
3.29999
  0
LINE
  8
0
 10
45
 20
3.29999
 11
45.1334
 21
3.30524
  0
ENDSEC
  0
SECTION
  2
OBJECTS
  0
DICTIONARY
  0
ENDSEC
  0
EOF
